<svg xmlns="http://www.w3.org/2000/svg" xmlns:xlink="http://www.w3.org/1999/xlink" width="6000" zoomAndPan="magnify" viewBox="0 0 4500 2250.000011" height="3000" preserveAspectRatio="xMidYMid meet" version="1.0"><defs><g/><clipPath id="4b2495d08b"><path d="M 2253 588 L 2277 588 L 2277 1060.859375 L 2253 1060.859375 Z M 2253 588 " clip-rule="nonzero"/></clipPath><clipPath id="6cdbdea6fd"><path d="M 1872 461 L 2273 461 L 2273 1060.859375 L 1872 1060.859375 Z M 1872 461 " clip-rule="nonzero"/></clipPath></defs><path fill="#ffffff" d="M 1526.570312 671.167969 L 1408.398438 605.507812 C 1381.847656 590.753906 1358.121094 631.40625 1384.648438 646.144531 L 1502.816406 711.804688 C 1529.371094 726.558594 1553.097656 685.90625 1526.570312 671.167969 Z M 1526.570312 671.167969 " fill-opacity="1" fill-rule="nonzero"/><path fill="#ffffff" d="M 1847.578125 361.5 L 1783.242188 247.5625 C 1768.324219 221.140625 1727.664062 244.851562 1742.605469 271.3125 L 1806.941406 385.25 C 1821.859375 411.671875 1862.515625 387.960938 1847.578125 361.5 Z M 1847.578125 361.5 " fill-opacity="1" fill-rule="nonzero"/><path fill="#ffffff" d="M 2286.726562 258.117188 L 2286.726562 125.582031 C 2286.726562 95.230469 2239.664062 95.230469 2239.664062 125.582031 L 2239.664062 258.117188 C 2239.664062 288.464844 2286.726562 288.464844 2286.726562 258.117188 Z M 2286.726562 258.117188 " fill-opacity="1" fill-rule="nonzero"/><path fill="#ffffff" d="M 2720.246094 389.003906 L 2783.75 271.3125 C 2798.160156 244.609375 2757.527344 220.851562 2743.113281 247.5625 L 2679.609375 365.25 C 2665.199219 391.953125 2705.832031 415.714844 2720.246094 389.003906 Z M 2720.246094 389.003906 " fill-opacity="1" fill-rule="nonzero"/><path fill="#ffffff" d="M 3025.199219 715.546875 L 3141.675781 646.136719 C 3167.707031 630.621094 3144.058594 589.925781 3117.921875 605.5 L 3001.449219 674.910156 C 2975.414062 690.425781 2999.066406 731.117188 3025.199219 715.546875 Z M 3025.199219 715.546875 " fill-opacity="1" fill-rule="nonzero"/><g clip-path="url(#4b2495d08b)"><path fill="#ffffff" d="M 2276.652344 1128.363281 L 2276.652344 599.777344 C 2276.652344 584.605469 2253.125 584.605469 2253.125 599.777344 L 2253.125 1128.363281 C 2253.125 1143.535156 2276.652344 1143.535156 2276.652344 1128.363281 Z M 2276.652344 1128.363281 " fill-opacity="1" fill-rule="nonzero"/></g><g clip-path="url(#6cdbdea6fd)"><path fill="#ffffff" d="M 2271.285156 1118.929688 L 1922.75 515.847656 L 1894.867188 467.601562 C 1887.28125 454.472656 1866.941406 466.316406 1874.550781 479.476562 L 2223.085938 1082.558594 L 2250.96875 1130.804688 C 2258.554688 1143.933594 2278.890625 1132.089844 2271.285156 1118.929688 Z M 2271.285156 1118.929688 " fill-opacity="1" fill-rule="nonzero"/></g><g fill="#d20a0f" fill-opacity="1"><g transform="translate(1662.847175, 1707.682404)"><g><path d="M 436.078125 -102.265625 C 436.078125 -101.910156 433.070312 -98.023438 427.0625 -90.609375 C 421.0625 -83.191406 412.492188 -74.003906 401.359375 -63.046875 C 390.234375 -52.097656 376.722656 -41.238281 360.828125 -30.46875 C 344.929688 -19.695312 326.828125 -10.6875 306.515625 -3.4375 C 286.210938 3.800781 264.226562 7.421875 240.5625 7.421875 C 214.414062 7.421875 189.332031 2.828125 165.3125 -6.359375 C 104.90625 -28.609375 62.425781 -62.867188 37.875 -109.140625 C 13.332031 -155.421875 8.300781 -210.53125 22.78125 -274.46875 C 29.488281 -303.4375 39.816406 -332.664062 53.765625 -362.15625 C 67.722656 -391.65625 84.328125 -420.003906 103.578125 -447.203125 C 122.835938 -474.398438 143.59375 -499.566406 165.84375 -522.703125 C 188.101562 -545.835938 210.890625 -565.882812 234.203125 -582.84375 C 257.515625 -599.800781 280.472656 -612.601562 303.078125 -621.25 C 325.679688 -629.90625 346.695312 -633.351562 366.125 -631.59375 C 398.976562 -630.882812 426.179688 -617.988281 447.734375 -592.90625 C 451.972656 -587.257812 457.535156 -583.195312 464.421875 -580.71875 C 471.304688 -578.25 478.28125 -577.722656 485.34375 -579.140625 C 506.539062 -584.429688 528.09375 -587.253906 550 -587.609375 C 553.882812 -587.609375 557.238281 -586.285156 560.0625 -583.640625 C 562.882812 -580.992188 564.296875 -577.726562 564.296875 -573.84375 C 564.296875 -569.957031 562.882812 -566.6875 560.0625 -564.03125 C 557.238281 -561.382812 554.0625 -560.0625 550.53125 -560.0625 C 524.738281 -559.707031 499.65625 -555.644531 475.28125 -547.875 C 468.21875 -545.40625 464.863281 -540.457031 465.21875 -533.03125 C 464.15625 -515.375 459.914062 -497.09375 452.5 -478.1875 C 445.082031 -459.289062 435.632812 -441.007812 424.15625 -423.34375 C 412.675781 -405.6875 399.867188 -389.789062 385.734375 -375.65625 C 371.609375 -361.53125 357.035156 -350.140625 342.015625 -341.484375 C 327.003906 -332.835938 312.4375 -328.335938 298.3125 -327.984375 C 282.0625 -326.210938 269.34375 -332.21875 260.15625 -346 C 249.5625 -363.3125 253.269531 -388.035156 271.28125 -420.171875 C 305.550781 -476.335938 351.828125 -519.613281 410.109375 -550 C 417.171875 -553.882812 421.234375 -559.890625 422.296875 -568.015625 C 423.003906 -576.484375 420.175781 -583.191406 413.8125 -588.140625 C 398.269531 -598.035156 381.492188 -603.335938 363.484375 -604.046875 C 347.585938 -605.453125 329.75 -602.269531 309.96875 -594.5 C 290.1875 -586.726562 269.695312 -575.070312 248.5 -559.53125 C 227.3125 -543.988281 206.382812 -525.53125 185.71875 -504.15625 C 165.050781 -482.789062 145.617188 -459.390625 127.421875 -433.953125 C 109.234375 -408.523438 93.425781 -381.769531 80 -353.6875 C 66.582031 -325.601562 56.519531 -297.078125 49.8125 -268.109375 C 45.570312 -248.328125 43.363281 -227.304688 43.1875 -205.046875 C 43.007812 -182.796875 46.804688 -160.894531 54.578125 -139.34375 C 62.347656 -117.800781 75.859375 -97.753906 95.109375 -79.203125 C 114.359375 -60.660156 140.941406 -45.207031 174.859375 -32.84375 C 198.523438 -24.019531 220.773438 -19.785156 241.609375 -20.140625 C 262.453125 -20.492188 281.613281 -23.757812 299.09375 -29.9375 C 316.582031 -36.113281 332.210938 -43.882812 345.984375 -53.25 C 359.765625 -62.613281 371.515625 -72.0625 381.234375 -81.59375 C 390.953125 -91.132812 398.546875 -99.257812 404.015625 -105.96875 C 409.492188 -112.6875 412.585938 -116.570312 413.296875 -117.625 C 415.410156 -120.800781 418.320312 -122.742188 422.03125 -123.453125 C 425.738281 -124.160156 429.179688 -123.457031 432.359375 -121.34375 C 435.546875 -119.21875 437.488281 -116.300781 438.1875 -112.59375 C 438.894531 -108.882812 438.191406 -105.441406 436.078125 -102.265625 Z M 297.78125 -356.0625 C 308.726562 -356.414062 320.828125 -360.832031 334.078125 -369.3125 C 347.328125 -377.789062 360.484375 -389.003906 373.546875 -402.953125 C 386.617188 -416.910156 398.363281 -432.453125 408.78125 -449.578125 C 419.207031 -466.710938 426.890625 -483.9375 431.828125 -501.25 C 433.597656 -507.957031 431.832031 -513.253906 426.53125 -517.140625 C 421.238281 -521.378906 415.585938 -521.734375 409.578125 -518.203125 C 362.242188 -490.648438 324.269531 -453.5625 295.65625 -406.9375 C 288.945312 -394.925781 284.882812 -384.945312 283.46875 -377 C 282.0625 -369.050781 282.238281 -363.484375 284 -360.296875 C 285.0625 -358.535156 287.003906 -357.390625 289.828125 -356.859375 C 292.660156 -356.328125 295.3125 -356.0625 297.78125 -356.0625 Z M 297.78125 -356.0625 "/></g></g></g><g fill="#d20a0f" fill-opacity="1"><g transform="translate(2132.222388, 1707.682404)"><g><path d="M 465.75 -199.75 C 453.382812 -174.320312 438.988281 -149.066406 422.5625 -123.984375 C 406.132812 -98.898438 387.941406 -75.144531 367.984375 -52.71875 C 348.023438 -30.289062 326.566406 -10.507812 303.609375 6.625 C 280.648438 23.757812 256.539062 37.269531 231.28125 47.15625 C 206.03125 57.050781 179.800781 62 152.59375 62 C 135.644531 62 118.867188 59.878906 102.265625 55.640625 C 85.660156 52.109375 71.265625 44.863281 59.078125 33.90625 C 46.890625 22.957031 37.96875 9.800781 32.3125 -5.5625 C 26.664062 -20.925781 25.078125 -36.910156 27.546875 -53.515625 C 29.671875 -73.648438 36.648438 -95.195312 48.484375 -118.15625 C 60.316406 -141.113281 77.535156 -164.160156 100.140625 -187.296875 C 122.742188 -210.441406 151.351562 -232.429688 185.96875 -253.265625 C 220.59375 -274.109375 261.660156 -292.742188 309.171875 -309.171875 C 356.679688 -325.597656 410.992188 -338.226562 472.109375 -347.0625 C 477.753906 -347.769531 482.609375 -349.976562 486.671875 -353.6875 C 490.734375 -357.394531 493.296875 -362.070312 494.359375 -367.71875 C 503.191406 -411.875 504.867188 -451.171875 499.390625 -485.609375 C 493.910156 -520.054688 481.109375 -545.050781 460.984375 -560.59375 C 455.679688 -564.832031 448.878906 -565.976562 440.578125 -564.03125 C 432.273438 -562.09375 423.265625 -558.382812 413.546875 -552.90625 C 403.835938 -547.4375 394.210938 -541.519531 384.671875 -535.15625 C 369.128906 -525.269531 354.03125 -516.703125 339.375 -509.453125 C 324.71875 -502.210938 310.851562 -500.710938 297.78125 -504.953125 C 282.59375 -510.609375 272.523438 -521.207031 267.578125 -536.75 C 266.160156 -540.28125 266.25 -543.8125 267.84375 -547.34375 C 269.4375 -550.875 272 -553.347656 275.53125 -554.765625 C 279.0625 -556.171875 282.59375 -556.078125 286.125 -554.484375 C 289.65625 -552.898438 292.128906 -550.34375 293.546875 -546.8125 C 296.015625 -540.457031 298.484375 -536.394531 300.953125 -534.625 C 303.429688 -532.863281 305.203125 -531.804688 306.265625 -531.453125 C 312.972656 -529.328125 322.242188 -531.441406 334.078125 -537.796875 C 345.910156 -544.160156 357.65625 -551.050781 369.3125 -558.46875 C 381.320312 -566.238281 393.6875 -573.476562 406.40625 -580.1875 C 419.125 -586.90625 431.570312 -591.054688 443.75 -592.640625 C 455.9375 -594.234375 467.332031 -590.789062 477.9375 -582.3125 C 494.882812 -569.59375 507.507812 -552.632812 515.8125 -531.4375 C 524.113281 -510.25 528.796875 -486.40625 529.859375 -459.90625 C 530.921875 -433.414062 528.976562 -405.515625 524.03125 -376.203125 C 522.96875 -370.191406 524.554688 -365.066406 528.796875 -360.828125 C 532.679688 -356.585938 537.628906 -354.644531 543.640625 -355 C 557.410156 -356.0625 571.363281 -356.945312 585.5 -357.65625 C 589.382812 -358.007812 592.738281 -356.859375 595.5625 -354.203125 C 598.382812 -351.554688 599.972656 -348.46875 600.328125 -344.9375 C 600.328125 -341.050781 599.09375 -337.695312 596.625 -334.875 C 594.144531 -332.039062 590.960938 -330.453125 587.078125 -330.109375 C 567.648438 -329.046875 548.578125 -327.628906 529.859375 -325.859375 C 518.203125 -324.804688 510.785156 -318.625 507.609375 -307.3125 C 496.648438 -270.226562 482.695312 -234.375 465.75 -199.75 Z M 440.84375 -211.9375 C 453.914062 -238.082031 465.21875 -265.109375 474.75 -293.015625 C 476.875 -299.367188 475.640625 -305.019531 471.046875 -309.96875 C 466.804688 -315.269531 461.332031 -317.210938 454.625 -315.796875 C 399.863281 -306.609375 351.203125 -294.332031 308.640625 -278.96875 C 266.078125 -263.601562 229.253906 -246.382812 198.171875 -227.3125 C 167.085938 -208.238281 141.300781 -188.367188 120.8125 -167.703125 C 100.320312 -147.035156 84.6875 -126.632812 73.90625 -106.5 C 63.132812 -86.363281 57.046875 -67.816406 55.640625 -50.859375 C 53.160156 -38.503906 53.953125 -26.757812 58.015625 -15.625 C 62.078125 -4.5 68.523438 5.035156 77.359375 12.984375 C 86.191406 20.929688 96.789062 26.140625 109.15625 28.609375 C 137.0625 36.023438 164.347656 36.726562 191.015625 30.71875 C 217.679688 24.71875 243.203125 13.769531 267.578125 -2.125 C 291.953125 -18.019531 314.820312 -37.179688 336.1875 -59.609375 C 357.5625 -82.035156 377.078125 -106.316406 394.734375 -132.453125 C 412.398438 -158.597656 427.769531 -185.09375 440.84375 -211.9375 Z M 440.84375 -211.9375 "/></g></g></g><g fill="#ffffff" fill-opacity="1"><g transform="translate(1183.165213, 2045.88152)"><g><path d="M 17.625 -195.90625 L 45.546875 -195.90625 C 45.054688 -189.050781 44.644531 -183.132812 44.3125 -178.15625 C 43.988281 -173.175781 43.785156 -168.359375 43.703125 -163.703125 C 43.628906 -159.054688 43.59375 -153.710938 43.59375 -147.671875 L 43.59375 -3.921875 L 64.15625 -3.921875 C 72.320312 -3.921875 79.832031 -4.125 86.6875 -4.53125 C 93.550781 -4.9375 100.613281 -5.832031 107.875 -7.21875 C 115.132812 -8.613281 123.335938 -10.613281 132.484375 -13.21875 L 125.390625 0 L 17.140625 0 C 17.796875 -6.851562 18.285156 -12.769531 18.609375 -17.75 C 18.929688 -22.726562 19.175781 -27.582031 19.34375 -32.3125 C 19.507812 -37.050781 19.59375 -42.363281 19.59375 -48.25 L 19.59375 -147.671875 C 19.59375 -153.710938 19.550781 -159.054688 19.46875 -163.703125 C 19.382812 -168.359375 19.175781 -173.175781 18.84375 -178.15625 C 18.519531 -183.132812 18.113281 -189.050781 17.625 -195.90625 Z M 17.625 -195.90625 "/></g></g></g><g fill="#ffffff" fill-opacity="1"><g transform="translate(1389.11557, 2045.88152)"><g><path d="M 14.6875 -195.90625 L 42.609375 -195.90625 C 42.117188 -189.050781 41.707031 -183.132812 41.375 -178.15625 C 41.050781 -173.175781 40.847656 -168.359375 40.765625 -163.703125 C 40.691406 -159.054688 40.65625 -153.710938 40.65625 -147.671875 L 40.65625 -83.265625 C 40.65625 -54.203125 44.9375 -33.257812 53.5 -20.4375 C 62.070312 -7.625 75.992188 -1.21875 95.265625 -1.21875 C 107.835938 -1.21875 118.328125 -3.828125 126.734375 -9.046875 C 135.140625 -14.273438 141.503906 -22.890625 145.828125 -34.890625 C 150.160156 -46.890625 152.328125 -63.015625 152.328125 -83.265625 L 152.328125 -147.671875 C 152.328125 -153.710938 152.285156 -159.054688 152.203125 -163.703125 C 152.117188 -168.359375 151.953125 -173.175781 151.703125 -178.15625 C 151.460938 -183.132812 151.015625 -189.050781 150.359375 -195.90625 L 158.203125 -195.90625 C 157.710938 -189.050781 157.300781 -183.132812 156.96875 -178.15625 C 156.644531 -173.175781 156.441406 -168.359375 156.359375 -163.703125 C 156.273438 -159.054688 156.234375 -153.710938 156.234375 -147.671875 L 156.234375 -83.265625 C 156.234375 -61.878906 153.828125 -44.734375 149.015625 -31.828125 C 144.203125 -18.929688 136.976562 -9.585938 127.34375 -3.796875 C 117.707031 1.992188 105.625 4.890625 91.09375 4.890625 C 79.664062 4.890625 69.378906 3.539062 60.234375 0.84375 C 51.097656 -1.84375 43.265625 -6.453125 36.734375 -12.984375 C 30.203125 -19.515625 25.222656 -28.492188 21.796875 -39.921875 C 18.367188 -51.347656 16.65625 -65.796875 16.65625 -83.265625 L 16.65625 -147.671875 C 16.65625 -153.710938 16.613281 -159.054688 16.53125 -163.703125 C 16.445312 -168.359375 16.238281 -173.175781 15.90625 -178.15625 C 15.582031 -183.132812 15.175781 -189.050781 14.6875 -195.90625 Z M 14.6875 -195.90625 "/></g></g></g><g fill="#ffffff" fill-opacity="1"><g transform="translate(1625.67671, 2045.88152)"><g><path d="M 128.5625 -22.28125 C 130.851562 -17.875 132.8125 -14.242188 134.4375 -11.390625 C 136.070312 -8.535156 138.6875 -4.738281 142.28125 0 L 110.6875 0 C 109.050781 -4.738281 107.660156 -8.535156 106.515625 -11.390625 C 105.378906 -14.242188 103.671875 -17.875 101.390625 -22.28125 L 67.09375 -89.140625 L 30.859375 -22.28125 C 28.410156 -17.707031 26.488281 -14.035156 25.09375 -11.265625 C 23.707031 -8.492188 21.957031 -4.738281 19.84375 0 L 12.484375 0 C 14.929688 -3.257812 16.847656 -5.992188 18.234375 -8.203125 C 19.628906 -10.410156 20.894531 -12.570312 22.03125 -14.6875 C 23.175781 -16.8125 24.566406 -19.34375 26.203125 -22.28125 L 64.890625 -93.296875 L 23.75 -173.625 C 22.28125 -176.5625 20.929688 -179.09375 19.703125 -181.21875 C 18.484375 -183.34375 17.140625 -185.546875 15.671875 -187.828125 C 14.203125 -190.117188 12.242188 -192.8125 9.796875 -195.90625 L 41.390625 -195.90625 C 42.859375 -191.175781 44.242188 -187.378906 45.546875 -184.515625 C 46.859375 -181.660156 48.570312 -178.03125 50.6875 -173.625 L 84.984375 -106.765625 L 120.96875 -172.640625 C 123.582031 -177.546875 125.625 -181.46875 127.09375 -184.40625 C 128.5625 -187.34375 130.273438 -191.175781 132.234375 -195.90625 L 139.59375 -195.90625 C 137.300781 -192.8125 135.421875 -190.117188 133.953125 -187.828125 C 132.484375 -185.546875 131.132812 -183.257812 129.90625 -180.96875 C 128.6875 -178.6875 127.179688 -175.910156 125.390625 -172.640625 L 87.1875 -102.609375 Z M 128.5625 -22.28125 "/></g></g></g><g fill="#ffffff" fill-opacity="1"><g transform="translate(1841.42252, 2045.88152)"><g><path d="M 14.6875 -195.90625 L 42.609375 -195.90625 C 42.117188 -189.050781 41.707031 -183.132812 41.375 -178.15625 C 41.050781 -173.175781 40.847656 -168.359375 40.765625 -163.703125 C 40.691406 -159.054688 40.65625 -153.710938 40.65625 -147.671875 L 40.65625 -83.265625 C 40.65625 -54.203125 44.9375 -33.257812 53.5 -20.4375 C 62.070312 -7.625 75.992188 -1.21875 95.265625 -1.21875 C 107.835938 -1.21875 118.328125 -3.828125 126.734375 -9.046875 C 135.140625 -14.273438 141.503906 -22.890625 145.828125 -34.890625 C 150.160156 -46.890625 152.328125 -63.015625 152.328125 -83.265625 L 152.328125 -147.671875 C 152.328125 -153.710938 152.285156 -159.054688 152.203125 -163.703125 C 152.117188 -168.359375 151.953125 -173.175781 151.703125 -178.15625 C 151.460938 -183.132812 151.015625 -189.050781 150.359375 -195.90625 L 158.203125 -195.90625 C 157.710938 -189.050781 157.300781 -183.132812 156.96875 -178.15625 C 156.644531 -173.175781 156.441406 -168.359375 156.359375 -163.703125 C 156.273438 -159.054688 156.234375 -153.710938 156.234375 -147.671875 L 156.234375 -83.265625 C 156.234375 -61.878906 153.828125 -44.734375 149.015625 -31.828125 C 144.203125 -18.929688 136.976562 -9.585938 127.34375 -3.796875 C 117.707031 1.992188 105.625 4.890625 91.09375 4.890625 C 79.664062 4.890625 69.378906 3.539062 60.234375 0.84375 C 51.097656 -1.84375 43.265625 -6.453125 36.734375 -12.984375 C 30.203125 -19.515625 25.222656 -28.492188 21.796875 -39.921875 C 18.367188 -51.347656 16.65625 -65.796875 16.65625 -83.265625 L 16.65625 -147.671875 C 16.65625 -153.710938 16.613281 -159.054688 16.53125 -163.703125 C 16.445312 -168.359375 16.238281 -173.175781 15.90625 -178.15625 C 15.582031 -183.132812 15.175781 -189.050781 14.6875 -195.90625 Z M 14.6875 -195.90625 "/></g></g></g><g fill="#ffffff" fill-opacity="1"><g transform="translate(2077.983661, 2045.88152)"><g><path d="M 130.53125 -46.53125 C 134.769531 -35.59375 138.972656 -27.019531 143.140625 -20.8125 C 147.304688 -14.613281 152.082031 -10.207031 157.46875 -7.59375 C 162.851562 -4.976562 169.300781 -3.671875 176.8125 -3.671875 L 176.8125 0 C 163.425781 0 152.203125 -1.34375 143.140625 -4.03125 C 134.078125 -6.726562 126.644531 -11.34375 120.84375 -17.875 C 115.050781 -24.40625 110.113281 -33.382812 106.03125 -44.8125 C 101.46875 -57.707031 96.613281 -67.421875 91.46875 -73.953125 C 86.320312 -80.484375 80.566406 -84.890625 74.203125 -87.171875 C 67.835938 -89.460938 60.410156 -90.609375 51.921875 -90.609375 L 43.09375 -90.609375 L 43.09375 -48.25 C 43.09375 -42.363281 43.132812 -37.050781 43.21875 -32.3125 C 43.300781 -27.582031 43.503906 -22.726562 43.828125 -17.75 C 44.160156 -12.769531 44.570312 -6.851562 45.0625 0 L 17.140625 0 C 17.628906 -6.851562 18.035156 -12.769531 18.359375 -17.75 C 18.691406 -22.726562 18.894531 -27.582031 18.96875 -32.3125 C 19.050781 -37.050781 19.09375 -42.363281 19.09375 -48.25 L 19.09375 -147.671875 C 19.09375 -153.710938 19.050781 -159.054688 18.96875 -163.703125 C 18.894531 -168.359375 18.691406 -173.175781 18.359375 -178.15625 C 18.035156 -183.132812 17.628906 -189.050781 17.140625 -195.90625 L 62.453125 -195.90625 C 73.390625 -195.90625 83.753906 -195.128906 93.546875 -193.578125 C 103.335938 -192.035156 112.03125 -189.34375 119.625 -185.5 C 127.21875 -181.664062 133.175781 -176.316406 137.5 -169.453125 C 141.832031 -162.597656 144 -153.867188 144 -143.265625 C 144 -130.859375 141.140625 -121.019531 135.421875 -113.75 C 129.710938 -106.488281 122 -101.140625 112.28125 -97.703125 C 102.570312 -94.273438 91.675781 -92.070312 79.59375 -91.09375 C 90.195312 -89.132812 99.863281 -84.890625 108.59375 -78.359375 C 117.332031 -71.828125 124.644531 -61.21875 130.53125 -46.53125 Z M 43.09375 -94.53125 L 62.203125 -94.53125 C 69.390625 -94.53125 76.367188 -95.265625 83.140625 -96.734375 C 89.910156 -98.203125 95.988281 -100.734375 101.375 -104.328125 C 106.769531 -107.921875 111.054688 -112.859375 114.234375 -119.140625 C 117.421875 -125.421875 119.015625 -133.460938 119.015625 -143.265625 C 119.015625 -153.054688 117.421875 -161.09375 114.234375 -167.375 C 111.054688 -173.664062 106.769531 -178.609375 101.375 -182.203125 C 95.988281 -185.796875 89.910156 -188.328125 83.140625 -189.796875 C 76.367188 -191.265625 69.390625 -192 62.203125 -192 L 43.09375 -192 Z M 43.09375 -94.53125 "/></g></g></g><g fill="#ffffff" fill-opacity="1"><g transform="translate(2327.523685, 2045.88152)"><g><path d="M 143.75 -173.140625 L 98.453125 -84.484375 L 98.453125 -48.25 C 98.453125 -42.363281 98.488281 -37.050781 98.5625 -32.3125 C 98.644531 -27.582031 98.804688 -22.726562 99.046875 -17.75 C 99.296875 -12.769531 99.664062 -6.851562 100.15625 0 L 72.25 0 C 72.894531 -6.851562 73.335938 -12.769531 73.578125 -17.75 C 73.828125 -22.726562 73.992188 -27.582031 74.078125 -32.3125 C 74.160156 -37.050781 74.203125 -42.363281 74.203125 -48.25 L 74.203125 -84.484375 L 27.421875 -172.890625 C 24.972656 -177.628906 22.726562 -181.546875 20.6875 -184.640625 C 18.644531 -187.742188 15.832031 -191.5 12.25 -195.90625 L 44.328125 -195.90625 C 45.960938 -191.175781 47.515625 -187.300781 48.984375 -184.28125 C 50.453125 -181.257812 52.410156 -177.460938 54.859375 -172.890625 L 97.71875 -92.078125 L 139.59375 -172.890625 C 142.039062 -177.628906 143.957031 -181.46875 145.34375 -184.40625 C 146.726562 -187.34375 148.398438 -191.175781 150.359375 -195.90625 L 156.96875 -195.90625 C 153.875 -191.175781 151.46875 -187.300781 149.75 -184.28125 C 148.03125 -181.257812 146.03125 -177.546875 143.75 -173.140625 Z M 143.75 -173.140625 "/></g></g></g><g fill="#ffffff" fill-opacity="1"><g transform="translate(2560.411443, 2045.88152)"><g/></g></g><g fill="#ffffff" fill-opacity="1"><g transform="translate(2694.120535, 2045.88152)"><g><path d="M 197.625 -81.546875 L 201.0625 -81.546875 C 197.300781 -64.242188 191.625 -49.101562 184.03125 -36.125 C 176.4375 -23.144531 166.640625 -13.0625 154.640625 -5.875 C 142.648438 1.300781 128.242188 4.890625 111.421875 4.890625 C 96.242188 4.890625 82.65625 2.238281 70.65625 -3.0625 C 58.65625 -8.363281 48.488281 -15.789062 40.15625 -25.34375 C 31.832031 -34.894531 25.503906 -46.078125 21.171875 -58.890625 C 16.847656 -71.710938 14.6875 -85.550781 14.6875 -100.40625 C 14.6875 -115.257812 17.175781 -128.847656 22.15625 -141.171875 C 27.132812 -153.503906 33.988281 -164.117188 42.71875 -173.015625 C 51.457031 -181.910156 61.703125 -188.765625 73.453125 -193.578125 C 85.210938 -198.398438 97.789062 -200.8125 111.1875 -200.8125 C 130.125 -200.8125 146.117188 -196.113281 159.171875 -186.71875 C 172.234375 -177.332031 182.929688 -164.234375 191.265625 -147.421875 L 166.765625 -140.8125 C 164.316406 -151.257812 160.722656 -160.6875 155.984375 -169.09375 C 151.253906 -177.5 145.21875 -184.234375 137.875 -189.296875 C 130.53125 -194.359375 121.632812 -196.890625 111.1875 -196.890625 C 100.40625 -196.890625 90.726562 -194.441406 82.15625 -189.546875 C 73.582031 -184.648438 66.234375 -177.832031 60.109375 -169.09375 C 53.992188 -160.363281 49.300781 -150.242188 46.03125 -138.734375 C 42.769531 -127.222656 41.140625 -114.9375 41.140625 -101.875 C 41.140625 -88.488281 42.648438 -75.835938 45.671875 -63.921875 C 48.691406 -52.003906 53.34375 -41.429688 59.625 -32.203125 C 65.914062 -22.972656 73.875 -15.707031 83.5 -10.40625 C 93.132812 -5.101562 104.484375 -2.453125 117.546875 -2.453125 C 131.910156 -2.453125 144.398438 -5.71875 155.015625 -12.25 C 165.628906 -18.78125 174.484375 -27.960938 181.578125 -39.796875 C 188.679688 -51.628906 194.03125 -65.546875 197.625 -81.546875 Z M 197.625 -81.546875 "/></g></g></g><g fill="#ffffff" fill-opacity="1"><g transform="translate(2968.638864, 2045.88152)"><g><path d="M 124.15625 4.890625 C 108.488281 4.890625 94 2.363281 80.6875 -2.6875 C 67.382812 -7.75 55.789062 -14.851562 45.90625 -24 C 36.03125 -33.144531 28.359375 -44 22.890625 -56.5625 C 17.421875 -69.132812 14.6875 -82.929688 14.6875 -97.953125 C 14.6875 -112.972656 17.421875 -126.769531 22.890625 -139.34375 C 28.359375 -151.914062 36.03125 -162.769531 45.90625 -171.90625 C 55.789062 -181.050781 67.382812 -188.15625 80.6875 -193.21875 C 94 -198.28125 108.488281 -200.8125 124.15625 -200.8125 C 139.832031 -200.8125 154.320312 -198.28125 167.625 -193.21875 C 180.9375 -188.15625 192.570312 -181.050781 202.53125 -171.90625 C 212.488281 -162.769531 220.203125 -151.914062 225.671875 -139.34375 C 231.140625 -126.769531 233.875 -112.972656 233.875 -97.953125 C 233.875 -82.929688 231.140625 -69.132812 225.671875 -56.5625 C 220.203125 -44 212.488281 -33.144531 202.53125 -24 C 192.570312 -14.851562 180.9375 -7.75 167.625 -2.6875 C 154.320312 2.363281 139.832031 4.890625 124.15625 4.890625 Z M 124.15625 0.984375 C 137.21875 0.984375 148.847656 -1.707031 159.046875 -7.09375 C 169.253906 -12.488281 177.988281 -19.835938 185.25 -29.140625 C 192.519531 -38.441406 198.03125 -49.007812 201.78125 -60.84375 C 205.539062 -72.6875 207.421875 -85.054688 207.421875 -97.953125 C 207.421875 -110.847656 205.539062 -123.210938 201.78125 -135.046875 C 198.03125 -146.890625 192.519531 -157.460938 185.25 -166.765625 C 177.988281 -176.078125 169.253906 -183.425781 159.046875 -188.8125 C 148.847656 -194.195312 137.21875 -196.890625 124.15625 -196.890625 C 111.257812 -196.890625 99.664062 -194.195312 89.375 -188.8125 C 79.09375 -183.425781 70.359375 -176.078125 63.171875 -166.765625 C 55.992188 -157.460938 50.523438 -146.890625 46.765625 -135.046875 C 43.015625 -123.210938 41.140625 -110.847656 41.140625 -97.953125 C 41.140625 -85.054688 43.015625 -72.6875 46.765625 -60.84375 C 50.523438 -49.007812 55.992188 -38.441406 63.171875 -29.140625 C 70.359375 -19.835938 79.09375 -12.488281 89.375 -7.09375 C 99.664062 -1.707031 111.257812 0.984375 124.15625 0.984375 Z M 124.15625 0.984375 "/></g></g></g><g fill="#ffffff" fill-opacity="1"><g transform="translate(3280.869593, 2045.88152)"><g><path d="M 31.09375 4.890625 L 17.140625 -9.0625 L 31.09375 -23.265625 L 45.3125 -9.0625 Z M 31.09375 4.890625 "/></g></g></g></svg>