<svg xmlns="http://www.w3.org/2000/svg" xmlns:xlink="http://www.w3.org/1999/xlink" width="1000" zoomAndPan="magnify" viewBox="0 0 750 749.999995" height="1000" preserveAspectRatio="xMidYMid meet" version="1.0"><defs><g/></defs><path fill="#ffffff" d="M 176.46875 340.550781 L 145.128906 340.550781 C 137.933594 340.550781 137.933594 351.707031 145.128906 351.707031 L 176.46875 351.707031 C 183.664062 351.707031 183.664062 340.550781 176.46875 340.550781 Z M 176.46875 340.550781 " fill-opacity="1" fill-rule="nonzero"/><path fill="#ffffff" d="M 207.683594 238.292969 L 179.671875 222.726562 C 173.378906 219.230469 167.753906 228.867188 174.042969 232.359375 L 202.050781 247.921875 C 208.347656 251.421875 213.96875 241.785156 207.683594 238.292969 Z M 207.683594 238.292969 " fill-opacity="1" fill-rule="nonzero"/><path fill="#ffffff" d="M 283.773438 164.886719 L 268.523438 137.878906 C 264.988281 131.617188 255.347656 137.238281 258.890625 143.511719 L 274.140625 170.519531 C 277.675781 176.78125 287.316406 171.160156 283.773438 164.886719 Z M 283.773438 164.886719 " fill-opacity="1" fill-rule="nonzero"/><path fill="#ffffff" d="M 387.867188 140.382812 L 387.867188 108.964844 C 387.867188 101.773438 376.714844 101.773438 376.714844 108.964844 L 376.714844 140.382812 C 376.714844 147.578125 387.867188 147.578125 387.867188 140.382812 Z M 387.867188 140.382812 " fill-opacity="1" fill-rule="nonzero"/><path fill="#ffffff" d="M 490.628906 171.40625 L 505.683594 143.511719 C 509.097656 137.179688 499.464844 131.546875 496.050781 137.878906 L 480.996094 165.777344 C 477.582031 172.105469 487.210938 177.738281 490.628906 171.40625 Z M 490.628906 171.40625 " fill-opacity="1" fill-rule="nonzero"/><path fill="#ffffff" d="M 562.914062 248.8125 L 590.523438 232.359375 C 596.695312 228.679688 591.089844 219.035156 584.894531 222.726562 L 557.285156 239.179688 C 551.113281 242.855469 556.71875 252.5 562.914062 248.8125 Z M 562.914062 248.8125 " fill-opacity="1" fill-rule="nonzero"/><path fill="#ffffff" d="M 587.546875 351.707031 L 619.445312 351.707031 C 626.640625 351.707031 626.640625 340.550781 619.445312 340.550781 L 587.546875 340.550781 C 580.351562 340.550781 580.351562 351.707031 587.546875 351.707031 Z M 587.546875 351.707031 " fill-opacity="1" fill-rule="nonzero"/><path fill="#ffffff" d="M 383.574219 331.894531 L 382.792969 331.894531 C 375.191406 331.894531 368.847656 338.238281 368.847656 345.839844 C 368.847656 353.4375 375.191406 359.78125 382.792969 359.78125 L 383.574219 359.78125 C 391.175781 359.78125 397.515625 353.4375 397.515625 345.839844 C 397.515625 338.238281 391.175781 331.894531 383.574219 331.894531 Z M 383.574219 331.894531 " fill-opacity="1" fill-rule="nonzero"/><path fill="#ffffff" d="M 385.480469 346.664062 L 385.480469 221.367188 C 385.480469 217.773438 379.902344 217.773438 379.902344 221.367188 L 379.902344 346.664062 C 379.902344 350.261719 385.480469 350.261719 385.480469 346.664062 Z M 385.480469 346.664062 " fill-opacity="1" fill-rule="nonzero"/><path fill="#ffffff" d="M 384.207031 344.429688 L 301.59375 201.476562 L 294.984375 190.039062 C 293.183594 186.925781 288.363281 189.734375 290.167969 192.851562 L 372.78125 335.804688 L 379.394531 347.242188 C 381.191406 350.355469 386.011719 347.546875 384.207031 344.429688 Z M 384.207031 344.429688 " fill-opacity="1" fill-rule="nonzero"/><g fill="#d20a0f" fill-opacity="1"><g transform="translate(244.780901, 518.8146)"><g><path d="M 103.359375 -24.234375 C 103.359375 -24.148438 102.644531 -23.226562 101.21875 -21.46875 C 99.800781 -19.71875 97.773438 -17.539062 95.140625 -14.9375 C 92.503906 -12.34375 89.300781 -9.769531 85.53125 -7.21875 C 81.757812 -4.664062 77.46875 -2.53125 72.65625 -0.8125 C 67.84375 0.90625 62.628906 1.765625 57.015625 1.765625 C 50.816406 1.765625 44.875 0.675781 39.1875 -1.5 C 24.863281 -6.78125 14.789062 -14.90625 8.96875 -25.875 C 3.15625 -36.84375 1.96875 -49.90625 5.40625 -65.0625 C 6.988281 -71.925781 9.429688 -78.851562 12.734375 -85.84375 C 16.046875 -92.832031 19.984375 -99.550781 24.546875 -106 C 29.109375 -112.445312 34.023438 -118.410156 39.296875 -123.890625 C 44.578125 -129.378906 49.976562 -134.132812 55.5 -138.15625 C 61.03125 -142.175781 66.472656 -145.207031 71.828125 -147.25 C 77.191406 -149.300781 82.175781 -150.117188 86.78125 -149.703125 C 94.570312 -149.535156 101.019531 -146.484375 106.125 -140.546875 C 107.132812 -139.203125 108.453125 -138.234375 110.078125 -137.640625 C 111.710938 -137.054688 113.367188 -136.9375 115.046875 -137.28125 C 120.066406 -138.53125 125.171875 -139.195312 130.359375 -139.28125 C 131.285156 -139.28125 132.082031 -138.96875 132.75 -138.34375 C 133.414062 -137.71875 133.75 -136.941406 133.75 -136.015625 C 133.75 -135.097656 133.414062 -134.320312 132.75 -133.6875 C 132.082031 -133.0625 131.328125 -132.75 130.484375 -132.75 C 124.378906 -132.664062 118.4375 -131.703125 112.65625 -129.859375 C 110.976562 -129.273438 110.179688 -128.101562 110.265625 -126.34375 C 110.015625 -122.15625 109.007812 -117.820312 107.25 -113.34375 C 105.5 -108.863281 103.257812 -104.53125 100.53125 -100.34375 C 97.8125 -96.15625 94.773438 -92.382812 91.421875 -89.03125 C 88.078125 -85.6875 84.625 -82.988281 81.0625 -80.9375 C 77.507812 -78.894531 74.054688 -77.832031 70.703125 -77.75 C 66.859375 -77.320312 63.847656 -78.742188 61.671875 -82.015625 C 59.160156 -86.117188 60.035156 -91.976562 64.296875 -99.59375 C 72.421875 -112.90625 83.390625 -123.160156 97.203125 -130.359375 C 98.878906 -131.285156 99.84375 -132.710938 100.09375 -134.640625 C 100.257812 -136.648438 99.59375 -138.238281 98.09375 -139.40625 C 94.40625 -141.75 90.425781 -143.003906 86.15625 -143.171875 C 82.382812 -143.503906 78.15625 -142.75 73.46875 -140.90625 C 68.78125 -139.070312 63.925781 -136.3125 58.90625 -132.625 C 53.882812 -128.9375 48.921875 -124.5625 44.015625 -119.5 C 39.117188 -114.4375 34.515625 -108.890625 30.203125 -102.859375 C 25.890625 -96.828125 22.140625 -90.484375 18.953125 -83.828125 C 15.773438 -77.171875 13.394531 -70.410156 11.8125 -63.546875 C 10.800781 -58.859375 10.273438 -53.875 10.234375 -48.59375 C 10.191406 -43.320312 11.09375 -38.132812 12.9375 -33.03125 C 14.78125 -27.925781 17.984375 -23.175781 22.546875 -18.78125 C 27.109375 -14.382812 33.410156 -10.71875 41.453125 -7.78125 C 47.054688 -5.6875 52.328125 -4.679688 57.265625 -4.765625 C 62.210938 -4.847656 66.753906 -5.625 70.890625 -7.09375 C 75.035156 -8.5625 78.738281 -10.40625 82 -12.625 C 85.269531 -14.84375 88.054688 -17.082031 90.359375 -19.34375 C 92.660156 -21.601562 94.460938 -23.523438 95.765625 -25.109375 C 97.066406 -26.703125 97.800781 -27.625 97.96875 -27.875 C 98.46875 -28.632812 99.15625 -29.097656 100.03125 -29.265625 C 100.914062 -29.429688 101.734375 -29.265625 102.484375 -28.765625 C 103.234375 -28.253906 103.691406 -27.5625 103.859375 -26.6875 C 104.023438 -25.8125 103.859375 -24.992188 103.359375 -24.234375 Z M 70.578125 -84.40625 C 73.179688 -84.488281 76.050781 -85.53125 79.1875 -87.53125 C 82.320312 -89.539062 85.4375 -92.195312 88.53125 -95.5 C 91.632812 -98.8125 94.421875 -102.5 96.890625 -106.5625 C 99.359375 -110.625 101.179688 -114.707031 102.359375 -118.8125 C 102.773438 -120.40625 102.359375 -121.660156 101.109375 -122.578125 C 99.847656 -123.585938 98.503906 -123.671875 97.078125 -122.828125 C 85.859375 -116.296875 76.859375 -107.503906 70.078125 -96.453125 C 68.484375 -93.609375 67.519531 -91.242188 67.1875 -89.359375 C 66.851562 -87.472656 66.894531 -86.15625 67.3125 -85.40625 C 67.5625 -84.988281 68.019531 -84.71875 68.6875 -84.59375 C 69.363281 -84.46875 69.992188 -84.40625 70.578125 -84.40625 Z M 70.578125 -84.40625 "/></g></g></g><g fill="#d20a0f" fill-opacity="1"><g transform="translate(356.040388, 518.8146)"><g><path d="M 110.390625 -47.34375 C 107.460938 -41.320312 104.050781 -35.335938 100.15625 -29.390625 C 96.269531 -23.441406 91.957031 -17.804688 87.21875 -12.484375 C 82.488281 -7.171875 77.398438 -2.488281 71.953125 1.5625 C 66.515625 5.625 60.800781 8.828125 54.8125 11.171875 C 48.832031 13.515625 42.617188 14.6875 36.171875 14.6875 C 32.148438 14.6875 28.171875 14.1875 24.234375 13.1875 C 20.304688 12.351562 16.894531 10.632812 14 8.03125 C 11.113281 5.4375 9 2.320312 7.65625 -1.3125 C 6.320312 -4.957031 5.945312 -8.75 6.53125 -12.6875 C 7.03125 -17.457031 8.679688 -22.5625 11.484375 -28 C 14.296875 -33.445312 18.378906 -38.910156 23.734375 -44.390625 C 29.097656 -49.878906 35.878906 -55.09375 44.078125 -60.03125 C 52.285156 -64.96875 62.019531 -69.382812 73.28125 -73.28125 C 84.539062 -77.175781 97.414062 -80.171875 111.90625 -82.265625 C 113.238281 -82.429688 114.382812 -82.953125 115.34375 -83.828125 C 116.3125 -84.710938 116.921875 -85.820312 117.171875 -87.15625 C 119.265625 -97.625 119.660156 -106.941406 118.359375 -115.109375 C 117.066406 -123.273438 114.035156 -129.195312 109.265625 -132.875 C 108.003906 -133.882812 106.390625 -134.15625 104.421875 -133.6875 C 102.460938 -133.226562 100.332031 -132.347656 98.03125 -131.046875 C 95.726562 -129.753906 93.445312 -128.351562 91.1875 -126.84375 C 87.5 -124.5 83.914062 -122.46875 80.4375 -120.75 C 76.96875 -119.039062 73.679688 -118.6875 70.578125 -119.6875 C 66.984375 -121.03125 64.597656 -123.539062 63.421875 -127.21875 C 63.085938 -128.0625 63.109375 -128.898438 63.484375 -129.734375 C 63.859375 -130.578125 64.46875 -131.164062 65.3125 -131.5 C 66.144531 -131.832031 66.976562 -131.8125 67.8125 -131.4375 C 68.65625 -131.0625 69.242188 -130.453125 69.578125 -129.609375 C 70.160156 -128.109375 70.742188 -127.144531 71.328125 -126.71875 C 71.921875 -126.300781 72.34375 -126.050781 72.59375 -125.96875 C 74.1875 -125.46875 76.382812 -125.96875 79.1875 -127.46875 C 81.988281 -128.976562 84.769531 -130.613281 87.53125 -132.375 C 90.382812 -134.21875 93.316406 -135.929688 96.328125 -137.515625 C 99.347656 -139.109375 102.300781 -140.09375 105.1875 -140.46875 C 108.070312 -140.851562 110.769531 -140.039062 113.28125 -138.03125 C 117.300781 -135.007812 120.296875 -130.988281 122.265625 -125.96875 C 124.234375 -120.945312 125.34375 -115.296875 125.59375 -109.015625 C 125.84375 -102.734375 125.382812 -96.117188 124.21875 -89.171875 C 123.957031 -87.742188 124.332031 -86.53125 125.34375 -85.53125 C 126.257812 -84.519531 127.429688 -84.054688 128.859375 -84.140625 C 132.117188 -84.398438 135.425781 -84.613281 138.78125 -84.78125 C 139.695312 -84.863281 140.488281 -84.585938 141.15625 -83.953125 C 141.832031 -83.328125 142.210938 -82.597656 142.296875 -81.765625 C 142.296875 -80.835938 142.003906 -80.039062 141.421875 -79.375 C 140.835938 -78.707031 140.082031 -78.332031 139.15625 -78.25 C 134.550781 -78 130.03125 -77.660156 125.59375 -77.234375 C 122.832031 -76.984375 121.070312 -75.519531 120.3125 -72.84375 C 117.71875 -64.050781 114.410156 -55.550781 110.390625 -47.34375 Z M 104.5 -50.234375 C 107.59375 -56.429688 110.269531 -62.835938 112.53125 -69.453125 C 113.03125 -70.960938 112.738281 -72.300781 111.65625 -73.46875 C 110.644531 -74.726562 109.347656 -75.191406 107.765625 -74.859375 C 94.785156 -72.679688 83.25 -69.769531 73.15625 -66.125 C 63.070312 -62.476562 54.34375 -58.394531 46.96875 -53.875 C 39.601562 -49.351562 33.488281 -44.644531 28.625 -39.75 C 23.769531 -34.851562 20.066406 -30.015625 17.515625 -25.234375 C 14.960938 -20.460938 13.519531 -16.070312 13.1875 -12.0625 C 12.601562 -9.125 12.789062 -6.335938 13.75 -3.703125 C 14.71875 -1.066406 16.242188 1.191406 18.328125 3.078125 C 20.421875 4.960938 22.9375 6.195312 25.875 6.78125 C 32.488281 8.539062 38.957031 8.707031 45.28125 7.28125 C 51.601562 5.863281 57.648438 3.269531 63.421875 -0.5 C 69.203125 -4.269531 74.625 -8.8125 79.6875 -14.125 C 84.75 -19.445312 89.375 -25.203125 93.5625 -31.390625 C 97.75 -37.585938 101.394531 -43.867188 104.5 -50.234375 Z M 104.5 -50.234375 "/></g></g></g><g fill="#ffffff" fill-opacity="1"><g transform="translate(95.671628, 598.807671)"><g><path d="M 4.265625 -47.46875 L 17.96875 -47.46875 C 17.8125 -46.039062 17.675781 -44.703125 17.5625 -43.453125 C 17.445312 -42.210938 17.367188 -40.878906 17.328125 -39.453125 C 17.285156 -38.023438 17.265625 -36.285156 17.265625 -34.234375 L 17.265625 -1.421875 L 21 -1.421875 C 22.625 -1.421875 24.085938 -1.457031 25.390625 -1.53125 C 26.691406 -1.613281 27.992188 -1.789062 29.296875 -2.0625 C 30.609375 -2.34375 32.066406 -2.75 33.671875 -3.28125 C 35.273438 -3.820312 37.144531 -4.53125 39.28125 -5.40625 L 36.84375 0 L 4.15625 0 C 4.351562 -1.425781 4.507812 -2.757812 4.625 -4 C 4.75 -5.25 4.835938 -6.59375 4.890625 -8.03125 C 4.953125 -9.476562 4.984375 -11.210938 4.984375 -13.234375 L 4.984375 -34.234375 C 4.984375 -36.285156 4.960938 -38.023438 4.921875 -39.453125 C 4.878906 -40.878906 4.804688 -42.210938 4.703125 -43.453125 C 4.609375 -44.703125 4.460938 -46.039062 4.265625 -47.46875 Z M 4.265625 -47.46875 "/></g></g></g><g fill="#ffffff" fill-opacity="1"><g transform="translate(152.73989, 598.807671)"><g><path d="M 3.5625 -47.46875 L 17.265625 -47.46875 C 17.109375 -46.039062 16.96875 -44.703125 16.84375 -43.453125 C 16.726562 -42.210938 16.648438 -40.878906 16.609375 -39.453125 C 16.566406 -38.023438 16.546875 -36.285156 16.546875 -34.234375 L 16.546875 -20.171875 C 16.546875 -15.617188 16.910156 -11.945312 17.640625 -9.15625 C 18.378906 -6.375 19.628906 -4.347656 21.390625 -3.078125 C 23.148438 -1.816406 25.59375 -1.1875 28.71875 -1.1875 C 31.601562 -1.1875 33.992188 -1.78125 35.890625 -2.96875 C 37.785156 -4.15625 39.207031 -6.128906 40.15625 -8.890625 C 41.113281 -11.660156 41.59375 -15.421875 41.59375 -20.171875 L 41.59375 -34.234375 C 41.59375 -36.285156 41.5625 -38.023438 41.5 -39.453125 C 41.4375 -40.878906 41.351562 -42.210938 41.25 -43.453125 C 41.15625 -44.703125 41.03125 -46.039062 40.875 -47.46875 L 43.71875 -47.46875 C 43.5625 -46.039062 43.429688 -44.703125 43.328125 -43.453125 C 43.234375 -42.210938 43.15625 -40.878906 43.09375 -39.453125 C 43.039062 -38.023438 43.015625 -36.285156 43.015625 -34.234375 L 43.015625 -20.171875 C 43.015625 -14.992188 42.441406 -10.84375 41.296875 -7.71875 C 40.148438 -4.59375 38.359375 -2.328125 35.921875 -0.921875 C 33.492188 0.484375 30.359375 1.1875 26.515625 1.1875 C 23.316406 1.1875 20.363281 0.867188 17.65625 0.234375 C 14.945312 -0.398438 12.59375 -1.5 10.59375 -3.0625 C 8.59375 -4.625 7.035156 -6.796875 5.921875 -9.578125 C 4.816406 -12.367188 4.265625 -15.898438 4.265625 -20.171875 L 4.265625 -34.234375 C 4.265625 -36.285156 4.242188 -38.023438 4.203125 -39.453125 C 4.171875 -40.878906 4.101562 -42.210938 4 -43.453125 C 3.90625 -44.703125 3.757812 -46.039062 3.5625 -47.46875 Z M 3.5625 -47.46875 "/></g></g></g><g fill="#ffffff" fill-opacity="1"><g transform="translate(215.443576, 598.807671)"><g><path d="M 37.140625 -5.40625 C 37.691406 -4.332031 38.175781 -3.445312 38.59375 -2.75 C 39.007812 -2.0625 39.648438 -1.144531 40.515625 0 L 25.15625 0 C 24.875 -1.144531 24.625 -2.0625 24.40625 -2.75 C 24.195312 -3.445312 23.832031 -4.332031 23.3125 -5.40625 L 16.375 -19.875 L 8.84375 -5.40625 C 8.289062 -4.289062 7.875 -3.394531 7.59375 -2.71875 C 7.3125 -2.050781 6.957031 -1.144531 6.53125 0 L 3.921875 0 C 4.515625 -0.789062 4.976562 -1.441406 5.3125 -1.953125 C 5.644531 -2.472656 5.957031 -3 6.25 -3.53125 C 6.550781 -4.0625 6.878906 -4.6875 7.234375 -5.40625 L 15.609375 -21.484375 L 5.703125 -42.0625 C 5.179688 -43.132812 4.722656 -44.015625 4.328125 -44.703125 C 3.929688 -45.390625 3.28125 -46.3125 2.375 -47.46875 L 17.734375 -47.46875 C 17.929688 -46.3125 18.160156 -45.390625 18.421875 -44.703125 C 18.679688 -44.015625 19.066406 -43.132812 19.578125 -42.0625 L 26.515625 -27.59375 L 33.703125 -41.40625 C 34.210938 -42.351562 34.601562 -43.132812 34.875 -43.75 C 35.15625 -44.363281 35.414062 -44.945312 35.65625 -45.5 C 35.894531 -46.050781 36.132812 -46.707031 36.375 -47.46875 L 38.984375 -47.46875 C 38.390625 -46.707031 37.910156 -46.050781 37.546875 -45.5 C 37.191406 -44.945312 36.859375 -44.363281 36.546875 -43.75 C 36.234375 -43.132812 35.835938 -42.351562 35.359375 -41.40625 L 27.296875 -25.984375 Z M 37.140625 -5.40625 "/></g></g></g><g fill="#ffffff" fill-opacity="1"><g transform="translate(273.757561, 598.807671)"><g><path d="M 3.5625 -47.46875 L 17.265625 -47.46875 C 17.109375 -46.039062 16.96875 -44.703125 16.84375 -43.453125 C 16.726562 -42.210938 16.648438 -40.878906 16.609375 -39.453125 C 16.566406 -38.023438 16.546875 -36.285156 16.546875 -34.234375 L 16.546875 -20.171875 C 16.546875 -15.617188 16.910156 -11.945312 17.640625 -9.15625 C 18.378906 -6.375 19.628906 -4.347656 21.390625 -3.078125 C 23.148438 -1.816406 25.59375 -1.1875 28.71875 -1.1875 C 31.601562 -1.1875 33.992188 -1.78125 35.890625 -2.96875 C 37.785156 -4.15625 39.207031 -6.128906 40.15625 -8.890625 C 41.113281 -11.660156 41.59375 -15.421875 41.59375 -20.171875 L 41.59375 -34.234375 C 41.59375 -36.285156 41.5625 -38.023438 41.5 -39.453125 C 41.4375 -40.878906 41.351562 -42.210938 41.25 -43.453125 C 41.15625 -44.703125 41.03125 -46.039062 40.875 -47.46875 L 43.71875 -47.46875 C 43.5625 -46.039062 43.429688 -44.703125 43.328125 -43.453125 C 43.234375 -42.210938 43.15625 -40.878906 43.09375 -39.453125 C 43.039062 -38.023438 43.015625 -36.285156 43.015625 -34.234375 L 43.015625 -20.171875 C 43.015625 -14.992188 42.441406 -10.84375 41.296875 -7.71875 C 40.148438 -4.59375 38.359375 -2.328125 35.921875 -0.921875 C 33.492188 0.484375 30.359375 1.1875 26.515625 1.1875 C 23.316406 1.1875 20.363281 0.867188 17.65625 0.234375 C 14.945312 -0.398438 12.59375 -1.5 10.59375 -3.0625 C 8.59375 -4.625 7.035156 -6.796875 5.921875 -9.578125 C 4.816406 -12.367188 4.265625 -15.898438 4.265625 -20.171875 L 4.265625 -34.234375 C 4.265625 -36.285156 4.242188 -38.023438 4.203125 -39.453125 C 4.171875 -40.878906 4.101562 -42.210938 4 -43.453125 C 3.90625 -44.703125 3.757812 -46.039062 3.5625 -47.46875 Z M 3.5625 -47.46875 "/></g></g></g><g fill="#ffffff" fill-opacity="1"><g transform="translate(336.461259, 598.807671)"><g><path d="M 41 -10.921875 C 41.988281 -8.617188 42.957031 -6.753906 43.90625 -5.328125 C 44.851562 -3.910156 45.9375 -2.875 47.15625 -2.21875 C 48.382812 -1.570312 49.867188 -1.25 51.609375 -1.25 L 51.609375 0 C 48.523438 0 45.726562 -0.109375 43.21875 -0.328125 C 40.707031 -0.546875 38.460938 -1 36.484375 -1.6875 C 34.503906 -2.382812 32.832031 -3.429688 31.46875 -4.828125 C 30.101562 -6.234375 29.023438 -8.125 28.234375 -10.5 C 27.441406 -12.945312 26.707031 -14.929688 26.03125 -16.453125 C 25.363281 -17.984375 24.664062 -19.144531 23.9375 -19.9375 C 23.207031 -20.726562 22.367188 -21.257812 21.421875 -21.53125 C 20.472656 -21.8125 19.320312 -21.953125 17.96875 -21.953125 L 17.140625 -21.953125 L 17.140625 -13.234375 C 17.140625 -11.210938 17.160156 -9.476562 17.203125 -8.03125 C 17.242188 -6.59375 17.320312 -5.25 17.4375 -4 C 17.5625 -2.757812 17.703125 -1.425781 17.859375 0 L 4.15625 0 C 4.351562 -1.425781 4.5 -2.757812 4.59375 -4 C 4.695312 -5.25 4.765625 -6.59375 4.796875 -8.03125 C 4.835938 -9.476562 4.859375 -11.210938 4.859375 -13.234375 L 4.859375 -34.234375 C 4.859375 -36.285156 4.835938 -38.023438 4.796875 -39.453125 C 4.765625 -40.878906 4.695312 -42.210938 4.59375 -43.453125 C 4.5 -44.703125 4.351562 -46.039062 4.15625 -47.46875 L 20.765625 -47.46875 C 23.734375 -47.46875 26.5625 -47.296875 29.25 -46.953125 C 31.9375 -46.617188 34.328125 -46.003906 36.421875 -45.109375 C 38.523438 -44.222656 40.175781 -42.9375 41.375 -41.25 C 42.582031 -39.570312 43.1875 -37.390625 43.1875 -34.703125 C 43.1875 -31.703125 42.441406 -29.335938 40.953125 -27.609375 C 39.472656 -25.890625 37.488281 -24.613281 35 -23.78125 C 32.507812 -22.957031 29.703125 -22.40625 26.578125 -22.125 C 29.703125 -21.613281 32.5 -20.515625 34.96875 -18.828125 C 37.445312 -17.148438 39.457031 -14.515625 41 -10.921875 Z M 17.140625 -23.375 L 20.59375 -23.375 C 22.488281 -23.375 24.207031 -23.695312 25.75 -24.34375 C 27.289062 -25 28.523438 -26.140625 29.453125 -27.765625 C 30.378906 -29.390625 30.84375 -31.703125 30.84375 -34.703125 C 30.84375 -37.710938 30.378906 -40.023438 29.453125 -41.640625 C 28.523438 -43.265625 27.289062 -44.398438 25.75 -45.046875 C 24.207031 -45.703125 22.488281 -46.03125 20.59375 -46.03125 L 17.140625 -46.03125 Z M 17.140625 -23.375 "/></g></g></g><g fill="#ffffff" fill-opacity="1"><g transform="translate(405.452879, 598.807671)"><g><path d="M 40.34375 -41.9375 L 30.078125 -19.453125 L 30.078125 -13.234375 C 30.078125 -11.210938 30.101562 -9.476562 30.15625 -8.03125 C 30.21875 -6.59375 30.304688 -5.25 30.421875 -4 C 30.546875 -2.757812 30.6875 -1.425781 30.84375 0 L 17.140625 0 C 17.304688 -1.425781 17.4375 -2.757812 17.53125 -4 C 17.632812 -5.25 17.710938 -6.59375 17.765625 -8.03125 C 17.828125 -9.476562 17.859375 -11.210938 17.859375 -13.234375 L 17.859375 -19.453125 L 6.703125 -41.890625 C 6.148438 -43.035156 5.601562 -44.007812 5.0625 -44.8125 C 4.53125 -45.625 3.832031 -46.507812 2.96875 -47.46875 L 18.328125 -47.46875 C 18.648438 -46.3125 18.96875 -45.378906 19.28125 -44.671875 C 19.59375 -43.960938 20.03125 -43.035156 20.59375 -41.890625 L 30.078125 -22.90625 L 38.796875 -41.890625 C 39.347656 -43.078125 39.765625 -44.015625 40.046875 -44.703125 C 40.328125 -45.390625 40.601562 -46.3125 40.875 -47.46875 L 43.25 -47.46875 C 42.5 -46.3125 41.945312 -45.367188 41.59375 -44.640625 C 41.238281 -43.910156 40.820312 -43.007812 40.34375 -41.9375 Z M 40.34375 -41.9375 "/></g></g></g><g fill="#ffffff" fill-opacity="1"><g transform="translate(467.088786, 598.807671)"><g/></g></g><g fill="#ffffff" fill-opacity="1"><g transform="translate(499.954385, 598.807671)"><g><path d="M 51.375 -20.40625 L 52.625 -20.40625 C 51 -13.644531 48.316406 -8.351562 44.578125 -4.53125 C 40.847656 -0.71875 35.796875 1.1875 29.421875 1.1875 C 24.242188 1.1875 19.707031 0.128906 15.8125 -1.984375 C 11.914062 -4.097656 8.898438 -7.0625 6.765625 -10.875 C 4.628906 -14.695312 3.5625 -19.179688 3.5625 -24.328125 C 3.5625 -28.203125 4.234375 -31.640625 5.578125 -34.640625 C 6.921875 -37.648438 8.769531 -40.191406 11.125 -42.265625 C 13.476562 -44.347656 16.195312 -45.929688 19.28125 -47.015625 C 22.363281 -48.109375 25.644531 -48.65625 29.125 -48.65625 C 34.351562 -48.65625 38.753906 -47.347656 42.328125 -44.734375 C 45.910156 -42.117188 48.726562 -38.640625 50.78125 -34.296875 L 39.515625 -31.140625 C 39.160156 -34.265625 38.554688 -37.035156 37.703125 -39.453125 C 36.847656 -41.867188 35.726562 -43.765625 34.34375 -45.140625 C 32.96875 -46.523438 31.226562 -47.21875 29.125 -47.21875 C 26.4375 -47.21875 24.160156 -46.226562 22.296875 -44.25 C 20.441406 -42.28125 19.050781 -39.625 18.125 -36.28125 C 17.195312 -32.9375 16.734375 -29.226562 16.734375 -25.15625 C 16.734375 -21.988281 17.046875 -19.03125 17.671875 -16.28125 C 18.304688 -13.53125 19.285156 -11.109375 20.609375 -9.015625 C 21.941406 -6.921875 23.625 -5.289062 25.65625 -4.125 C 27.695312 -2.957031 30.140625 -2.375 32.984375 -2.375 C 37.378906 -2.375 41.195312 -3.875 44.4375 -6.875 C 47.675781 -9.882812 49.988281 -14.394531 51.375 -20.40625 Z M 51.375 -20.40625 "/></g></g></g><g fill="#ffffff" fill-opacity="1"><g transform="translate(570.369695, 598.807671)"><g><path d="M 32.515625 1.1875 C 28.398438 1.1875 24.582031 0.632812 21.0625 -0.46875 C 17.539062 -1.582031 14.472656 -3.195312 11.859375 -5.3125 C 9.253906 -7.425781 7.21875 -10.035156 5.75 -13.140625 C 4.289062 -16.242188 3.5625 -19.773438 3.5625 -23.734375 C 3.5625 -27.679688 4.289062 -31.195312 5.75 -34.28125 C 7.21875 -37.375 9.253906 -39.988281 11.859375 -42.125 C 14.472656 -44.257812 17.539062 -45.878906 21.0625 -46.984375 C 24.582031 -48.097656 28.398438 -48.65625 32.515625 -48.65625 C 36.628906 -48.65625 40.4375 -48.097656 43.9375 -46.984375 C 47.4375 -45.878906 50.488281 -44.257812 53.09375 -42.125 C 55.707031 -39.988281 57.742188 -37.375 59.203125 -34.28125 C 60.671875 -31.195312 61.40625 -27.679688 61.40625 -23.734375 C 61.40625 -19.773438 60.671875 -16.242188 59.203125 -13.140625 C 57.742188 -10.035156 55.707031 -7.425781 53.09375 -5.3125 C 50.488281 -3.195312 47.4375 -1.582031 43.9375 -0.46875 C 40.4375 0.632812 36.628906 1.1875 32.515625 1.1875 Z M 32.515625 -0.234375 C 35.242188 -0.234375 37.59375 -0.863281 39.5625 -2.125 C 41.539062 -3.394531 43.171875 -5.117188 44.453125 -7.296875 C 45.742188 -9.472656 46.695312 -11.972656 47.3125 -14.796875 C 47.925781 -17.628906 48.234375 -20.609375 48.234375 -23.734375 C 48.234375 -26.859375 47.925781 -29.820312 47.3125 -32.625 C 46.695312 -35.4375 45.742188 -37.9375 44.453125 -40.125 C 43.171875 -42.320312 41.539062 -44.050781 39.5625 -45.3125 C 37.59375 -46.582031 35.242188 -47.21875 32.515625 -47.21875 C 29.785156 -47.21875 27.421875 -46.582031 25.421875 -45.3125 C 23.421875 -44.050781 21.773438 -42.320312 20.484375 -40.125 C 19.203125 -37.9375 18.253906 -35.4375 17.640625 -32.625 C 17.035156 -29.820312 16.734375 -26.859375 16.734375 -23.734375 C 16.734375 -20.609375 17.035156 -17.628906 17.640625 -14.796875 C 18.253906 -11.972656 19.203125 -9.472656 20.484375 -7.296875 C 21.773438 -5.117188 23.421875 -3.394531 25.421875 -2.125 C 27.421875 -0.863281 29.785156 -0.234375 32.515625 -0.234375 Z M 32.515625 -0.234375 "/></g></g></g><g fill="#ffffff" fill-opacity="1"><g transform="translate(650.750795, 598.807671)"><g><path d="M 9.078125 1.1875 L 4.15625 -3.734375 L 9.078125 -8.65625 L 14 -3.734375 Z M 9.078125 1.1875 "/></g></g></g></svg>