<svg xmlns="http://www.w3.org/2000/svg" xmlns:xlink="http://www.w3.org/1999/xlink" width="500" zoomAndPan="magnify" viewBox="0 0 375 374.999991" height="500" preserveAspectRatio="xMidYMid meet" version="1.0"><defs><g/></defs><path fill="#ffffff" d="M 88.234375 170.273438 L 72.5625 170.273438 C 68.96875 170.273438 68.96875 175.851562 72.5625 175.851562 L 88.234375 175.851562 C 91.832031 175.851562 91.832031 170.273438 88.234375 170.273438 Z M 88.234375 170.273438 " fill-opacity="1" fill-rule="nonzero"/><path fill="#ffffff" d="M 103.839844 119.144531 L 89.835938 111.363281 C 86.6875 109.613281 83.875 114.429688 87.019531 116.179688 L 101.027344 123.960938 C 104.171875 125.707031 106.984375 120.890625 103.839844 119.144531 Z M 103.839844 119.144531 " fill-opacity="1" fill-rule="nonzero"/><path fill="#ffffff" d="M 141.886719 82.441406 L 134.261719 68.941406 C 132.492188 65.808594 127.671875 68.617188 129.445312 71.753906 L 137.070312 85.257812 C 138.835938 88.390625 143.65625 85.578125 141.886719 82.441406 Z M 141.886719 82.441406 " fill-opacity="1" fill-rule="nonzero"/><path fill="#ffffff" d="M 193.929688 70.191406 L 193.929688 54.484375 C 193.929688 50.886719 188.355469 50.886719 188.355469 54.484375 L 188.355469 70.191406 C 188.355469 73.789062 193.929688 73.789062 193.929688 70.191406 Z M 193.929688 70.191406 " fill-opacity="1" fill-rule="nonzero"/><path fill="#ffffff" d="M 245.308594 85.703125 L 252.835938 71.753906 C 254.542969 68.589844 249.730469 65.773438 248.019531 68.941406 L 240.496094 82.886719 C 238.785156 86.050781 243.601562 88.867188 245.308594 85.703125 Z M 245.308594 85.703125 " fill-opacity="1" fill-rule="nonzero"/><path fill="#ffffff" d="M 281.453125 124.402344 L 295.257812 116.175781 C 298.34375 114.339844 295.539062 109.515625 292.441406 111.359375 L 278.636719 119.585938 C 275.550781 121.425781 278.355469 126.25 281.453125 124.402344 Z M 281.453125 124.402344 " fill-opacity="1" fill-rule="nonzero"/><path fill="#ffffff" d="M 293.765625 175.851562 L 309.71875 175.851562 C 313.3125 175.851562 313.3125 170.273438 309.71875 170.273438 L 293.765625 170.273438 C 290.171875 170.273438 290.171875 175.851562 293.765625 175.851562 Z M 293.765625 175.851562 " fill-opacity="1" fill-rule="nonzero"/><path fill="#ffffff" d="M 191.785156 165.945312 L 191.394531 165.945312 C 187.59375 165.945312 184.421875 169.117188 184.421875 172.917969 C 184.421875 176.714844 187.59375 179.886719 191.394531 179.886719 L 191.785156 179.886719 C 195.585938 179.886719 198.753906 176.714844 198.753906 172.917969 C 198.753906 169.117188 195.585938 165.945312 191.785156 165.945312 Z M 191.785156 165.945312 " fill-opacity="1" fill-rule="nonzero"/><path fill="#ffffff" d="M 192.738281 173.328125 L 192.738281 110.683594 C 192.738281 108.886719 189.949219 108.886719 189.949219 110.683594 L 189.949219 173.328125 C 189.949219 175.128906 192.738281 175.128906 192.738281 173.328125 Z M 192.738281 173.328125 " fill-opacity="1" fill-rule="nonzero"/><path fill="#ffffff" d="M 192.101562 172.210938 L 150.792969 100.734375 L 147.488281 95.019531 C 146.589844 93.460938 144.179688 94.867188 145.082031 96.425781 L 186.390625 167.898438 L 189.695312 173.617188 C 190.59375 175.175781 193.003906 173.769531 192.101562 172.210938 Z M 192.101562 172.210938 " fill-opacity="1" fill-rule="nonzero"/><g fill="#d20a0f" fill-opacity="1"><g transform="translate(122.390452, 259.407281)"><g><path d="M 51.6875 -12.125 C 51.6875 -12.082031 51.328125 -11.617188 50.609375 -10.734375 C 49.898438 -9.859375 48.882812 -8.769531 47.5625 -7.46875 C 46.25 -6.175781 44.648438 -4.890625 42.765625 -3.609375 C 40.878906 -2.335938 38.734375 -1.269531 36.328125 -0.40625 C 33.921875 0.445312 31.316406 0.875 28.515625 0.875 C 25.410156 0.875 22.4375 0.332031 19.59375 -0.75 C 12.4375 -3.382812 7.398438 -7.441406 4.484375 -12.921875 C 1.578125 -18.410156 0.984375 -24.945312 2.703125 -32.53125 C 3.492188 -35.957031 4.71875 -39.421875 6.375 -42.921875 C 8.03125 -46.421875 10 -49.78125 12.28125 -53 C 14.5625 -56.21875 17.019531 -59.195312 19.65625 -61.9375 C 22.289062 -64.6875 24.988281 -67.066406 27.75 -69.078125 C 30.519531 -71.085938 33.242188 -72.601562 35.921875 -73.625 C 38.597656 -74.65625 41.085938 -75.066406 43.390625 -74.859375 C 47.285156 -74.773438 50.507812 -73.242188 53.0625 -70.265625 C 53.5625 -69.597656 54.21875 -69.117188 55.03125 -68.828125 C 55.851562 -68.535156 56.679688 -68.472656 57.515625 -68.640625 C 60.035156 -69.265625 62.59375 -69.597656 65.1875 -69.640625 C 65.644531 -69.640625 66.039062 -69.484375 66.375 -69.171875 C 66.707031 -68.859375 66.875 -68.472656 66.875 -68.015625 C 66.875 -67.546875 66.707031 -67.15625 66.375 -66.84375 C 66.039062 -66.53125 65.664062 -66.375 65.25 -66.375 C 62.1875 -66.332031 59.210938 -65.851562 56.328125 -64.9375 C 55.492188 -64.644531 55.097656 -64.054688 55.140625 -63.171875 C 55.015625 -61.078125 54.507812 -58.910156 53.625 -56.671875 C 52.75 -54.429688 51.628906 -52.265625 50.265625 -50.171875 C 48.910156 -48.078125 47.394531 -46.191406 45.71875 -44.515625 C 44.039062 -42.847656 42.3125 -41.5 40.53125 -40.46875 C 38.75 -39.445312 37.023438 -38.914062 35.359375 -38.875 C 33.429688 -38.664062 31.921875 -39.375 30.828125 -41 C 29.578125 -43.050781 30.019531 -45.984375 32.15625 -49.796875 C 36.21875 -56.453125 41.703125 -61.582031 48.609375 -65.1875 C 49.441406 -65.644531 49.921875 -66.351562 50.046875 -67.3125 C 50.128906 -68.320312 49.796875 -69.117188 49.046875 -69.703125 C 47.203125 -70.878906 45.210938 -71.507812 43.078125 -71.59375 C 41.191406 -71.757812 39.078125 -71.378906 36.734375 -70.453125 C 34.390625 -69.535156 31.960938 -68.15625 29.453125 -66.3125 C 26.941406 -64.46875 24.460938 -62.28125 22.015625 -59.75 C 19.566406 -57.21875 17.265625 -54.441406 15.109375 -51.421875 C 12.953125 -48.410156 11.078125 -45.238281 9.484375 -41.90625 C 7.890625 -38.582031 6.695312 -35.207031 5.90625 -31.78125 C 5.40625 -29.4375 5.144531 -26.941406 5.125 -24.296875 C 5.101562 -21.660156 5.550781 -19.066406 6.46875 -16.515625 C 7.382812 -13.960938 8.984375 -11.585938 11.265625 -9.390625 C 13.546875 -7.191406 16.695312 -5.359375 20.71875 -3.890625 C 23.53125 -2.847656 26.171875 -2.347656 28.640625 -2.390625 C 31.109375 -2.429688 33.378906 -2.816406 35.453125 -3.546875 C 37.523438 -4.273438 39.375 -5.191406 41 -6.296875 C 42.632812 -7.410156 44.023438 -8.53125 45.171875 -9.65625 C 46.328125 -10.789062 47.226562 -11.753906 47.875 -12.546875 C 48.53125 -13.347656 48.898438 -13.8125 48.984375 -13.9375 C 49.234375 -14.3125 49.578125 -14.539062 50.015625 -14.625 C 50.453125 -14.707031 50.863281 -14.625 51.25 -14.375 C 51.625 -14.125 51.851562 -13.78125 51.9375 -13.34375 C 52.019531 -12.90625 51.9375 -12.5 51.6875 -12.125 Z M 35.296875 -42.203125 C 36.585938 -42.242188 38.019531 -42.765625 39.59375 -43.765625 C 41.164062 -44.773438 42.722656 -46.101562 44.265625 -47.75 C 45.816406 -49.40625 47.207031 -51.25 48.4375 -53.28125 C 49.675781 -55.3125 50.585938 -57.351562 51.171875 -59.40625 C 51.390625 -60.195312 51.179688 -60.828125 50.546875 -61.296875 C 49.921875 -61.796875 49.253906 -61.835938 48.546875 -61.421875 C 42.929688 -58.148438 38.429688 -53.753906 35.046875 -48.234375 C 34.242188 -46.804688 33.757812 -45.617188 33.59375 -44.671875 C 33.425781 -43.734375 33.445312 -43.078125 33.65625 -42.703125 C 33.78125 -42.492188 34.007812 -42.359375 34.34375 -42.296875 C 34.6875 -42.234375 35.003906 -42.203125 35.296875 -42.203125 Z M 35.296875 -42.203125 "/></g></g></g><g fill="#d20a0f" fill-opacity="1"><g transform="translate(178.020194, 259.407281)"><g><path d="M 55.203125 -23.671875 C 53.734375 -20.660156 52.023438 -17.664062 50.078125 -14.6875 C 48.128906 -11.71875 45.972656 -8.90625 43.609375 -6.25 C 41.242188 -3.59375 38.703125 -1.25 35.984375 0.78125 C 33.265625 2.8125 30.40625 4.410156 27.40625 5.578125 C 24.414062 6.753906 21.304688 7.34375 18.078125 7.34375 C 16.078125 7.34375 14.09375 7.09375 12.125 6.59375 C 10.15625 6.175781 8.445312 5.316406 7 4.015625 C 5.550781 2.722656 4.492188 1.164062 3.828125 -0.65625 C 3.160156 -2.476562 2.972656 -4.375 3.265625 -6.34375 C 3.515625 -8.726562 4.335938 -11.28125 5.734375 -14 C 7.140625 -16.71875 9.179688 -19.445312 11.859375 -22.1875 C 14.546875 -24.9375 17.941406 -27.546875 22.046875 -30.015625 C 26.148438 -32.484375 31.015625 -34.691406 36.640625 -36.640625 C 42.273438 -38.585938 48.710938 -40.082031 55.953125 -41.125 C 56.617188 -41.207031 57.191406 -41.46875 57.671875 -41.90625 C 58.160156 -42.351562 58.46875 -42.910156 58.59375 -43.578125 C 59.632812 -48.816406 59.832031 -53.472656 59.1875 -57.546875 C 58.539062 -61.628906 57.023438 -64.59375 54.640625 -66.4375 C 54.003906 -66.9375 53.191406 -67.070312 52.203125 -66.84375 C 51.222656 -66.613281 50.15625 -66.175781 49 -65.53125 C 47.851562 -64.882812 46.71875 -64.179688 45.59375 -63.421875 C 43.75 -62.253906 41.957031 -61.238281 40.21875 -60.375 C 38.476562 -59.519531 36.835938 -59.34375 35.296875 -59.84375 C 33.492188 -60.507812 32.300781 -61.765625 31.71875 -63.609375 C 31.550781 -64.023438 31.5625 -64.441406 31.75 -64.859375 C 31.9375 -65.285156 32.238281 -65.582031 32.65625 -65.75 C 33.070312 -65.914062 33.488281 -65.90625 33.90625 -65.71875 C 34.320312 -65.53125 34.617188 -65.226562 34.796875 -64.8125 C 35.085938 -64.050781 35.378906 -63.566406 35.671875 -63.359375 C 35.960938 -63.148438 36.171875 -63.023438 36.296875 -62.984375 C 37.085938 -62.734375 38.1875 -62.984375 39.59375 -63.734375 C 41 -64.492188 42.390625 -65.3125 43.765625 -66.1875 C 45.191406 -67.101562 46.65625 -67.957031 48.15625 -68.75 C 49.664062 -69.550781 51.144531 -70.046875 52.59375 -70.234375 C 54.039062 -70.421875 55.390625 -70.015625 56.640625 -69.015625 C 58.648438 -67.503906 60.144531 -65.492188 61.125 -62.984375 C 62.113281 -60.472656 62.671875 -57.644531 62.796875 -54.5 C 62.921875 -51.363281 62.691406 -48.054688 62.109375 -44.578125 C 61.984375 -43.867188 62.171875 -43.265625 62.671875 -42.765625 C 63.128906 -42.265625 63.710938 -42.035156 64.421875 -42.078125 C 66.054688 -42.203125 67.710938 -42.304688 69.390625 -42.390625 C 69.847656 -42.429688 70.242188 -42.296875 70.578125 -41.984375 C 70.921875 -41.671875 71.113281 -41.300781 71.15625 -40.875 C 71.15625 -40.414062 71.003906 -40.019531 70.703125 -39.6875 C 70.410156 -39.351562 70.035156 -39.164062 69.578125 -39.125 C 67.273438 -39 65.015625 -38.832031 62.796875 -38.625 C 61.410156 -38.5 60.53125 -37.765625 60.15625 -36.421875 C 58.863281 -32.023438 57.210938 -27.773438 55.203125 -23.671875 Z M 52.25 -25.125 C 53.800781 -28.21875 55.140625 -31.421875 56.265625 -34.734375 C 56.515625 -35.484375 56.367188 -36.148438 55.828125 -36.734375 C 55.328125 -37.359375 54.675781 -37.585938 53.875 -37.421875 C 47.382812 -36.335938 41.617188 -34.882812 36.578125 -33.0625 C 31.535156 -31.238281 27.171875 -29.195312 23.484375 -26.9375 C 19.796875 -24.675781 16.738281 -22.320312 14.3125 -19.875 C 11.882812 -17.425781 10.03125 -15.007812 8.75 -12.625 C 7.476562 -10.238281 6.757812 -8.039062 6.59375 -6.03125 C 6.300781 -4.5625 6.394531 -3.164062 6.875 -1.84375 C 7.351562 -0.53125 8.113281 0.59375 9.15625 1.53125 C 10.207031 2.476562 11.46875 3.097656 12.9375 3.390625 C 16.238281 4.265625 19.46875 4.347656 22.625 3.640625 C 25.789062 2.929688 28.816406 1.632812 31.703125 -0.25 C 34.597656 -2.132812 37.3125 -4.40625 39.84375 -7.0625 C 42.375 -9.71875 44.6875 -12.59375 46.78125 -15.6875 C 48.875 -18.789062 50.695312 -21.9375 52.25 -25.125 Z M 52.25 -25.125 "/></g></g></g><g fill="#ffffff" fill-opacity="1"><g transform="translate(105.471917, 284.755288)"><g><path d="M 1.453125 -16.125 L 2.84375 -16.125 C 2.8125 -15.53125 2.785156 -15.03125 2.765625 -14.625 C 2.742188 -14.21875 2.726562 -13.84375 2.71875 -13.5 C 2.71875 -13.15625 2.71875 -12.773438 2.71875 -12.359375 L 2.71875 -0.265625 L 4.5625 -0.265625 C 5.519531 -0.265625 6.410156 -0.296875 7.234375 -0.359375 C 8.066406 -0.429688 8.984375 -0.585938 9.984375 -0.828125 L 9.5 0 L 1.40625 0 C 1.457031 -0.601562 1.492188 -1.101562 1.515625 -1.5 C 1.535156 -1.90625 1.550781 -2.285156 1.5625 -2.640625 C 1.570312 -2.992188 1.578125 -3.378906 1.578125 -3.796875 L 1.578125 -12.359375 C 1.578125 -12.773438 1.570312 -13.15625 1.5625 -13.5 C 1.550781 -13.84375 1.539062 -14.21875 1.53125 -14.625 C 1.519531 -15.03125 1.492188 -15.53125 1.453125 -16.125 Z M 1.453125 -16.125 "/></g></g></g><g fill="#ffffff" fill-opacity="1"><g transform="translate(121.49846, 284.755288)"><g><path d="M 1.203125 -16.125 L 2.59375 -16.125 C 2.570312 -15.53125 2.550781 -15.03125 2.53125 -14.625 C 2.507812 -14.21875 2.492188 -13.84375 2.484375 -13.5 C 2.484375 -13.15625 2.484375 -12.773438 2.484375 -12.359375 L 2.484375 -6.859375 C 2.484375 -4.421875 2.851562 -2.664062 3.59375 -1.59375 C 4.34375 -0.519531 5.507812 0.015625 7.09375 0.015625 C 8.15625 0.015625 9.039062 -0.203125 9.75 -0.640625 C 10.46875 -1.085938 11.007812 -1.8125 11.375 -2.8125 C 11.75 -3.8125 11.9375 -5.160156 11.9375 -6.859375 L 11.9375 -12.359375 C 11.9375 -12.773438 11.9375 -13.15625 11.9375 -13.5 C 11.9375 -13.84375 11.925781 -14.21875 11.90625 -14.625 C 11.882812 -15.03125 11.851562 -15.53125 11.8125 -16.125 L 12.3125 -16.125 C 12.269531 -15.53125 12.238281 -15.03125 12.21875 -14.625 C 12.195312 -14.21875 12.1875 -13.84375 12.1875 -13.5 C 12.1875 -13.15625 12.1875 -12.773438 12.1875 -12.359375 L 12.1875 -6.859375 C 12.1875 -5.097656 11.988281 -3.6875 11.59375 -2.625 C 11.195312 -1.5625 10.609375 -0.789062 9.828125 -0.3125 C 9.054688 0.164062 8.09375 0.40625 6.9375 0.40625 C 6.050781 0.40625 5.257812 0.289062 4.5625 0.0625 C 3.875 -0.164062 3.285156 -0.546875 2.796875 -1.078125 C 2.316406 -1.617188 1.953125 -2.359375 1.703125 -3.296875 C 1.453125 -4.242188 1.328125 -5.429688 1.328125 -6.859375 L 1.328125 -12.359375 C 1.328125 -12.773438 1.320312 -13.15625 1.3125 -13.5 C 1.3125 -13.84375 1.300781 -14.21875 1.28125 -14.625 C 1.269531 -15.03125 1.242188 -15.53125 1.203125 -16.125 Z M 1.203125 -16.125 "/></g></g></g><g fill="#ffffff" fill-opacity="1"><g transform="translate(140.26628, 284.755288)"><g><path d="M 9.796875 -1.828125 C 9.929688 -1.585938 10.046875 -1.378906 10.140625 -1.203125 C 10.234375 -1.035156 10.335938 -0.859375 10.453125 -0.671875 C 10.578125 -0.492188 10.738281 -0.269531 10.9375 0 L 9.328125 0 C 9.179688 -0.382812 9.054688 -0.695312 8.953125 -0.9375 C 8.859375 -1.175781 8.71875 -1.472656 8.53125 -1.828125 L 5.515625 -7.53125 L 2.359375 -1.828125 C 2.160156 -1.472656 2 -1.175781 1.875 -0.9375 C 1.75 -0.695312 1.59375 -0.382812 1.40625 0 L 0.921875 0 C 1.203125 -0.382812 1.410156 -0.695312 1.546875 -0.9375 C 1.679688 -1.175781 1.84375 -1.472656 2.03125 -1.828125 L 5.359375 -7.84375 L 1.953125 -14.296875 C 1.835938 -14.535156 1.726562 -14.738281 1.625 -14.90625 C 1.519531 -15.082031 1.40625 -15.265625 1.28125 -15.453125 C 1.164062 -15.640625 1.007812 -15.863281 0.8125 -16.125 L 2.421875 -16.125 C 2.554688 -15.738281 2.675781 -15.425781 2.78125 -15.1875 C 2.882812 -14.945312 3.03125 -14.648438 3.21875 -14.296875 L 6.234375 -8.59375 L 9.375 -14.25 C 9.582031 -14.632812 9.75 -14.945312 9.875 -15.1875 C 10 -15.425781 10.144531 -15.738281 10.3125 -16.125 L 10.796875 -16.125 C 10.609375 -15.863281 10.457031 -15.640625 10.34375 -15.453125 C 10.226562 -15.265625 10.125 -15.082031 10.03125 -14.90625 C 9.9375 -14.726562 9.820312 -14.507812 9.6875 -14.25 L 6.390625 -8.296875 Z M 9.796875 -1.828125 "/></g></g></g><g fill="#ffffff" fill-opacity="1"><g transform="translate(157.260331, 284.755288)"><g><path d="M 1.203125 -16.125 L 2.59375 -16.125 C 2.570312 -15.53125 2.550781 -15.03125 2.53125 -14.625 C 2.507812 -14.21875 2.492188 -13.84375 2.484375 -13.5 C 2.484375 -13.15625 2.484375 -12.773438 2.484375 -12.359375 L 2.484375 -6.859375 C 2.484375 -4.421875 2.851562 -2.664062 3.59375 -1.59375 C 4.34375 -0.519531 5.507812 0.015625 7.09375 0.015625 C 8.15625 0.015625 9.039062 -0.203125 9.75 -0.640625 C 10.46875 -1.085938 11.007812 -1.8125 11.375 -2.8125 C 11.75 -3.8125 11.9375 -5.160156 11.9375 -6.859375 L 11.9375 -12.359375 C 11.9375 -12.773438 11.9375 -13.15625 11.9375 -13.5 C 11.9375 -13.84375 11.925781 -14.21875 11.90625 -14.625 C 11.882812 -15.03125 11.851562 -15.53125 11.8125 -16.125 L 12.3125 -16.125 C 12.269531 -15.53125 12.238281 -15.03125 12.21875 -14.625 C 12.195312 -14.21875 12.1875 -13.84375 12.1875 -13.5 C 12.1875 -13.15625 12.1875 -12.773438 12.1875 -12.359375 L 12.1875 -6.859375 C 12.1875 -5.097656 11.988281 -3.6875 11.59375 -2.625 C 11.195312 -1.5625 10.609375 -0.789062 9.828125 -0.3125 C 9.054688 0.164062 8.09375 0.40625 6.9375 0.40625 C 6.050781 0.40625 5.257812 0.289062 4.5625 0.0625 C 3.875 -0.164062 3.285156 -0.546875 2.796875 -1.078125 C 2.316406 -1.617188 1.953125 -2.359375 1.703125 -3.296875 C 1.453125 -4.242188 1.328125 -5.429688 1.328125 -6.859375 L 1.328125 -12.359375 C 1.328125 -12.773438 1.320312 -13.15625 1.3125 -13.5 C 1.3125 -13.84375 1.300781 -14.21875 1.28125 -14.625 C 1.269531 -15.03125 1.242188 -15.53125 1.203125 -16.125 Z M 1.203125 -16.125 "/></g></g></g><g fill="#ffffff" fill-opacity="1"><g transform="translate(176.028152, 284.755288)"><g><path d="M 9.515625 -3.890625 C 9.878906 -2.929688 10.234375 -2.1875 10.578125 -1.65625 C 10.929688 -1.125 11.332031 -0.753906 11.78125 -0.546875 C 12.226562 -0.335938 12.773438 -0.234375 13.421875 -0.234375 L 13.421875 0 C 12.429688 0 11.625 -0.125 11 -0.375 C 10.375 -0.632812 9.863281 -1.035156 9.46875 -1.578125 C 9.070312 -2.128906 8.710938 -2.847656 8.390625 -3.734375 C 8.015625 -4.765625 7.585938 -5.546875 7.109375 -6.078125 C 6.640625 -6.617188 6.113281 -6.984375 5.53125 -7.171875 C 4.945312 -7.359375 4.289062 -7.453125 3.5625 -7.453125 L 2.6875 -7.453125 L 2.6875 -3.796875 C 2.6875 -3.378906 2.6875 -2.992188 2.6875 -2.640625 C 2.695312 -2.285156 2.710938 -1.90625 2.734375 -1.5 C 2.753906 -1.101562 2.773438 -0.601562 2.796875 0 L 1.40625 0 C 1.445312 -0.601562 1.472656 -1.101562 1.484375 -1.5 C 1.503906 -1.90625 1.515625 -2.285156 1.515625 -2.640625 C 1.523438 -2.992188 1.53125 -3.378906 1.53125 -3.796875 L 1.53125 -12.359375 C 1.53125 -12.773438 1.523438 -13.15625 1.515625 -13.5 C 1.515625 -13.84375 1.503906 -14.21875 1.484375 -14.625 C 1.472656 -15.03125 1.445312 -15.53125 1.40625 -16.125 L 4.390625 -16.125 C 5.253906 -16.125 6.066406 -16.054688 6.828125 -15.921875 C 7.597656 -15.796875 8.273438 -15.570312 8.859375 -15.25 C 9.453125 -14.9375 9.914062 -14.5 10.25 -13.9375 C 10.59375 -13.375 10.765625 -12.660156 10.765625 -11.796875 C 10.765625 -10.785156 10.535156 -9.976562 10.078125 -9.375 C 9.617188 -8.78125 9.003906 -8.335938 8.234375 -8.046875 C 7.472656 -7.765625 6.613281 -7.582031 5.65625 -7.5 C 6.457031 -7.332031 7.1875 -6.984375 7.84375 -6.453125 C 8.507812 -5.921875 9.066406 -5.066406 9.515625 -3.890625 Z M 2.6875 -7.71875 L 4.390625 -7.71875 C 5.035156 -7.71875 5.664062 -7.773438 6.28125 -7.890625 C 6.894531 -8.015625 7.445312 -8.226562 7.9375 -8.53125 C 8.425781 -8.832031 8.8125 -9.242188 9.09375 -9.765625 C 9.382812 -10.296875 9.53125 -10.972656 9.53125 -11.796875 C 9.53125 -12.609375 9.382812 -13.28125 9.09375 -13.8125 C 8.8125 -14.34375 8.425781 -14.757812 7.9375 -15.0625 C 7.445312 -15.363281 6.894531 -15.578125 6.28125 -15.703125 C 5.664062 -15.828125 5.035156 -15.890625 4.390625 -15.890625 L 2.6875 -15.890625 Z M 2.6875 -7.71875 "/></g></g></g><g fill="#ffffff" fill-opacity="1"><g transform="translate(195.461146, 284.755288)"><g><path d="M 11.125 -14.25 L 7.28125 -7.078125 L 7.28125 -3.796875 C 7.28125 -3.378906 7.28125 -2.992188 7.28125 -2.640625 C 7.289062 -2.285156 7.304688 -1.90625 7.328125 -1.5 C 7.347656 -1.101562 7.367188 -0.601562 7.390625 0 L 6 0 C 6.039062 -0.601562 6.070312 -1.101562 6.09375 -1.5 C 6.113281 -1.90625 6.125 -2.285156 6.125 -2.640625 C 6.125 -2.992188 6.125 -3.378906 6.125 -3.796875 L 6.125 -7.078125 L 2.25 -14.234375 C 2.050781 -14.617188 1.867188 -14.9375 1.703125 -15.1875 C 1.535156 -15.4375 1.300781 -15.75 1 -16.125 L 2.6875 -16.125 C 2.800781 -15.738281 2.925781 -15.421875 3.0625 -15.171875 C 3.195312 -14.921875 3.363281 -14.609375 3.5625 -14.234375 L 7.21875 -7.515625 L 10.84375 -14.234375 C 11.0625 -14.617188 11.226562 -14.929688 11.34375 -15.171875 C 11.46875 -15.421875 11.617188 -15.738281 11.796875 -16.125 L 12.234375 -16.125 C 11.984375 -15.738281 11.785156 -15.421875 11.640625 -15.171875 C 11.492188 -14.921875 11.320312 -14.613281 11.125 -14.25 Z M 11.125 -14.25 "/></g></g></g><g fill="#ffffff" fill-opacity="1"><g transform="translate(213.946785, 284.755288)"><g/></g></g><g fill="#ffffff" fill-opacity="1"><g transform="translate(224.893871, 284.755288)"><g><path d="M 15.796875 -6.625 L 16.046875 -6.625 C 15.765625 -5.25 15.316406 -4.03125 14.703125 -2.96875 C 14.085938 -1.90625 13.300781 -1.078125 12.34375 -0.484375 C 11.382812 0.109375 10.226562 0.40625 8.875 0.40625 C 7.632812 0.40625 6.539062 0.179688 5.59375 -0.265625 C 4.644531 -0.722656 3.84375 -1.347656 3.1875 -2.140625 C 2.539062 -2.929688 2.046875 -3.847656 1.703125 -4.890625 C 1.367188 -5.941406 1.203125 -7.066406 1.203125 -8.265625 C 1.203125 -9.460938 1.394531 -10.5625 1.78125 -11.5625 C 2.175781 -12.5625 2.71875 -13.429688 3.40625 -14.171875 C 4.101562 -14.921875 4.914062 -15.5 5.84375 -15.90625 C 6.78125 -16.320312 7.796875 -16.53125 8.890625 -16.53125 C 10.347656 -16.53125 11.59375 -16.164062 12.625 -15.4375 C 13.65625 -14.707031 14.5 -13.671875 15.15625 -12.328125 L 13.828125 -11.96875 C 13.597656 -12.75 13.265625 -13.460938 12.828125 -14.109375 C 12.398438 -14.765625 11.859375 -15.289062 11.203125 -15.6875 C 10.554688 -16.082031 9.785156 -16.28125 8.890625 -16.28125 C 7.929688 -16.28125 7.054688 -16.070312 6.265625 -15.65625 C 5.484375 -15.238281 4.8125 -14.664062 4.25 -13.9375 C 3.6875 -13.207031 3.253906 -12.359375 2.953125 -11.390625 C 2.648438 -10.429688 2.5 -9.410156 2.5 -8.328125 C 2.5 -7.222656 2.628906 -6.164062 2.890625 -5.15625 C 3.148438 -4.144531 3.550781 -3.253906 4.09375 -2.484375 C 4.644531 -1.710938 5.332031 -1.101562 6.15625 -0.65625 C 6.976562 -0.207031 7.957031 0.015625 9.09375 0.015625 C 10.34375 0.015625 11.410156 -0.265625 12.296875 -0.828125 C 13.191406 -1.390625 13.925781 -2.171875 14.5 -3.171875 C 15.082031 -4.171875 15.515625 -5.320312 15.796875 -6.625 Z M 15.796875 -6.625 "/></g></g></g><g fill="#ffffff" fill-opacity="1"><g transform="translate(246.987515, 284.755288)"><g><path d="M 9.921875 0.40625 C 8.671875 0.40625 7.515625 0.191406 6.453125 -0.234375 C 5.390625 -0.671875 4.46875 -1.269531 3.6875 -2.03125 C 2.90625 -2.800781 2.296875 -3.695312 1.859375 -4.71875 C 1.421875 -5.75 1.203125 -6.863281 1.203125 -8.0625 C 1.203125 -9.257812 1.421875 -10.367188 1.859375 -11.390625 C 2.296875 -12.421875 2.90625 -13.316406 3.6875 -14.078125 C 4.46875 -14.847656 5.390625 -15.445312 6.453125 -15.875 C 7.515625 -16.3125 8.671875 -16.53125 9.921875 -16.53125 C 11.171875 -16.53125 12.320312 -16.3125 13.375 -15.875 C 14.425781 -15.445312 15.34375 -14.847656 16.125 -14.078125 C 16.914062 -13.316406 17.53125 -12.421875 17.96875 -11.390625 C 18.40625 -10.367188 18.625 -9.257812 18.625 -8.0625 C 18.625 -6.863281 18.40625 -5.75 17.96875 -4.71875 C 17.53125 -3.695312 16.914062 -2.800781 16.125 -2.03125 C 15.34375 -1.269531 14.425781 -0.671875 13.375 -0.234375 C 12.320312 0.191406 11.171875 0.40625 9.921875 0.40625 Z M 9.921875 0.15625 C 11.035156 0.15625 12.046875 -0.0664062 12.953125 -0.515625 C 13.867188 -0.960938 14.648438 -1.578125 15.296875 -2.359375 C 15.953125 -3.140625 16.453125 -4.019531 16.796875 -5 C 17.148438 -5.976562 17.328125 -7 17.328125 -8.0625 C 17.328125 -9.125 17.148438 -10.144531 16.796875 -11.125 C 16.453125 -12.101562 15.953125 -12.984375 15.296875 -13.765625 C 14.648438 -14.546875 13.867188 -15.160156 12.953125 -15.609375 C 12.046875 -16.054688 11.035156 -16.28125 9.921875 -16.28125 C 8.785156 -16.28125 7.765625 -16.054688 6.859375 -15.609375 C 5.953125 -15.160156 5.171875 -14.546875 4.515625 -13.765625 C 3.867188 -12.984375 3.367188 -12.101562 3.015625 -11.125 C 2.671875 -10.144531 2.5 -9.125 2.5 -8.0625 C 2.5 -7 2.671875 -5.976562 3.015625 -5 C 3.367188 -4.019531 3.867188 -3.140625 4.515625 -2.359375 C 5.171875 -1.578125 5.953125 -0.960938 6.859375 -0.515625 C 7.765625 -0.0664062 8.785156 0.15625 9.921875 0.15625 Z M 9.921875 0.15625 "/></g></g></g><g fill="#ffffff" fill-opacity="1"><g transform="translate(272.06435, 284.755288)"><g><path d="M 2.375 0.40625 L 1.40625 -0.5625 L 2.375 -1.515625 L 3.328125 -0.5625 Z M 2.375 0.40625 "/></g></g></g></svg>