<svg xmlns="http://www.w3.org/2000/svg" xmlns:xlink="http://www.w3.org/1999/xlink" width="1000" zoomAndPan="magnify" viewBox="0 0 750 749.999995" height="1000" preserveAspectRatio="xMidYMid meet" version="1.0"><defs><g/></defs><path fill="#ffffff" d="M 176.46875 340.550781 L 145.128906 340.550781 C 137.933594 340.550781 137.933594 351.707031 145.128906 351.707031 L 176.46875 351.707031 C 183.664062 351.707031 183.664062 340.550781 176.46875 340.550781 Z M 176.46875 340.550781 " fill-opacity="1" fill-rule="nonzero"/><path fill="#ffffff" d="M 207.683594 238.292969 L 179.671875 222.726562 C 173.378906 219.230469 167.753906 228.867188 174.042969 232.359375 L 202.050781 247.921875 C 208.347656 251.421875 213.96875 241.785156 207.683594 238.292969 Z M 207.683594 238.292969 " fill-opacity="1" fill-rule="nonzero"/><path fill="#ffffff" d="M 283.773438 164.886719 L 268.523438 137.878906 C 264.988281 131.617188 255.347656 137.238281 258.890625 143.511719 L 274.140625 170.519531 C 277.675781 176.78125 287.316406 171.160156 283.773438 164.886719 Z M 283.773438 164.886719 " fill-opacity="1" fill-rule="nonzero"/><path fill="#ffffff" d="M 387.867188 140.382812 L 387.867188 108.964844 C 387.867188 101.773438 376.714844 101.773438 376.714844 108.964844 L 376.714844 140.382812 C 376.714844 147.578125 387.867188 147.578125 387.867188 140.382812 Z M 387.867188 140.382812 " fill-opacity="1" fill-rule="nonzero"/><path fill="#ffffff" d="M 490.628906 171.40625 L 505.683594 143.511719 C 509.097656 137.179688 499.464844 131.546875 496.050781 137.878906 L 480.996094 165.777344 C 477.582031 172.105469 487.210938 177.738281 490.628906 171.40625 Z M 490.628906 171.40625 " fill-opacity="1" fill-rule="nonzero"/><path fill="#ffffff" d="M 562.914062 248.8125 L 590.523438 232.359375 C 596.695312 228.679688 591.089844 219.035156 584.894531 222.726562 L 557.285156 239.179688 C 551.113281 242.855469 556.71875 252.5 562.914062 248.8125 Z M 562.914062 248.8125 " fill-opacity="1" fill-rule="nonzero"/><path fill="#ffffff" d="M 587.546875 351.707031 L 619.445312 351.707031 C 626.640625 351.707031 626.640625 340.550781 619.445312 340.550781 L 587.546875 340.550781 C 580.351562 340.550781 580.351562 351.707031 587.546875 351.707031 Z M 587.546875 351.707031 " fill-opacity="1" fill-rule="nonzero"/><path fill="#ffffff" d="M 383.574219 331.894531 L 382.792969 331.894531 C 375.191406 331.894531 368.847656 338.238281 368.847656 345.839844 C 368.847656 353.4375 375.191406 359.78125 382.792969 359.78125 L 383.574219 359.78125 C 391.175781 359.78125 397.515625 353.4375 397.515625 345.839844 C 397.515625 338.238281 391.175781 331.894531 383.574219 331.894531 Z M 383.574219 331.894531 " fill-opacity="1" fill-rule="nonzero"/><path fill="#ffffff" d="M 385.480469 346.664062 L 385.480469 221.367188 C 385.480469 217.773438 379.902344 217.773438 379.902344 221.367188 L 379.902344 346.664062 C 379.902344 350.261719 385.480469 350.261719 385.480469 346.664062 Z M 385.480469 346.664062 " fill-opacity="1" fill-rule="nonzero"/><path fill="#ffffff" d="M 384.207031 344.429688 L 301.59375 201.476562 L 294.984375 190.039062 C 293.183594 186.925781 288.363281 189.734375 290.167969 192.851562 L 372.78125 335.804688 L 379.394531 347.242188 C 381.191406 350.355469 386.011719 347.546875 384.207031 344.429688 Z M 384.207031 344.429688 " fill-opacity="1" fill-rule="nonzero"/><g fill="#d20a0f" fill-opacity="1"><g transform="translate(244.780901, 518.8146)"><g><path d="M 103.359375 -24.234375 C 103.359375 -24.148438 102.644531 -23.226562 101.21875 -21.46875 C 99.800781 -19.71875 97.773438 -17.539062 95.140625 -14.9375 C 92.503906 -12.34375 89.300781 -9.769531 85.53125 -7.21875 C 81.757812 -4.664062 77.46875 -2.53125 72.65625 -0.8125 C 67.84375 0.90625 62.628906 1.765625 57.015625 1.765625 C 50.816406 1.765625 44.875 0.675781 39.1875 -1.5 C 24.863281 -6.78125 14.789062 -14.90625 8.96875 -25.875 C 3.15625 -36.84375 1.96875 -49.90625 5.40625 -65.0625 C 6.988281 -71.925781 9.429688 -78.851562 12.734375 -85.84375 C 16.046875 -92.832031 19.984375 -99.550781 24.546875 -106 C 29.109375 -112.445312 34.023438 -118.410156 39.296875 -123.890625 C 44.578125 -129.378906 49.976562 -134.132812 55.5 -138.15625 C 61.03125 -142.175781 66.472656 -145.207031 71.828125 -147.25 C 77.191406 -149.300781 82.175781 -150.117188 86.78125 -149.703125 C 94.570312 -149.535156 101.019531 -146.484375 106.125 -140.546875 C 107.132812 -139.203125 108.453125 -138.234375 110.078125 -137.640625 C 111.710938 -137.054688 113.367188 -136.9375 115.046875 -137.28125 C 120.066406 -138.53125 125.171875 -139.195312 130.359375 -139.28125 C 131.285156 -139.28125 132.082031 -138.96875 132.75 -138.34375 C 133.414062 -137.71875 133.75 -136.941406 133.75 -136.015625 C 133.75 -135.097656 133.414062 -134.320312 132.75 -133.6875 C 132.082031 -133.0625 131.328125 -132.75 130.484375 -132.75 C 124.378906 -132.664062 118.4375 -131.703125 112.65625 -129.859375 C 110.976562 -129.273438 110.179688 -128.101562 110.265625 -126.34375 C 110.015625 -122.15625 109.007812 -117.820312 107.25 -113.34375 C 105.5 -108.863281 103.257812 -104.53125 100.53125 -100.34375 C 97.8125 -96.15625 94.773438 -92.382812 91.421875 -89.03125 C 88.078125 -85.6875 84.625 -82.988281 81.0625 -80.9375 C 77.507812 -78.894531 74.054688 -77.832031 70.703125 -77.75 C 66.859375 -77.320312 63.847656 -78.742188 61.671875 -82.015625 C 59.160156 -86.117188 60.035156 -91.976562 64.296875 -99.59375 C 72.421875 -112.90625 83.390625 -123.160156 97.203125 -130.359375 C 98.878906 -131.285156 99.84375 -132.710938 100.09375 -134.640625 C 100.257812 -136.648438 99.59375 -138.238281 98.09375 -139.40625 C 94.40625 -141.75 90.425781 -143.003906 86.15625 -143.171875 C 82.382812 -143.503906 78.15625 -142.75 73.46875 -140.90625 C 68.78125 -139.070312 63.925781 -136.3125 58.90625 -132.625 C 53.882812 -128.9375 48.921875 -124.5625 44.015625 -119.5 C 39.117188 -114.4375 34.515625 -108.890625 30.203125 -102.859375 C 25.890625 -96.828125 22.140625 -90.484375 18.953125 -83.828125 C 15.773438 -77.171875 13.394531 -70.410156 11.8125 -63.546875 C 10.800781 -58.859375 10.273438 -53.875 10.234375 -48.59375 C 10.191406 -43.320312 11.09375 -38.132812 12.9375 -33.03125 C 14.78125 -27.925781 17.984375 -23.175781 22.546875 -18.78125 C 27.109375 -14.382812 33.410156 -10.71875 41.453125 -7.78125 C 47.054688 -5.6875 52.328125 -4.679688 57.265625 -4.765625 C 62.210938 -4.847656 66.753906 -5.625 70.890625 -7.09375 C 75.035156 -8.5625 78.738281 -10.40625 82 -12.625 C 85.269531 -14.84375 88.054688 -17.082031 90.359375 -19.34375 C 92.660156 -21.601562 94.460938 -23.523438 95.765625 -25.109375 C 97.066406 -26.703125 97.800781 -27.625 97.96875 -27.875 C 98.46875 -28.632812 99.15625 -29.097656 100.03125 -29.265625 C 100.914062 -29.429688 101.734375 -29.265625 102.484375 -28.765625 C 103.234375 -28.253906 103.691406 -27.5625 103.859375 -26.6875 C 104.023438 -25.8125 103.859375 -24.992188 103.359375 -24.234375 Z M 70.578125 -84.40625 C 73.179688 -84.488281 76.050781 -85.53125 79.1875 -87.53125 C 82.320312 -89.539062 85.4375 -92.195312 88.53125 -95.5 C 91.632812 -98.8125 94.421875 -102.5 96.890625 -106.5625 C 99.359375 -110.625 101.179688 -114.707031 102.359375 -118.8125 C 102.773438 -120.40625 102.359375 -121.660156 101.109375 -122.578125 C 99.847656 -123.585938 98.503906 -123.671875 97.078125 -122.828125 C 85.859375 -116.296875 76.859375 -107.503906 70.078125 -96.453125 C 68.484375 -93.609375 67.519531 -91.242188 67.1875 -89.359375 C 66.851562 -87.472656 66.894531 -86.15625 67.3125 -85.40625 C 67.5625 -84.988281 68.019531 -84.71875 68.6875 -84.59375 C 69.363281 -84.46875 69.992188 -84.40625 70.578125 -84.40625 Z M 70.578125 -84.40625 "/></g></g></g><g fill="#d20a0f" fill-opacity="1"><g transform="translate(356.040388, 518.8146)"><g><path d="M 110.390625 -47.34375 C 107.460938 -41.320312 104.050781 -35.335938 100.15625 -29.390625 C 96.269531 -23.441406 91.957031 -17.804688 87.21875 -12.484375 C 82.488281 -7.171875 77.398438 -2.488281 71.953125 1.5625 C 66.515625 5.625 60.800781 8.828125 54.8125 11.171875 C 48.832031 13.515625 42.617188 14.6875 36.171875 14.6875 C 32.148438 14.6875 28.171875 14.1875 24.234375 13.1875 C 20.304688 12.351562 16.894531 10.632812 14 8.03125 C 11.113281 5.4375 9 2.320312 7.65625 -1.3125 C 6.320312 -4.957031 5.945312 -8.75 6.53125 -12.6875 C 7.03125 -17.457031 8.679688 -22.5625 11.484375 -28 C 14.296875 -33.445312 18.378906 -38.910156 23.734375 -44.390625 C 29.097656 -49.878906 35.878906 -55.09375 44.078125 -60.03125 C 52.285156 -64.96875 62.019531 -69.382812 73.28125 -73.28125 C 84.539062 -77.175781 97.414062 -80.171875 111.90625 -82.265625 C 113.238281 -82.429688 114.382812 -82.953125 115.34375 -83.828125 C 116.3125 -84.710938 116.921875 -85.820312 117.171875 -87.15625 C 119.265625 -97.625 119.660156 -106.941406 118.359375 -115.109375 C 117.066406 -123.273438 114.035156 -129.195312 109.265625 -132.875 C 108.003906 -133.882812 106.390625 -134.15625 104.421875 -133.6875 C 102.460938 -133.226562 100.332031 -132.347656 98.03125 -131.046875 C 95.726562 -129.753906 93.445312 -128.351562 91.1875 -126.84375 C 87.5 -124.5 83.914062 -122.46875 80.4375 -120.75 C 76.96875 -119.039062 73.679688 -118.6875 70.578125 -119.6875 C 66.984375 -121.03125 64.597656 -123.539062 63.421875 -127.21875 C 63.085938 -128.0625 63.109375 -128.898438 63.484375 -129.734375 C 63.859375 -130.578125 64.46875 -131.164062 65.3125 -131.5 C 66.144531 -131.832031 66.976562 -131.8125 67.8125 -131.4375 C 68.65625 -131.0625 69.242188 -130.453125 69.578125 -129.609375 C 70.160156 -128.109375 70.742188 -127.144531 71.328125 -126.71875 C 71.921875 -126.300781 72.34375 -126.050781 72.59375 -125.96875 C 74.1875 -125.46875 76.382812 -125.96875 79.1875 -127.46875 C 81.988281 -128.976562 84.769531 -130.613281 87.53125 -132.375 C 90.382812 -134.21875 93.316406 -135.929688 96.328125 -137.515625 C 99.347656 -139.109375 102.300781 -140.09375 105.1875 -140.46875 C 108.070312 -140.851562 110.769531 -140.039062 113.28125 -138.03125 C 117.300781 -135.007812 120.296875 -130.988281 122.265625 -125.96875 C 124.234375 -120.945312 125.34375 -115.296875 125.59375 -109.015625 C 125.84375 -102.734375 125.382812 -96.117188 124.21875 -89.171875 C 123.957031 -87.742188 124.332031 -86.53125 125.34375 -85.53125 C 126.257812 -84.519531 127.429688 -84.054688 128.859375 -84.140625 C 132.117188 -84.398438 135.425781 -84.613281 138.78125 -84.78125 C 139.695312 -84.863281 140.488281 -84.585938 141.15625 -83.953125 C 141.832031 -83.328125 142.210938 -82.597656 142.296875 -81.765625 C 142.296875 -80.835938 142.003906 -80.039062 141.421875 -79.375 C 140.835938 -78.707031 140.082031 -78.332031 139.15625 -78.25 C 134.550781 -78 130.03125 -77.660156 125.59375 -77.234375 C 122.832031 -76.984375 121.070312 -75.519531 120.3125 -72.84375 C 117.71875 -64.050781 114.410156 -55.550781 110.390625 -47.34375 Z M 104.5 -50.234375 C 107.59375 -56.429688 110.269531 -62.835938 112.53125 -69.453125 C 113.03125 -70.960938 112.738281 -72.300781 111.65625 -73.46875 C 110.644531 -74.726562 109.347656 -75.191406 107.765625 -74.859375 C 94.785156 -72.679688 83.25 -69.769531 73.15625 -66.125 C 63.070312 -62.476562 54.34375 -58.394531 46.96875 -53.875 C 39.601562 -49.351562 33.488281 -44.644531 28.625 -39.75 C 23.769531 -34.851562 20.066406 -30.015625 17.515625 -25.234375 C 14.960938 -20.460938 13.519531 -16.070312 13.1875 -12.0625 C 12.601562 -9.125 12.789062 -6.335938 13.75 -3.703125 C 14.71875 -1.066406 16.242188 1.191406 18.328125 3.078125 C 20.421875 4.960938 22.9375 6.195312 25.875 6.78125 C 32.488281 8.539062 38.957031 8.707031 45.28125 7.28125 C 51.601562 5.863281 57.648438 3.269531 63.421875 -0.5 C 69.203125 -4.269531 74.625 -8.8125 79.6875 -14.125 C 84.75 -19.445312 89.375 -25.203125 93.5625 -31.390625 C 97.75 -37.585938 101.394531 -43.867188 104.5 -50.234375 Z M 104.5 -50.234375 "/></g></g></g><g fill="#ffffff" fill-opacity="1"><g transform="translate(210.943833, 569.510611)"><g><path d="M 2.90625 -32.25 L 5.6875 -32.25 C 5.632812 -31.0625 5.585938 -30.054688 5.546875 -29.234375 C 5.503906 -28.421875 5.472656 -27.671875 5.453125 -26.984375 C 5.441406 -26.304688 5.4375 -25.550781 5.4375 -24.71875 L 5.4375 -0.53125 L 9.109375 -0.53125 C 11.046875 -0.53125 12.835938 -0.59375 14.484375 -0.71875 C 16.140625 -0.851562 17.960938 -1.164062 19.953125 -1.65625 L 18.984375 0 L 2.828125 0 C 2.929688 -1.207031 3.003906 -2.210938 3.046875 -3.015625 C 3.085938 -3.828125 3.113281 -4.582031 3.125 -5.28125 C 3.132812 -5.976562 3.140625 -6.742188 3.140625 -7.578125 L 3.140625 -24.71875 C 3.140625 -25.550781 3.132812 -26.304688 3.125 -26.984375 C 3.113281 -27.671875 3.09375 -28.421875 3.0625 -29.234375 C 3.039062 -30.054688 2.988281 -31.0625 2.90625 -32.25 Z M 2.90625 -32.25 "/></g></g></g><g fill="#ffffff" fill-opacity="1"><g transform="translate(242.996919, 569.510611)"><g><path d="M 2.421875 -32.25 L 5.203125 -32.25 C 5.148438 -31.0625 5.101562 -30.054688 5.0625 -29.234375 C 5.019531 -28.421875 4.988281 -27.671875 4.96875 -26.984375 C 4.957031 -26.304688 4.953125 -25.550781 4.953125 -24.71875 L 4.953125 -13.703125 C 4.953125 -8.835938 5.695312 -5.328125 7.1875 -3.171875 C 8.6875 -1.023438 11.019531 0.046875 14.1875 0.046875 C 16.3125 0.046875 18.082031 -0.394531 19.5 -1.28125 C 20.925781 -2.175781 22.007812 -3.625 22.75 -5.625 C 23.488281 -7.625 23.859375 -10.316406 23.859375 -13.703125 L 23.859375 -24.71875 C 23.859375 -25.550781 23.859375 -26.304688 23.859375 -26.984375 C 23.859375 -27.671875 23.835938 -28.421875 23.796875 -29.234375 C 23.765625 -30.054688 23.707031 -31.0625 23.625 -32.25 L 24.625 -32.25 C 24.550781 -31.0625 24.492188 -30.054688 24.453125 -29.234375 C 24.410156 -28.421875 24.390625 -27.671875 24.390625 -26.984375 C 24.390625 -26.304688 24.390625 -25.550781 24.390625 -24.71875 L 24.390625 -13.703125 C 24.390625 -10.179688 23.992188 -7.359375 23.203125 -5.234375 C 22.410156 -3.117188 21.234375 -1.582031 19.671875 -0.625 C 18.109375 0.332031 16.175781 0.8125 13.875 0.8125 C 12.09375 0.8125 10.507812 0.582031 9.125 0.125 C 7.75 -0.332031 6.578125 -1.097656 5.609375 -2.171875 C 4.640625 -3.253906 3.90625 -4.734375 3.40625 -6.609375 C 2.90625 -8.492188 2.65625 -10.859375 2.65625 -13.703125 L 2.65625 -24.71875 C 2.65625 -25.550781 2.648438 -26.304688 2.640625 -26.984375 C 2.628906 -27.671875 2.609375 -28.421875 2.578125 -29.234375 C 2.554688 -30.054688 2.503906 -31.0625 2.421875 -32.25 Z M 2.421875 -32.25 "/></g></g></g><g fill="#ffffff" fill-opacity="1"><g transform="translate(280.53256, 569.510611)"><g><path d="M 19.59375 -3.671875 C 19.863281 -3.179688 20.09375 -2.757812 20.28125 -2.40625 C 20.46875 -2.0625 20.679688 -1.707031 20.921875 -1.34375 C 21.160156 -0.988281 21.484375 -0.539062 21.890625 0 L 18.671875 0 C 18.367188 -0.78125 18.113281 -1.40625 17.90625 -1.875 C 17.707031 -2.34375 17.421875 -2.941406 17.046875 -3.671875 L 11.046875 -15.078125 L 4.71875 -3.671875 C 4.3125 -2.941406 3.988281 -2.34375 3.75 -1.875 C 3.507812 -1.40625 3.203125 -0.78125 2.828125 0 L 1.859375 0 C 2.421875 -0.78125 2.832031 -1.40625 3.09375 -1.875 C 3.363281 -2.34375 3.691406 -2.941406 4.078125 -3.671875 L 10.71875 -15.6875 L 3.90625 -28.578125 C 3.664062 -29.066406 3.441406 -29.484375 3.234375 -29.828125 C 3.035156 -30.179688 2.816406 -30.546875 2.578125 -30.921875 C 2.335938 -31.296875 2.015625 -31.738281 1.609375 -32.25 L 4.84375 -32.25 C 5.101562 -31.46875 5.34375 -30.84375 5.5625 -30.375 C 5.78125 -29.90625 6.078125 -29.304688 6.453125 -28.578125 L 12.453125 -17.171875 L 18.75 -28.5 C 19.175781 -29.28125 19.507812 -29.90625 19.75 -30.375 C 19.988281 -30.84375 20.285156 -31.46875 20.640625 -32.25 L 21.609375 -32.25 C 21.234375 -31.738281 20.929688 -31.296875 20.703125 -30.921875 C 20.472656 -30.546875 20.265625 -30.175781 20.078125 -29.8125 C 19.890625 -29.445312 19.660156 -29.007812 19.390625 -28.5 L 12.78125 -16.609375 Z M 19.59375 -3.671875 "/></g></g></g><g fill="#ffffff" fill-opacity="1"><g transform="translate(314.520663, 569.510611)"><g><path d="M 2.421875 -32.25 L 5.203125 -32.25 C 5.148438 -31.0625 5.101562 -30.054688 5.0625 -29.234375 C 5.019531 -28.421875 4.988281 -27.671875 4.96875 -26.984375 C 4.957031 -26.304688 4.953125 -25.550781 4.953125 -24.71875 L 4.953125 -13.703125 C 4.953125 -8.835938 5.695312 -5.328125 7.1875 -3.171875 C 8.6875 -1.023438 11.019531 0.046875 14.1875 0.046875 C 16.3125 0.046875 18.082031 -0.394531 19.5 -1.28125 C 20.925781 -2.175781 22.007812 -3.625 22.75 -5.625 C 23.488281 -7.625 23.859375 -10.316406 23.859375 -13.703125 L 23.859375 -24.71875 C 23.859375 -25.550781 23.859375 -26.304688 23.859375 -26.984375 C 23.859375 -27.671875 23.835938 -28.421875 23.796875 -29.234375 C 23.765625 -30.054688 23.707031 -31.0625 23.625 -32.25 L 24.625 -32.25 C 24.550781 -31.0625 24.492188 -30.054688 24.453125 -29.234375 C 24.410156 -28.421875 24.390625 -27.671875 24.390625 -26.984375 C 24.390625 -26.304688 24.390625 -25.550781 24.390625 -24.71875 L 24.390625 -13.703125 C 24.390625 -10.179688 23.992188 -7.359375 23.203125 -5.234375 C 22.410156 -3.117188 21.234375 -1.582031 19.671875 -0.625 C 18.109375 0.332031 16.175781 0.8125 13.875 0.8125 C 12.09375 0.8125 10.507812 0.582031 9.125 0.125 C 7.75 -0.332031 6.578125 -1.097656 5.609375 -2.171875 C 4.640625 -3.253906 3.90625 -4.734375 3.40625 -6.609375 C 2.90625 -8.492188 2.65625 -10.859375 2.65625 -13.703125 L 2.65625 -24.71875 C 2.65625 -25.550781 2.648438 -26.304688 2.640625 -26.984375 C 2.628906 -27.671875 2.609375 -28.421875 2.578125 -29.234375 C 2.554688 -30.054688 2.503906 -31.0625 2.421875 -32.25 Z M 2.421875 -32.25 "/></g></g></g><g fill="#ffffff" fill-opacity="1"><g transform="translate(352.056306, 569.510611)"><g><path d="M 19.03125 -7.78125 C 19.75 -5.875 20.457031 -4.390625 21.15625 -3.328125 C 21.863281 -2.265625 22.664062 -1.523438 23.5625 -1.109375 C 24.457031 -0.691406 25.550781 -0.484375 26.84375 -0.484375 L 26.84375 0 C 24.851562 0 23.234375 -0.253906 21.984375 -0.765625 C 20.734375 -1.273438 19.710938 -2.070312 18.921875 -3.15625 C 18.128906 -4.25 17.410156 -5.679688 16.765625 -7.453125 C 16.015625 -9.523438 15.164062 -11.097656 14.21875 -12.171875 C 13.28125 -13.242188 12.226562 -13.96875 11.0625 -14.34375 C 9.894531 -14.726562 8.585938 -14.921875 7.140625 -14.921875 L 5.359375 -14.921875 L 5.359375 -7.578125 C 5.359375 -6.742188 5.363281 -5.976562 5.375 -5.28125 C 5.394531 -4.582031 5.421875 -3.828125 5.453125 -3.015625 C 5.492188 -2.210938 5.546875 -1.207031 5.609375 0 L 2.828125 0 C 2.898438 -1.207031 2.953125 -2.210938 2.984375 -3.015625 C 3.015625 -3.828125 3.035156 -4.582031 3.046875 -5.28125 C 3.054688 -5.976562 3.0625 -6.742188 3.0625 -7.578125 L 3.0625 -24.71875 C 3.0625 -25.550781 3.054688 -26.304688 3.046875 -26.984375 C 3.035156 -27.671875 3.015625 -28.421875 2.984375 -29.234375 C 2.953125 -30.054688 2.898438 -31.0625 2.828125 -32.25 L 8.78125 -32.25 C 10.507812 -32.25 12.140625 -32.117188 13.671875 -31.859375 C 15.203125 -31.609375 16.554688 -31.160156 17.734375 -30.515625 C 18.921875 -29.867188 19.847656 -28.988281 20.515625 -27.875 C 21.191406 -26.757812 21.53125 -25.328125 21.53125 -23.578125 C 21.53125 -21.566406 21.070312 -19.960938 20.15625 -18.765625 C 19.238281 -17.566406 18.015625 -16.675781 16.484375 -16.09375 C 14.953125 -15.519531 13.234375 -15.15625 11.328125 -15 C 12.910156 -14.675781 14.367188 -13.984375 15.703125 -12.921875 C 17.035156 -11.859375 18.144531 -10.144531 19.03125 -7.78125 Z M 5.359375 -15.4375 L 8.78125 -15.4375 C 10.070312 -15.4375 11.328125 -15.554688 12.546875 -15.796875 C 13.773438 -16.046875 14.878906 -16.472656 15.859375 -17.078125 C 16.835938 -17.679688 17.613281 -18.503906 18.1875 -19.546875 C 18.769531 -20.597656 19.0625 -21.941406 19.0625 -23.578125 C 19.0625 -25.222656 18.769531 -26.578125 18.1875 -27.640625 C 17.613281 -28.703125 16.835938 -29.535156 15.859375 -30.140625 C 14.878906 -30.742188 13.773438 -31.164062 12.546875 -31.40625 C 11.328125 -31.644531 10.070312 -31.765625 8.78125 -31.765625 L 5.359375 -31.765625 Z M 5.359375 -15.4375 "/></g></g></g><g fill="#ffffff" fill-opacity="1"><g transform="translate(390.922296, 569.510611)"><g><path d="M 22.25 -28.5 L 14.546875 -14.15625 L 14.546875 -7.578125 C 14.546875 -6.742188 14.550781 -5.976562 14.5625 -5.28125 C 14.582031 -4.582031 14.613281 -3.828125 14.65625 -3.015625 C 14.695312 -2.210938 14.742188 -1.207031 14.796875 0 L 12.015625 0 C 12.097656 -1.207031 12.15625 -2.210938 12.1875 -3.015625 C 12.226562 -3.828125 12.25 -4.582031 12.25 -5.28125 C 12.25 -5.976562 12.25 -6.742188 12.25 -7.578125 L 12.25 -14.15625 L 4.515625 -28.453125 C 4.109375 -29.234375 3.738281 -29.875 3.40625 -30.375 C 3.070312 -30.875 2.609375 -31.5 2.015625 -32.25 L 5.359375 -32.25 C 5.597656 -31.46875 5.851562 -30.828125 6.125 -30.328125 C 6.394531 -29.835938 6.734375 -29.210938 7.140625 -28.453125 L 14.4375 -15.03125 L 21.6875 -28.453125 C 22.113281 -29.234375 22.445312 -29.863281 22.6875 -30.34375 C 22.9375 -30.832031 23.234375 -31.46875 23.578125 -32.25 L 24.46875 -32.25 C 23.957031 -31.46875 23.5625 -30.828125 23.28125 -30.328125 C 23 -29.835938 22.65625 -29.226562 22.25 -28.5 Z M 22.25 -28.5 "/></g></g></g><g fill="#ffffff" fill-opacity="1"><g transform="translate(427.893574, 569.510611)"><g/></g></g><g fill="#ffffff" fill-opacity="1"><g transform="translate(449.787747, 569.510611)"><g><path d="M 31.609375 -13.265625 L 32.09375 -13.265625 C 31.53125 -10.492188 30.632812 -8.046875 29.40625 -5.921875 C 28.1875 -3.796875 26.613281 -2.140625 24.6875 -0.953125 C 22.769531 0.222656 20.453125 0.8125 17.734375 0.8125 C 15.265625 0.8125 13.082031 0.363281 11.1875 -0.53125 C 9.289062 -1.4375 7.691406 -2.679688 6.390625 -4.265625 C 5.085938 -5.859375 4.097656 -7.703125 3.421875 -9.796875 C 2.753906 -11.890625 2.421875 -14.132812 2.421875 -16.53125 C 2.421875 -18.914062 2.804688 -21.109375 3.578125 -23.109375 C 4.359375 -25.117188 5.441406 -26.867188 6.828125 -28.359375 C 8.210938 -29.847656 9.835938 -31.003906 11.703125 -31.828125 C 13.578125 -32.648438 15.601562 -33.0625 17.78125 -33.0625 C 20.707031 -33.0625 23.195312 -32.332031 25.25 -30.875 C 27.3125 -29.425781 29 -27.359375 30.3125 -24.671875 L 27.65625 -23.953125 C 27.195312 -25.503906 26.535156 -26.929688 25.671875 -28.234375 C 24.816406 -29.535156 23.738281 -30.582031 22.4375 -31.375 C 21.132812 -32.175781 19.582031 -32.578125 17.78125 -32.578125 C 15.875 -32.578125 14.132812 -32.160156 12.5625 -31.328125 C 10.988281 -30.492188 9.632812 -29.34375 8.5 -27.875 C 7.375 -26.40625 6.507812 -24.710938 5.90625 -22.796875 C 5.300781 -20.878906 5 -18.832031 5 -16.65625 C 5 -14.445312 5.257812 -12.332031 5.78125 -10.3125 C 6.3125 -8.300781 7.117188 -6.519531 8.203125 -4.96875 C 9.296875 -3.425781 10.664062 -2.203125 12.3125 -1.296875 C 13.96875 -0.398438 15.925781 0.046875 18.1875 0.046875 C 20.6875 0.046875 22.828125 -0.515625 24.609375 -1.640625 C 26.398438 -2.773438 27.875 -4.34375 29.03125 -6.34375 C 30.1875 -8.351562 31.046875 -10.660156 31.609375 -13.265625 Z M 31.609375 -13.265625 "/></g></g></g><g fill="#ffffff" fill-opacity="1"><g transform="translate(493.975035, 569.510611)"><g><path d="M 19.828125 0.8125 C 17.328125 0.8125 15.015625 0.378906 12.890625 -0.484375 C 10.773438 -1.347656 8.9375 -2.546875 7.375 -4.078125 C 5.820312 -5.609375 4.609375 -7.398438 3.734375 -9.453125 C 2.859375 -11.503906 2.421875 -13.726562 2.421875 -16.125 C 2.421875 -18.519531 2.859375 -20.742188 3.734375 -22.796875 C 4.609375 -24.847656 5.820312 -26.640625 7.375 -28.171875 C 8.9375 -29.703125 10.773438 -30.898438 12.890625 -31.765625 C 15.015625 -32.628906 17.328125 -33.0625 19.828125 -33.0625 C 22.328125 -33.0625 24.628906 -32.628906 26.734375 -31.765625 C 28.847656 -30.898438 30.691406 -29.703125 32.265625 -28.171875 C 33.835938 -26.640625 35.0625 -24.847656 35.9375 -22.796875 C 36.8125 -20.742188 37.25 -18.519531 37.25 -16.125 C 37.25 -13.726562 36.8125 -11.503906 35.9375 -9.453125 C 35.0625 -7.398438 33.835938 -5.609375 32.265625 -4.078125 C 30.691406 -2.546875 28.847656 -1.347656 26.734375 -0.484375 C 24.628906 0.378906 22.328125 0.8125 19.828125 0.8125 Z M 19.828125 0.328125 C 22.066406 0.328125 24.097656 -0.117188 25.921875 -1.015625 C 27.742188 -1.921875 29.304688 -3.15625 30.609375 -4.71875 C 31.921875 -6.28125 32.925781 -8.039062 33.625 -10 C 34.320312 -11.957031 34.671875 -14 34.671875 -16.125 C 34.671875 -18.25 34.320312 -20.289062 33.625 -22.25 C 32.925781 -24.21875 31.921875 -25.976562 30.609375 -27.53125 C 29.304688 -29.09375 27.742188 -30.320312 25.921875 -31.21875 C 24.097656 -32.125 22.066406 -32.578125 19.828125 -32.578125 C 17.578125 -32.578125 15.539062 -32.125 13.71875 -31.21875 C 11.90625 -30.320312 10.347656 -29.09375 9.046875 -27.53125 C 7.742188 -25.976562 6.742188 -24.21875 6.046875 -22.25 C 5.347656 -20.289062 5 -18.25 5 -16.125 C 5 -14 5.347656 -11.957031 6.046875 -10 C 6.742188 -8.039062 7.742188 -6.28125 9.046875 -4.71875 C 10.347656 -3.15625 11.90625 -1.921875 13.71875 -1.015625 C 15.539062 -0.117188 17.578125 0.328125 19.828125 0.328125 Z M 19.828125 0.328125 "/></g></g></g><g fill="#ffffff" fill-opacity="1"><g transform="translate(544.128708, 569.510611)"><g><path d="M 4.75 0.8125 L 2.828125 -1.125 L 4.75 -3.03125 L 6.65625 -1.125 Z M 4.75 0.8125 "/></g></g></g></svg>