<svg xmlns="http://www.w3.org/2000/svg" xmlns:xlink="http://www.w3.org/1999/xlink" width="2500" zoomAndPan="magnify" viewBox="0 0 1874.88 1124.99995" height="1500" preserveAspectRatio="xMidYMid meet" version="1.0"><defs><g/><clipPath id="4f224a6183"><path d="M 464 315 L 476 315 L 476 532.589844 L 464 532.589844 Z M 464 315 " clip-rule="nonzero"/></clipPath><clipPath id="63ec342c33"><path d="M 290 257 L 475 257 L 475 532.589844 L 290 532.589844 Z M 290 257 " clip-rule="nonzero"/></clipPath></defs><path fill="#ffffff" d="M 130.941406 353.367188 L 76.617188 323.183594 C 64.410156 316.402344 53.5 335.089844 65.695312 341.863281 L 120.023438 372.050781 C 132.230469 378.832031 143.136719 360.144531 130.941406 353.367188 Z M 130.941406 353.367188 " fill-opacity="1" fill-rule="nonzero"/><path fill="#ffffff" d="M 278.519531 211.003906 L 248.941406 158.625 C 242.082031 146.480469 223.390625 157.378906 230.261719 169.542969 L 259.835938 221.925781 C 266.695312 234.070312 285.386719 223.171875 278.519531 211.003906 Z M 278.519531 211.003906 " fill-opacity="1" fill-rule="nonzero"/><path fill="#ffffff" d="M 480.40625 163.476562 L 480.40625 102.546875 C 480.40625 88.59375 458.773438 88.59375 458.773438 102.546875 L 458.773438 163.476562 C 458.773438 177.429688 480.40625 177.429688 480.40625 163.476562 Z M 480.40625 163.476562 " fill-opacity="1" fill-rule="nonzero"/><path fill="#ffffff" d="M 679.710938 223.648438 L 708.902344 169.542969 C 715.527344 157.269531 696.847656 146.34375 690.222656 158.625 L 661.027344 212.730469 C 654.402344 225.003906 673.082031 235.929688 679.710938 223.648438 Z M 679.710938 223.648438 " fill-opacity="1" fill-rule="nonzero"/><path fill="#ffffff" d="M 819.90625 373.769531 L 873.453125 341.859375 C 885.421875 334.726562 874.550781 316.019531 862.53125 323.179688 L 808.984375 355.089844 C 797.015625 362.222656 807.890625 380.929688 819.90625 373.769531 Z M 819.90625 373.769531 " fill-opacity="1" fill-rule="nonzero"/><g clip-path="url(#4f224a6183)"><path fill="#ffffff" d="M 475.777344 563.554688 L 475.777344 320.546875 C 475.777344 313.574219 464.960938 313.574219 464.960938 320.546875 L 464.960938 563.554688 C 464.960938 570.527344 475.777344 570.527344 475.777344 563.554688 Z M 475.777344 563.554688 " fill-opacity="1" fill-rule="nonzero"/></g><g clip-path="url(#63ec342c33)"><path fill="#ffffff" d="M 473.308594 559.21875 L 313.078125 281.964844 L 300.257812 259.785156 C 296.769531 253.746094 287.417969 259.191406 290.917969 265.242188 L 451.148438 542.496094 L 463.96875 564.675781 C 467.457031 570.710938 476.804688 565.265625 473.308594 559.21875 Z M 473.308594 559.21875 " fill-opacity="1" fill-rule="nonzero"/></g><g fill="#d20a0f" fill-opacity="1"><g transform="translate(178.926322, 822.434057)"><g><path d="M 200.484375 -47.015625 C 200.484375 -46.847656 199.101562 -45.054688 196.34375 -41.640625 C 193.582031 -38.234375 189.640625 -34.015625 184.515625 -28.984375 C 179.398438 -23.953125 173.1875 -18.957031 165.875 -14 C 158.570312 -9.050781 150.25 -4.910156 140.90625 -1.578125 C 131.570312 1.742188 121.46875 3.40625 110.59375 3.40625 C 98.570312 3.40625 87.039062 1.296875 76 -2.921875 C 48.226562 -13.148438 28.695312 -28.898438 17.40625 -50.171875 C 6.125 -71.453125 3.8125 -96.789062 10.46875 -126.1875 C 13.5625 -139.5 18.3125 -152.9375 24.71875 -166.5 C 31.132812 -180.0625 38.765625 -193.09375 47.609375 -205.59375 C 56.460938 -218.09375 66.003906 -229.660156 76.234375 -240.296875 C 86.472656 -250.941406 96.953125 -260.160156 107.671875 -267.953125 C 118.390625 -275.742188 128.941406 -281.628906 139.328125 -285.609375 C 149.722656 -289.585938 159.390625 -291.171875 168.328125 -290.359375 C 183.429688 -290.035156 195.9375 -284.109375 205.84375 -272.578125 C 207.789062 -269.984375 210.347656 -268.117188 213.515625 -266.984375 C 216.679688 -265.847656 219.882812 -265.601562 223.125 -266.25 C 232.875 -268.6875 242.78125 -269.984375 252.84375 -270.140625 C 254.632812 -270.140625 256.175781 -269.53125 257.46875 -268.3125 C 258.769531 -267.09375 259.421875 -265.59375 259.421875 -263.8125 C 259.421875 -262.019531 258.769531 -260.515625 257.46875 -259.296875 C 256.175781 -258.085938 254.71875 -257.484375 253.09375 -257.484375 C 241.238281 -257.316406 229.707031 -255.445312 218.5 -251.875 C 215.25 -250.738281 213.707031 -248.46875 213.875 -245.0625 C 213.382812 -236.9375 211.429688 -228.53125 208.015625 -219.84375 C 204.609375 -211.15625 200.265625 -202.75 194.984375 -194.625 C 189.710938 -186.507812 183.828125 -179.203125 177.328125 -172.703125 C 170.835938 -166.210938 164.140625 -160.976562 157.234375 -157 C 150.335938 -153.019531 143.640625 -150.945312 137.140625 -150.78125 C 129.671875 -149.96875 123.828125 -152.726562 119.609375 -159.0625 C 114.734375 -167.019531 116.4375 -178.390625 124.71875 -193.171875 C 140.46875 -218.992188 161.742188 -238.882812 188.546875 -252.84375 C 191.785156 -254.632812 193.648438 -257.394531 194.140625 -261.125 C 194.460938 -265.03125 193.164062 -268.117188 190.25 -270.390625 C 183.101562 -274.929688 175.390625 -277.367188 167.109375 -277.703125 C 159.796875 -278.347656 151.59375 -276.882812 142.5 -273.3125 C 133.40625 -269.738281 123.984375 -264.378906 114.234375 -257.234375 C 104.492188 -250.085938 94.875 -241.601562 85.375 -231.78125 C 75.875 -221.957031 66.941406 -211.195312 58.578125 -199.5 C 50.222656 -187.8125 42.957031 -175.507812 36.78125 -162.59375 C 30.613281 -149.6875 25.984375 -136.578125 22.890625 -123.265625 C 20.941406 -114.160156 19.925781 -104.492188 19.84375 -94.265625 C 19.769531 -84.035156 21.519531 -73.96875 25.09375 -64.0625 C 28.664062 -54.15625 34.875 -44.9375 43.71875 -36.40625 C 52.570312 -27.882812 64.796875 -20.785156 80.390625 -15.109375 C 91.265625 -11.046875 101.492188 -9.09375 111.078125 -9.25 C 120.660156 -9.414062 129.46875 -10.921875 137.5 -13.765625 C 145.539062 -16.609375 152.726562 -20.179688 159.0625 -24.484375 C 165.394531 -28.785156 170.796875 -33.128906 175.265625 -37.515625 C 179.734375 -41.898438 183.222656 -45.632812 185.734375 -48.71875 C 188.253906 -51.800781 189.675781 -53.585938 190 -54.078125 C 190.976562 -55.535156 192.316406 -56.425781 194.015625 -56.75 C 195.722656 -57.082031 197.304688 -56.757812 198.765625 -55.78125 C 200.234375 -54.8125 201.128906 -53.472656 201.453125 -51.765625 C 201.773438 -50.054688 201.453125 -48.472656 200.484375 -47.015625 Z M 136.90625 -163.6875 C 141.9375 -163.851562 147.492188 -165.882812 153.578125 -169.78125 C 159.671875 -173.675781 165.722656 -178.832031 171.734375 -185.25 C 177.742188 -191.664062 183.144531 -198.8125 187.9375 -206.6875 C 192.726562 -214.5625 196.257812 -222.476562 198.53125 -230.4375 C 199.34375 -233.519531 198.53125 -235.957031 196.09375 -237.75 C 193.65625 -239.695312 191.054688 -239.859375 188.296875 -238.234375 C 166.535156 -225.566406 149.078125 -208.515625 135.921875 -187.078125 C 132.835938 -181.554688 130.96875 -176.96875 130.3125 -173.3125 C 129.664062 -169.664062 129.75 -167.109375 130.5625 -165.640625 C 131.050781 -164.828125 131.941406 -164.296875 133.234375 -164.046875 C 134.535156 -163.804688 135.757812 -163.6875 136.90625 -163.6875 Z M 136.90625 -163.6875 "/></g></g></g><g fill="#d20a0f" fill-opacity="1"><g transform="translate(394.712676, 822.434057)"><g><path d="M 214.125 -91.828125 C 208.4375 -80.140625 201.816406 -68.53125 194.265625 -57 C 186.710938 -45.46875 178.347656 -34.546875 169.171875 -24.234375 C 159.992188 -13.921875 150.128906 -4.828125 139.578125 3.046875 C 129.023438 10.921875 117.941406 17.128906 106.328125 21.671875 C 94.710938 26.222656 82.65625 28.5 70.15625 28.5 C 62.363281 28.5 54.648438 27.523438 47.015625 25.578125 C 39.378906 23.953125 32.757812 20.617188 27.15625 15.578125 C 21.550781 10.546875 17.453125 4.5 14.859375 -2.5625 C 12.265625 -9.625 11.535156 -16.972656 12.671875 -24.609375 C 13.640625 -33.859375 16.84375 -43.757812 22.28125 -54.3125 C 27.726562 -64.875 35.644531 -75.472656 46.03125 -86.109375 C 56.425781 -96.742188 69.582031 -106.851562 85.5 -116.4375 C 101.414062 -126.019531 120.296875 -134.585938 142.140625 -142.140625 C 163.984375 -149.691406 188.953125 -155.492188 217.046875 -159.546875 C 219.640625 -159.878906 221.867188 -160.894531 223.734375 -162.59375 C 225.609375 -164.300781 226.785156 -166.453125 227.265625 -169.046875 C 231.328125 -189.347656 232.097656 -207.414062 229.578125 -223.25 C 227.066406 -239.082031 221.179688 -250.570312 211.921875 -257.71875 C 209.484375 -259.664062 206.359375 -260.191406 202.546875 -259.296875 C 198.734375 -258.410156 194.59375 -256.707031 190.125 -254.1875 C 185.65625 -251.675781 181.226562 -248.957031 176.84375 -246.03125 C 169.695312 -241.476562 162.753906 -237.535156 156.015625 -234.203125 C 149.273438 -230.878906 142.90625 -230.191406 136.90625 -232.140625 C 129.914062 -234.742188 125.285156 -239.617188 123.015625 -246.765625 C 122.367188 -248.390625 122.410156 -250.007812 123.140625 -251.625 C 123.867188 -253.25 125.046875 -254.390625 126.671875 -255.046875 C 128.296875 -255.691406 129.914062 -255.648438 131.53125 -254.921875 C 133.15625 -254.191406 134.296875 -253.015625 134.953125 -251.390625 C 136.085938 -248.460938 137.222656 -246.59375 138.359375 -245.78125 C 139.492188 -244.96875 140.304688 -244.484375 140.796875 -244.328125 C 143.878906 -243.347656 148.140625 -244.316406 153.578125 -247.234375 C 159.023438 -250.160156 164.425781 -253.332031 169.78125 -256.75 C 175.300781 -260.320312 180.984375 -263.648438 186.828125 -266.734375 C 192.679688 -269.816406 198.40625 -271.722656 204 -272.453125 C 209.601562 -273.191406 214.84375 -271.609375 219.71875 -267.703125 C 227.507812 -261.859375 233.3125 -254.0625 237.125 -244.3125 C 240.945312 -234.570312 243.101562 -223.613281 243.59375 -211.4375 C 244.082031 -199.257812 243.191406 -186.429688 240.921875 -172.953125 C 240.429688 -170.191406 241.160156 -167.835938 243.109375 -165.890625 C 244.890625 -163.941406 247.160156 -163.046875 249.921875 -163.203125 C 256.253906 -163.691406 262.671875 -164.097656 269.171875 -164.421875 C 270.953125 -164.585938 272.492188 -164.0625 273.796875 -162.84375 C 275.097656 -161.625 275.828125 -160.203125 275.984375 -158.578125 C 275.984375 -156.796875 275.414062 -155.253906 274.28125 -153.953125 C 273.144531 -152.648438 271.6875 -151.921875 269.90625 -151.765625 C 260.96875 -151.273438 252.195312 -150.625 243.59375 -149.8125 C 238.238281 -149.320312 234.828125 -146.476562 233.359375 -141.28125 C 228.328125 -124.226562 221.914062 -107.742188 214.125 -91.828125 Z M 202.671875 -97.4375 C 208.679688 -109.457031 213.878906 -121.878906 218.265625 -134.703125 C 219.234375 -137.628906 218.664062 -140.226562 216.5625 -142.5 C 214.601562 -144.9375 212.082031 -145.832031 209 -145.1875 C 183.832031 -140.957031 161.460938 -135.3125 141.890625 -128.25 C 122.328125 -121.1875 105.398438 -113.269531 91.109375 -104.5 C 76.816406 -95.726562 64.957031 -86.59375 55.53125 -77.09375 C 46.113281 -67.59375 38.925781 -58.210938 33.96875 -48.953125 C 29.019531 -39.703125 26.222656 -31.179688 25.578125 -23.390625 C 24.441406 -17.703125 24.804688 -12.300781 26.671875 -7.1875 C 28.535156 -2.070312 31.5 2.3125 35.5625 5.96875 C 39.625 9.625 44.5 12.019531 50.1875 13.15625 C 63.007812 16.5625 75.550781 16.882812 87.8125 14.125 C 100.070312 11.363281 111.804688 6.332031 123.015625 -0.96875 C 134.222656 -8.28125 144.738281 -17.09375 154.5625 -27.40625 C 164.382812 -37.71875 173.351562 -48.878906 181.46875 -60.890625 C 189.59375 -72.910156 196.660156 -85.09375 202.671875 -97.4375 Z M 202.671875 -97.4375 "/></g></g></g><g fill="#ffffff" fill-opacity="1"><g transform="translate(783.650467, 536.025443)"><g><path d="M 6.921875 -76.859375 L 17.875 -76.859375 C 17.675781 -74.171875 17.515625 -71.847656 17.390625 -69.890625 C 17.265625 -67.941406 17.1875 -66.050781 17.15625 -64.21875 C 17.125 -62.394531 17.109375 -60.300781 17.109375 -57.9375 L 17.109375 -1.53125 L 25.171875 -1.53125 C 28.367188 -1.53125 31.3125 -1.609375 34 -1.765625 C 36.695312 -1.929688 39.46875 -2.285156 42.3125 -2.828125 C 45.164062 -3.378906 48.390625 -4.164062 51.984375 -5.1875 L 49.1875 0 L 6.71875 0 C 6.976562 -2.6875 7.171875 -5.003906 7.296875 -6.953125 C 7.429688 -8.910156 7.53125 -10.816406 7.59375 -12.671875 C 7.65625 -14.535156 7.6875 -16.617188 7.6875 -18.921875 L 7.6875 -57.9375 C 7.6875 -60.300781 7.671875 -62.394531 7.640625 -64.21875 C 7.609375 -66.050781 7.523438 -67.941406 7.390625 -69.890625 C 7.265625 -71.847656 7.109375 -74.171875 6.921875 -76.859375 Z M 6.921875 -76.859375 "/></g></g></g><g fill="#ffffff" fill-opacity="1"><g transform="translate(864.44297, 536.025443)"><g><path d="M 5.765625 -76.859375 L 16.71875 -76.859375 C 16.519531 -74.171875 16.359375 -71.847656 16.234375 -69.890625 C 16.109375 -67.941406 16.03125 -66.050781 16 -64.21875 C 15.96875 -62.394531 15.953125 -60.300781 15.953125 -57.9375 L 15.953125 -32.671875 C 15.953125 -21.265625 17.628906 -13.046875 20.984375 -8.015625 C 24.347656 -2.992188 29.8125 -0.484375 37.375 -0.484375 C 42.300781 -0.484375 46.414062 -1.503906 49.71875 -3.546875 C 53.019531 -5.597656 55.519531 -8.976562 57.21875 -13.6875 C 58.914062 -18.394531 59.765625 -24.722656 59.765625 -32.671875 L 59.765625 -57.9375 C 59.765625 -60.300781 59.75 -62.394531 59.71875 -64.21875 C 59.6875 -66.050781 59.617188 -67.941406 59.515625 -69.890625 C 59.421875 -71.847656 59.242188 -74.171875 58.984375 -76.859375 L 62.0625 -76.859375 C 61.875 -74.171875 61.710938 -71.847656 61.578125 -69.890625 C 61.453125 -67.941406 61.375 -66.050781 61.34375 -64.21875 C 61.3125 -62.394531 61.296875 -60.300781 61.296875 -57.9375 L 61.296875 -32.671875 C 61.296875 -24.273438 60.347656 -17.546875 58.453125 -12.484375 C 56.566406 -7.429688 53.734375 -3.765625 49.953125 -1.484375 C 46.179688 0.785156 41.441406 1.921875 35.734375 1.921875 C 31.253906 1.921875 27.21875 1.390625 23.625 0.328125 C 20.039062 -0.722656 16.96875 -2.53125 14.40625 -5.09375 C 11.84375 -7.65625 9.890625 -11.175781 8.546875 -15.65625 C 7.203125 -20.144531 6.53125 -25.816406 6.53125 -32.671875 L 6.53125 -57.9375 C 6.53125 -60.300781 6.515625 -62.394531 6.484375 -64.21875 C 6.453125 -66.050781 6.367188 -67.941406 6.234375 -69.890625 C 6.109375 -71.847656 5.953125 -74.171875 5.765625 -76.859375 Z M 5.765625 -76.859375 "/></g></g></g><g fill="#ffffff" fill-opacity="1"><g transform="translate(957.243482, 536.025443)"><g><path d="M 50.4375 -8.75 C 51.332031 -7.019531 52.097656 -5.59375 52.734375 -4.46875 C 53.378906 -3.34375 54.410156 -1.851562 55.828125 0 L 43.421875 0 C 42.785156 -1.851562 42.242188 -3.34375 41.796875 -4.46875 C 41.347656 -5.59375 40.675781 -7.019531 39.78125 -8.75 L 26.328125 -34.96875 L 12.109375 -8.75 C 11.148438 -6.945312 10.394531 -5.5 9.84375 -4.40625 C 9.300781 -3.320312 8.613281 -1.851562 7.78125 0 L 4.90625 0 C 5.863281 -1.28125 6.613281 -2.351562 7.15625 -3.21875 C 7.695312 -4.082031 8.191406 -4.929688 8.640625 -5.765625 C 9.085938 -6.597656 9.632812 -7.59375 10.28125 -8.75 L 25.453125 -36.609375 L 9.3125 -68.125 C 8.738281 -69.269531 8.210938 -70.257812 7.734375 -71.09375 C 7.253906 -71.925781 6.722656 -72.789062 6.140625 -73.6875 C 5.566406 -74.582031 4.800781 -75.640625 3.84375 -76.859375 L 16.234375 -76.859375 C 16.816406 -75.003906 17.363281 -73.515625 17.875 -72.390625 C 18.382812 -71.273438 19.054688 -69.851562 19.890625 -68.125 L 33.34375 -41.890625 L 47.46875 -67.734375 C 48.488281 -69.660156 49.285156 -71.195312 49.859375 -72.34375 C 50.441406 -73.5 51.113281 -75.003906 51.875 -76.859375 L 54.765625 -76.859375 C 53.867188 -75.640625 53.128906 -74.582031 52.546875 -73.6875 C 51.972656 -72.789062 51.445312 -71.894531 50.96875 -71 C 50.488281 -70.101562 49.894531 -69.015625 49.1875 -67.734375 L 34.203125 -40.25 Z M 50.4375 -8.75 "/></g></g></g><g fill="#ffffff" fill-opacity="1"><g transform="translate(1041.878549, 536.025443)"><g><path d="M 5.765625 -76.859375 L 16.71875 -76.859375 C 16.519531 -74.171875 16.359375 -71.847656 16.234375 -69.890625 C 16.109375 -67.941406 16.03125 -66.050781 16 -64.21875 C 15.96875 -62.394531 15.953125 -60.300781 15.953125 -57.9375 L 15.953125 -32.671875 C 15.953125 -21.265625 17.628906 -13.046875 20.984375 -8.015625 C 24.347656 -2.992188 29.8125 -0.484375 37.375 -0.484375 C 42.300781 -0.484375 46.414062 -1.503906 49.71875 -3.546875 C 53.019531 -5.597656 55.519531 -8.976562 57.21875 -13.6875 C 58.914062 -18.394531 59.765625 -24.722656 59.765625 -32.671875 L 59.765625 -57.9375 C 59.765625 -60.300781 59.75 -62.394531 59.71875 -64.21875 C 59.6875 -66.050781 59.617188 -67.941406 59.515625 -69.890625 C 59.421875 -71.847656 59.242188 -74.171875 58.984375 -76.859375 L 62.0625 -76.859375 C 61.875 -74.171875 61.710938 -71.847656 61.578125 -69.890625 C 61.453125 -67.941406 61.375 -66.050781 61.34375 -64.21875 C 61.3125 -62.394531 61.296875 -60.300781 61.296875 -57.9375 L 61.296875 -32.671875 C 61.296875 -24.273438 60.347656 -17.546875 58.453125 -12.484375 C 56.566406 -7.429688 53.734375 -3.765625 49.953125 -1.484375 C 46.179688 0.785156 41.441406 1.921875 35.734375 1.921875 C 31.253906 1.921875 27.21875 1.390625 23.625 0.328125 C 20.039062 -0.722656 16.96875 -2.53125 14.40625 -5.09375 C 11.84375 -7.65625 9.890625 -11.175781 8.546875 -15.65625 C 7.203125 -20.144531 6.53125 -25.816406 6.53125 -32.671875 L 6.53125 -57.9375 C 6.53125 -60.300781 6.515625 -62.394531 6.484375 -64.21875 C 6.453125 -66.050781 6.367188 -67.941406 6.234375 -69.890625 C 6.109375 -71.847656 5.953125 -74.171875 5.765625 -76.859375 Z M 5.765625 -76.859375 "/></g></g></g><g fill="#ffffff" fill-opacity="1"><g transform="translate(1134.679061, 536.025443)"><g><path d="M 51.203125 -18.25 C 52.867188 -13.957031 54.519531 -10.59375 56.15625 -8.15625 C 57.789062 -5.726562 59.664062 -4 61.78125 -2.96875 C 63.894531 -1.945312 66.425781 -1.4375 69.375 -1.4375 L 69.375 0 C 64.113281 0 59.707031 -0.523438 56.15625 -1.578125 C 52.601562 -2.640625 49.6875 -4.453125 47.40625 -7.015625 C 45.132812 -9.578125 43.203125 -13.097656 41.609375 -17.578125 C 39.804688 -22.640625 37.894531 -26.453125 35.875 -29.015625 C 33.863281 -31.578125 31.609375 -33.304688 29.109375 -34.203125 C 26.609375 -35.097656 23.695312 -35.546875 20.375 -35.546875 L 16.90625 -35.546875 L 16.90625 -18.921875 C 16.90625 -16.617188 16.921875 -14.535156 16.953125 -12.671875 C 16.984375 -10.816406 17.0625 -8.910156 17.1875 -6.953125 C 17.320312 -5.003906 17.484375 -2.6875 17.671875 0 L 6.71875 0 C 6.914062 -2.6875 7.078125 -5.003906 7.203125 -6.953125 C 7.328125 -8.910156 7.40625 -10.816406 7.4375 -12.671875 C 7.476562 -14.535156 7.5 -16.617188 7.5 -18.921875 L 7.5 -57.9375 C 7.5 -60.300781 7.476562 -62.394531 7.4375 -64.21875 C 7.40625 -66.050781 7.328125 -67.941406 7.203125 -69.890625 C 7.078125 -71.847656 6.914062 -74.171875 6.71875 -76.859375 L 24.5 -76.859375 C 28.789062 -76.859375 32.859375 -76.550781 36.703125 -75.9375 C 40.546875 -75.332031 43.957031 -74.273438 46.9375 -72.765625 C 49.914062 -71.265625 52.253906 -69.171875 53.953125 -66.484375 C 55.648438 -63.796875 56.5 -60.367188 56.5 -56.203125 C 56.5 -51.335938 55.375 -47.476562 53.125 -44.625 C 50.882812 -41.78125 47.859375 -39.679688 44.046875 -38.328125 C 40.234375 -36.984375 35.957031 -36.117188 31.21875 -35.734375 C 35.382812 -34.972656 39.179688 -33.3125 42.609375 -30.75 C 46.035156 -28.1875 48.898438 -24.019531 51.203125 -18.25 Z M 16.90625 -37.09375 L 24.40625 -37.09375 C 27.21875 -37.09375 29.953125 -37.378906 32.609375 -37.953125 C 35.273438 -38.523438 37.664062 -39.515625 39.78125 -40.921875 C 41.894531 -42.335938 43.570312 -44.273438 44.8125 -46.734375 C 46.0625 -49.203125 46.6875 -52.359375 46.6875 -56.203125 C 46.6875 -60.046875 46.0625 -63.203125 44.8125 -65.671875 C 43.570312 -68.140625 41.894531 -70.078125 39.78125 -71.484375 C 37.664062 -72.890625 35.273438 -73.878906 32.609375 -74.453125 C 29.953125 -75.035156 27.21875 -75.328125 24.40625 -75.328125 L 16.90625 -75.328125 Z M 16.90625 -37.09375 "/></g></g></g><g fill="#ffffff" fill-opacity="1"><g transform="translate(1232.570977, 536.025443)"><g><path d="M 56.390625 -67.921875 L 38.625 -33.140625 L 38.625 -18.921875 C 38.625 -16.617188 38.640625 -14.535156 38.671875 -12.671875 C 38.703125 -10.816406 38.765625 -8.910156 38.859375 -6.953125 C 38.953125 -5.003906 39.097656 -2.6875 39.296875 0 L 28.34375 0 C 28.601562 -2.6875 28.78125 -5.003906 28.875 -6.953125 C 28.96875 -8.910156 29.03125 -10.816406 29.0625 -12.671875 C 29.09375 -14.535156 29.109375 -16.617188 29.109375 -18.921875 L 29.109375 -33.140625 L 10.765625 -67.828125 C 9.796875 -69.691406 8.910156 -71.226562 8.109375 -72.4375 C 7.316406 -73.65625 6.210938 -75.128906 4.796875 -76.859375 L 17.390625 -76.859375 C 18.023438 -75.003906 18.628906 -73.484375 19.203125 -72.296875 C 19.785156 -71.109375 20.554688 -69.617188 21.515625 -67.828125 L 38.328125 -36.125 L 54.765625 -67.828125 C 55.722656 -69.691406 56.472656 -71.195312 57.015625 -72.34375 C 57.566406 -73.5 58.222656 -75.003906 58.984375 -76.859375 L 61.59375 -76.859375 C 60.375 -75.003906 59.425781 -73.484375 58.75 -72.296875 C 58.082031 -71.109375 57.296875 -69.648438 56.390625 -67.921875 Z M 56.390625 -67.921875 "/></g></g></g><g fill="#ffffff" fill-opacity="1"><g transform="translate(1323.939964, 536.025443)"><g/></g></g><g fill="#ffffff" fill-opacity="1"><g transform="translate(783.650467, 727.277566)"><g><path d="M 77.53125 -32 L 78.875 -32 C 77.40625 -25.207031 75.179688 -19.265625 72.203125 -14.171875 C 69.222656 -9.078125 65.378906 -5.117188 60.671875 -2.296875 C 55.960938 0.515625 50.3125 1.921875 43.71875 1.921875 C 37.757812 1.921875 32.425781 0.878906 27.71875 -1.203125 C 23.007812 -3.285156 19.019531 -6.195312 15.75 -9.9375 C 12.488281 -13.6875 10.007812 -18.078125 8.3125 -23.109375 C 6.613281 -28.140625 5.765625 -33.566406 5.765625 -39.390625 C 5.765625 -45.222656 6.738281 -50.554688 8.6875 -55.390625 C 10.644531 -60.222656 13.335938 -64.382812 16.765625 -67.875 C 20.191406 -71.363281 24.207031 -74.050781 28.8125 -75.9375 C 33.425781 -77.832031 38.363281 -78.78125 43.625 -78.78125 C 51.050781 -78.78125 57.328125 -76.9375 62.453125 -73.25 C 67.578125 -69.570312 71.769531 -64.4375 75.03125 -57.84375 L 65.421875 -55.25 C 64.460938 -59.34375 63.054688 -63.039062 61.203125 -66.34375 C 59.347656 -69.644531 56.976562 -72.285156 54.09375 -74.265625 C 51.207031 -76.253906 47.71875 -77.25 43.625 -77.25 C 39.394531 -77.25 35.597656 -76.285156 32.234375 -74.359375 C 28.867188 -72.441406 25.984375 -69.769531 23.578125 -66.34375 C 21.179688 -62.914062 19.34375 -58.941406 18.0625 -54.421875 C 16.78125 -49.910156 16.140625 -45.09375 16.140625 -39.96875 C 16.140625 -34.71875 16.734375 -29.753906 17.921875 -25.078125 C 19.109375 -20.398438 20.929688 -16.25 23.390625 -12.625 C 25.859375 -9.007812 28.984375 -6.160156 32.765625 -4.078125 C 36.546875 -1.992188 41 -0.953125 46.125 -0.953125 C 51.757812 -0.953125 56.65625 -2.234375 60.8125 -4.796875 C 64.976562 -7.359375 68.453125 -10.960938 71.234375 -15.609375 C 74.023438 -20.253906 76.125 -25.71875 77.53125 -32 Z M 77.53125 -32 "/></g></g></g><g fill="#ffffff" fill-opacity="1"><g transform="translate(891.340922, 727.277566)"><g><path d="M 48.71875 1.921875 C 42.5625 1.921875 36.875 0.929688 31.65625 -1.046875 C 26.4375 -3.035156 21.890625 -5.820312 18.015625 -9.40625 C 14.140625 -13 11.128906 -17.257812 8.984375 -22.1875 C 6.835938 -27.125 5.765625 -32.539062 5.765625 -38.4375 C 5.765625 -44.320312 6.835938 -49.726562 8.984375 -54.65625 C 11.128906 -59.59375 14.140625 -63.851562 18.015625 -67.4375 C 21.890625 -71.03125 26.4375 -73.816406 31.65625 -75.796875 C 36.875 -77.785156 42.5625 -78.78125 48.71875 -78.78125 C 54.863281 -78.78125 60.546875 -77.785156 65.765625 -75.796875 C 70.984375 -73.816406 75.546875 -71.03125 79.453125 -67.4375 C 83.359375 -63.851562 86.382812 -59.59375 88.53125 -54.65625 C 90.675781 -49.726562 91.75 -44.320312 91.75 -38.4375 C 91.75 -32.539062 90.675781 -27.125 88.53125 -22.1875 C 86.382812 -17.257812 83.359375 -13 79.453125 -9.40625 C 75.546875 -5.820312 70.984375 -3.035156 65.765625 -1.046875 C 60.546875 0.929688 54.863281 1.921875 48.71875 1.921875 Z M 48.71875 0.390625 C 53.832031 0.390625 58.390625 -0.664062 62.390625 -2.78125 C 66.398438 -4.894531 69.828125 -7.773438 72.671875 -11.421875 C 75.523438 -15.078125 77.6875 -19.226562 79.15625 -23.875 C 80.632812 -28.519531 81.375 -33.375 81.375 -38.4375 C 81.375 -43.488281 80.632812 -48.335938 79.15625 -52.984375 C 77.6875 -57.628906 75.523438 -61.773438 72.671875 -65.421875 C 69.828125 -69.078125 66.398438 -71.960938 62.390625 -74.078125 C 58.390625 -76.191406 53.832031 -77.25 48.71875 -77.25 C 43.65625 -77.25 39.101562 -76.191406 35.0625 -74.078125 C 31.03125 -71.960938 27.601562 -69.078125 24.78125 -65.421875 C 21.96875 -61.773438 19.820312 -57.628906 18.34375 -52.984375 C 16.875 -48.335938 16.140625 -43.488281 16.140625 -38.4375 C 16.140625 -33.375 16.875 -28.519531 18.34375 -23.875 C 19.820312 -19.226562 21.96875 -15.078125 24.78125 -11.421875 C 27.601562 -7.773438 31.03125 -4.894531 35.0625 -2.78125 C 39.101562 -0.664062 43.65625 0.390625 48.71875 0.390625 Z M 48.71875 0.390625 "/></g></g></g><g fill="#ffffff" fill-opacity="1"><g transform="translate(1013.82526, 727.277566)"><g><path d="M 51.203125 -18.25 C 52.867188 -13.957031 54.519531 -10.59375 56.15625 -8.15625 C 57.789062 -5.726562 59.664062 -4 61.78125 -2.96875 C 63.894531 -1.945312 66.425781 -1.4375 69.375 -1.4375 L 69.375 0 C 64.113281 0 59.707031 -0.523438 56.15625 -1.578125 C 52.601562 -2.640625 49.6875 -4.453125 47.40625 -7.015625 C 45.132812 -9.578125 43.203125 -13.097656 41.609375 -17.578125 C 39.804688 -22.640625 37.894531 -26.453125 35.875 -29.015625 C 33.863281 -31.578125 31.609375 -33.304688 29.109375 -34.203125 C 26.609375 -35.097656 23.695312 -35.546875 20.375 -35.546875 L 16.90625 -35.546875 L 16.90625 -18.921875 C 16.90625 -16.617188 16.921875 -14.535156 16.953125 -12.671875 C 16.984375 -10.816406 17.0625 -8.910156 17.1875 -6.953125 C 17.320312 -5.003906 17.484375 -2.6875 17.671875 0 L 6.71875 0 C 6.914062 -2.6875 7.078125 -5.003906 7.203125 -6.953125 C 7.328125 -8.910156 7.40625 -10.816406 7.4375 -12.671875 C 7.476562 -14.535156 7.5 -16.617188 7.5 -18.921875 L 7.5 -57.9375 C 7.5 -60.300781 7.476562 -62.394531 7.4375 -64.21875 C 7.40625 -66.050781 7.328125 -67.941406 7.203125 -69.890625 C 7.078125 -71.847656 6.914062 -74.171875 6.71875 -76.859375 L 24.5 -76.859375 C 28.789062 -76.859375 32.859375 -76.550781 36.703125 -75.9375 C 40.546875 -75.332031 43.957031 -74.273438 46.9375 -72.765625 C 49.914062 -71.265625 52.253906 -69.171875 53.953125 -66.484375 C 55.648438 -63.796875 56.5 -60.367188 56.5 -56.203125 C 56.5 -51.335938 55.375 -47.476562 53.125 -44.625 C 50.882812 -41.78125 47.859375 -39.679688 44.046875 -38.328125 C 40.234375 -36.984375 35.957031 -36.117188 31.21875 -35.734375 C 35.382812 -34.972656 39.179688 -33.3125 42.609375 -30.75 C 46.035156 -28.1875 48.898438 -24.019531 51.203125 -18.25 Z M 16.90625 -37.09375 L 24.40625 -37.09375 C 27.21875 -37.09375 29.953125 -37.378906 32.609375 -37.953125 C 35.273438 -38.523438 37.664062 -39.515625 39.78125 -40.921875 C 41.894531 -42.335938 43.570312 -44.273438 44.8125 -46.734375 C 46.0625 -49.203125 46.6875 -52.359375 46.6875 -56.203125 C 46.6875 -60.046875 46.0625 -63.203125 44.8125 -65.671875 C 43.570312 -68.140625 41.894531 -70.078125 39.78125 -71.484375 C 37.664062 -72.890625 35.273438 -73.878906 32.609375 -74.453125 C 29.953125 -75.035156 27.21875 -75.328125 24.40625 -75.328125 L 16.90625 -75.328125 Z M 16.90625 -37.09375 "/></g></g></g><g fill="#ffffff" fill-opacity="1"><g transform="translate(1111.717176, 727.277566)"><g><path d="M 6.71875 0 C 6.914062 -2.6875 7.078125 -5.003906 7.203125 -6.953125 C 7.328125 -8.910156 7.40625 -10.816406 7.4375 -12.671875 C 7.476562 -14.535156 7.5 -16.617188 7.5 -18.921875 L 7.5 -57.9375 C 7.5 -60.300781 7.476562 -62.394531 7.4375 -64.21875 C 7.40625 -66.050781 7.328125 -67.941406 7.203125 -69.890625 C 7.078125 -71.847656 6.914062 -74.171875 6.71875 -76.859375 L 24.5 -76.859375 C 28.789062 -76.859375 32.859375 -76.550781 36.703125 -75.9375 C 40.546875 -75.332031 43.957031 -74.273438 46.9375 -72.765625 C 49.914062 -71.265625 52.253906 -69.171875 53.953125 -66.484375 C 55.648438 -63.796875 56.5 -60.367188 56.5 -56.203125 C 56.5 -52.035156 55.648438 -48.609375 53.953125 -45.921875 C 52.253906 -43.234375 49.914062 -41.132812 46.9375 -39.625 C 43.957031 -38.125 40.546875 -37.066406 36.703125 -36.453125 C 32.859375 -35.847656 28.789062 -35.546875 24.5 -35.546875 L 16.90625 -35.546875 L 16.90625 -18.921875 C 16.90625 -16.617188 16.921875 -14.535156 16.953125 -12.671875 C 16.984375 -10.816406 17.0625 -8.910156 17.1875 -6.953125 C 17.320312 -5.003906 17.484375 -2.6875 17.671875 0 Z M 16.90625 -37.09375 L 24.40625 -37.09375 C 27.21875 -37.09375 29.953125 -37.378906 32.609375 -37.953125 C 35.273438 -38.523438 37.664062 -39.515625 39.78125 -40.921875 C 41.894531 -42.335938 43.570312 -44.273438 44.8125 -46.734375 C 46.0625 -49.203125 46.6875 -52.359375 46.6875 -56.203125 C 46.6875 -60.046875 46.0625 -63.203125 44.8125 -65.671875 C 43.570312 -68.140625 41.894531 -70.078125 39.78125 -71.484375 C 37.664062 -72.890625 35.273438 -73.878906 32.609375 -74.453125 C 29.953125 -75.035156 27.21875 -75.328125 24.40625 -75.328125 L 16.90625 -75.328125 Z M 16.90625 -37.09375 "/></g></g></g><g fill="#ffffff" fill-opacity="1"><g transform="translate(1197.985336, 727.277566)"><g><path d="M 48.71875 1.921875 C 42.5625 1.921875 36.875 0.929688 31.65625 -1.046875 C 26.4375 -3.035156 21.890625 -5.820312 18.015625 -9.40625 C 14.140625 -13 11.128906 -17.257812 8.984375 -22.1875 C 6.835938 -27.125 5.765625 -32.539062 5.765625 -38.4375 C 5.765625 -44.320312 6.835938 -49.726562 8.984375 -54.65625 C 11.128906 -59.59375 14.140625 -63.851562 18.015625 -67.4375 C 21.890625 -71.03125 26.4375 -73.816406 31.65625 -75.796875 C 36.875 -77.785156 42.5625 -78.78125 48.71875 -78.78125 C 54.863281 -78.78125 60.546875 -77.785156 65.765625 -75.796875 C 70.984375 -73.816406 75.546875 -71.03125 79.453125 -67.4375 C 83.359375 -63.851562 86.382812 -59.59375 88.53125 -54.65625 C 90.675781 -49.726562 91.75 -44.320312 91.75 -38.4375 C 91.75 -32.539062 90.675781 -27.125 88.53125 -22.1875 C 86.382812 -17.257812 83.359375 -13 79.453125 -9.40625 C 75.546875 -5.820312 70.984375 -3.035156 65.765625 -1.046875 C 60.546875 0.929688 54.863281 1.921875 48.71875 1.921875 Z M 48.71875 0.390625 C 53.832031 0.390625 58.390625 -0.664062 62.390625 -2.78125 C 66.398438 -4.894531 69.828125 -7.773438 72.671875 -11.421875 C 75.523438 -15.078125 77.6875 -19.226562 79.15625 -23.875 C 80.632812 -28.519531 81.375 -33.375 81.375 -38.4375 C 81.375 -43.488281 80.632812 -48.335938 79.15625 -52.984375 C 77.6875 -57.628906 75.523438 -61.773438 72.671875 -65.421875 C 69.828125 -69.078125 66.398438 -71.960938 62.390625 -74.078125 C 58.390625 -76.191406 53.832031 -77.25 48.71875 -77.25 C 43.65625 -77.25 39.101562 -76.191406 35.0625 -74.078125 C 31.03125 -71.960938 27.601562 -69.078125 24.78125 -65.421875 C 21.96875 -61.773438 19.820312 -57.628906 18.34375 -52.984375 C 16.875 -48.335938 16.140625 -43.488281 16.140625 -38.4375 C 16.140625 -33.375 16.875 -28.519531 18.34375 -23.875 C 19.820312 -19.226562 21.96875 -15.078125 24.78125 -11.421875 C 27.601562 -7.773438 31.03125 -4.894531 35.0625 -2.78125 C 39.101562 -0.664062 43.65625 0.390625 48.71875 0.390625 Z M 48.71875 0.390625 "/></g></g></g><g fill="#ffffff" fill-opacity="1"><g transform="translate(1320.469674, 727.277566)"><g><path d="M 51.203125 -18.25 C 52.867188 -13.957031 54.519531 -10.59375 56.15625 -8.15625 C 57.789062 -5.726562 59.664062 -4 61.78125 -2.96875 C 63.894531 -1.945312 66.425781 -1.4375 69.375 -1.4375 L 69.375 0 C 64.113281 0 59.707031 -0.523438 56.15625 -1.578125 C 52.601562 -2.640625 49.6875 -4.453125 47.40625 -7.015625 C 45.132812 -9.578125 43.203125 -13.097656 41.609375 -17.578125 C 39.804688 -22.640625 37.894531 -26.453125 35.875 -29.015625 C 33.863281 -31.578125 31.609375 -33.304688 29.109375 -34.203125 C 26.609375 -35.097656 23.695312 -35.546875 20.375 -35.546875 L 16.90625 -35.546875 L 16.90625 -18.921875 C 16.90625 -16.617188 16.921875 -14.535156 16.953125 -12.671875 C 16.984375 -10.816406 17.0625 -8.910156 17.1875 -6.953125 C 17.320312 -5.003906 17.484375 -2.6875 17.671875 0 L 6.71875 0 C 6.914062 -2.6875 7.078125 -5.003906 7.203125 -6.953125 C 7.328125 -8.910156 7.40625 -10.816406 7.4375 -12.671875 C 7.476562 -14.535156 7.5 -16.617188 7.5 -18.921875 L 7.5 -57.9375 C 7.5 -60.300781 7.476562 -62.394531 7.4375 -64.21875 C 7.40625 -66.050781 7.328125 -67.941406 7.203125 -69.890625 C 7.078125 -71.847656 6.914062 -74.171875 6.71875 -76.859375 L 24.5 -76.859375 C 28.789062 -76.859375 32.859375 -76.550781 36.703125 -75.9375 C 40.546875 -75.332031 43.957031 -74.273438 46.9375 -72.765625 C 49.914062 -71.265625 52.253906 -69.171875 53.953125 -66.484375 C 55.648438 -63.796875 56.5 -60.367188 56.5 -56.203125 C 56.5 -51.335938 55.375 -47.476562 53.125 -44.625 C 50.882812 -41.78125 47.859375 -39.679688 44.046875 -38.328125 C 40.234375 -36.984375 35.957031 -36.117188 31.21875 -35.734375 C 35.382812 -34.972656 39.179688 -33.3125 42.609375 -30.75 C 46.035156 -28.1875 48.898438 -24.019531 51.203125 -18.25 Z M 16.90625 -37.09375 L 24.40625 -37.09375 C 27.21875 -37.09375 29.953125 -37.378906 32.609375 -37.953125 C 35.273438 -38.523438 37.664062 -39.515625 39.78125 -40.921875 C 41.894531 -42.335938 43.570312 -44.273438 44.8125 -46.734375 C 46.0625 -49.203125 46.6875 -52.359375 46.6875 -56.203125 C 46.6875 -60.046875 46.0625 -63.203125 44.8125 -65.671875 C 43.570312 -68.140625 41.894531 -70.078125 39.78125 -71.484375 C 37.664062 -72.890625 35.273438 -73.878906 32.609375 -74.453125 C 29.953125 -75.035156 27.21875 -75.328125 24.40625 -75.328125 L 16.90625 -75.328125 Z M 16.90625 -37.09375 "/></g></g></g><g fill="#ffffff" fill-opacity="1"><g transform="translate(1418.36159, 727.277566)"><g><path d="M 55.71875 -10.28125 C 56.363281 -8.101562 56.957031 -6.304688 57.5 -4.890625 C 58.039062 -3.484375 58.796875 -1.851562 59.765625 0 L 47.75 0 C 47.6875 -2.175781 47.476562 -3.921875 47.125 -5.234375 C 46.769531 -6.546875 46.304688 -8.226562 45.734375 -10.28125 L 40.734375 -27.953125 L 14.984375 -27.953125 L 9.796875 -9.796875 C 9.285156 -8.003906 8.835938 -6.4375 8.453125 -5.09375 C 8.066406 -3.75 7.78125 -2.050781 7.59375 0 L 4.796875 0 C 5.890625 -2.113281 6.613281 -3.8125 6.96875 -5.09375 C 7.320312 -6.375 7.753906 -7.910156 8.265625 -9.703125 L 25.84375 -71.671875 C 26.101562 -72.703125 26.21875 -73.566406 26.1875 -74.265625 C 26.15625 -74.972656 25.976562 -75.835938 25.65625 -76.859375 L 36.984375 -76.859375 Z M 15.375 -29.5 L 40.359375 -29.5 L 27.859375 -73.59375 Z M 15.375 -29.5 "/></g></g></g><g fill="#ffffff" fill-opacity="1"><g transform="translate(1507.895915, 727.277566)"><g><path d="M 61.875 -76.859375 L 57.640625 -71.484375 C 53.546875 -73.148438 49.734375 -74.207031 46.203125 -74.65625 C 42.679688 -75.101562 39.867188 -75.328125 37.765625 -75.328125 L 36.609375 -75.328125 L 36.609375 -18.921875 C 36.609375 -16.617188 36.640625 -14.535156 36.703125 -12.671875 C 36.765625 -10.816406 36.84375 -8.910156 36.9375 -6.953125 C 37.039062 -5.003906 37.1875 -2.6875 37.375 0 L 26.421875 0 C 26.609375 -2.6875 26.75 -5.003906 26.84375 -6.953125 C 26.945312 -8.910156 27.03125 -10.816406 27.09375 -12.671875 C 27.15625 -14.535156 27.1875 -16.617188 27.1875 -18.921875 L 27.1875 -75.328125 L 26.03125 -75.328125 C 23.914062 -75.328125 21.113281 -75.101562 17.625 -74.65625 C 14.132812 -74.207031 10.3125 -73.148438 6.15625 -71.484375 L 1.921875 -76.859375 Z M 61.875 -76.859375 "/></g></g></g><g fill="#ffffff" fill-opacity="1"><g transform="translate(1596.661747, 727.277566)"><g><path d="M 6.71875 -76.859375 L 17.671875 -76.859375 C 17.484375 -74.171875 17.320312 -71.847656 17.1875 -69.890625 C 17.0625 -67.941406 16.984375 -66.050781 16.953125 -64.21875 C 16.921875 -62.394531 16.90625 -60.300781 16.90625 -57.9375 L 16.90625 -18.921875 C 16.90625 -16.617188 16.921875 -14.535156 16.953125 -12.671875 C 16.984375 -10.816406 17.0625 -8.910156 17.1875 -6.953125 C 17.320312 -5.003906 17.484375 -2.6875 17.671875 0 L 6.71875 0 C 6.914062 -2.6875 7.078125 -5.003906 7.203125 -6.953125 C 7.328125 -8.910156 7.40625 -10.816406 7.4375 -12.671875 C 7.476562 -14.535156 7.5 -16.617188 7.5 -18.921875 L 7.5 -57.9375 C 7.5 -60.300781 7.476562 -62.394531 7.4375 -64.21875 C 7.40625 -66.050781 7.328125 -67.941406 7.203125 -69.890625 C 7.078125 -71.847656 6.914062 -74.171875 6.71875 -76.859375 Z M 6.71875 -76.859375 "/></g></g></g><g fill="#ffffff" fill-opacity="1"><g transform="translate(1646.041255, 727.277566)"><g><path d="M 48.71875 1.921875 C 42.5625 1.921875 36.875 0.929688 31.65625 -1.046875 C 26.4375 -3.035156 21.890625 -5.820312 18.015625 -9.40625 C 14.140625 -13 11.128906 -17.257812 8.984375 -22.1875 C 6.835938 -27.125 5.765625 -32.539062 5.765625 -38.4375 C 5.765625 -44.320312 6.835938 -49.726562 8.984375 -54.65625 C 11.128906 -59.59375 14.140625 -63.851562 18.015625 -67.4375 C 21.890625 -71.03125 26.4375 -73.816406 31.65625 -75.796875 C 36.875 -77.785156 42.5625 -78.78125 48.71875 -78.78125 C 54.863281 -78.78125 60.546875 -77.785156 65.765625 -75.796875 C 70.984375 -73.816406 75.546875 -71.03125 79.453125 -67.4375 C 83.359375 -63.851562 86.382812 -59.59375 88.53125 -54.65625 C 90.675781 -49.726562 91.75 -44.320312 91.75 -38.4375 C 91.75 -32.539062 90.675781 -27.125 88.53125 -22.1875 C 86.382812 -17.257812 83.359375 -13 79.453125 -9.40625 C 75.546875 -5.820312 70.984375 -3.035156 65.765625 -1.046875 C 60.546875 0.929688 54.863281 1.921875 48.71875 1.921875 Z M 48.71875 0.390625 C 53.832031 0.390625 58.390625 -0.664062 62.390625 -2.78125 C 66.398438 -4.894531 69.828125 -7.773438 72.671875 -11.421875 C 75.523438 -15.078125 77.6875 -19.226562 79.15625 -23.875 C 80.632812 -28.519531 81.375 -33.375 81.375 -38.4375 C 81.375 -43.488281 80.632812 -48.335938 79.15625 -52.984375 C 77.6875 -57.628906 75.523438 -61.773438 72.671875 -65.421875 C 69.828125 -69.078125 66.398438 -71.960938 62.390625 -74.078125 C 58.390625 -76.191406 53.832031 -77.25 48.71875 -77.25 C 43.65625 -77.25 39.101562 -76.191406 35.0625 -74.078125 C 31.03125 -71.960938 27.601562 -69.078125 24.78125 -65.421875 C 21.96875 -61.773438 19.820312 -57.628906 18.34375 -52.984375 C 16.875 -48.335938 16.140625 -43.488281 16.140625 -38.4375 C 16.140625 -33.375 16.875 -28.519531 18.34375 -23.875 C 19.820312 -19.226562 21.96875 -15.078125 24.78125 -11.421875 C 27.601562 -7.773438 31.03125 -4.894531 35.0625 -2.78125 C 39.101562 -0.664062 43.65625 0.390625 48.71875 0.390625 Z M 48.71875 0.390625 "/></g></g></g><g fill="#ffffff" fill-opacity="1"><g transform="translate(1768.525636, 727.277566)"><g><path d="M 63.984375 -57.9375 L 63.984375 -18.921875 C 63.984375 -16.617188 64 -14.535156 64.03125 -12.671875 C 64.0625 -10.816406 64.140625 -8.910156 64.265625 -6.953125 C 64.398438 -5.003906 64.5625 -2.6875 64.75 0 L 53.90625 0 L 8.84375 -73.109375 L 8.84375 -18.921875 C 8.84375 -16.617188 8.859375 -14.535156 8.890625 -12.671875 C 8.921875 -10.816406 9 -8.910156 9.125 -6.953125 C 9.25 -5.003906 9.410156 -2.6875 9.609375 0 L 6.71875 0 C 6.914062 -2.6875 7.078125 -5.003906 7.203125 -6.953125 C 7.328125 -8.910156 7.40625 -10.816406 7.4375 -12.671875 C 7.476562 -14.535156 7.5 -16.617188 7.5 -18.921875 L 7.5 -57.9375 C 7.5 -60.300781 7.476562 -62.394531 7.4375 -64.21875 C 7.40625 -66.050781 7.328125 -67.941406 7.203125 -69.890625 C 7.078125 -71.847656 6.914062 -74.171875 6.71875 -76.859375 L 17.578125 -76.859375 L 62.640625 -3.75 L 62.640625 -57.9375 C 62.640625 -60.300781 62.625 -62.394531 62.59375 -64.21875 C 62.5625 -66.050781 62.5 -67.941406 62.40625 -69.890625 C 62.3125 -71.847656 62.132812 -74.171875 61.875 -76.859375 L 64.75 -76.859375 C 64.5625 -74.171875 64.398438 -71.847656 64.265625 -69.890625 C 64.140625 -67.941406 64.0625 -66.050781 64.03125 -64.21875 C 64 -62.394531 63.984375 -60.300781 63.984375 -57.9375 Z M 63.984375 -57.9375 "/></g></g></g></svg>