<svg xmlns="http://www.w3.org/2000/svg" xmlns:xlink="http://www.w3.org/1999/xlink" width="2500" zoomAndPan="magnify" viewBox="0 0 1874.88 1124.99995" height="1500" preserveAspectRatio="xMidYMid meet" version="1.0"><defs><g/><clipPath id="b024f3e95a"><path d="M 464 315 L 476 315 L 476 532.589844 L 464 532.589844 Z M 464 315 " clip-rule="nonzero"/></clipPath><clipPath id="db5d2188bb"><path d="M 290 257 L 475 257 L 475 532.589844 L 290 532.589844 Z M 290 257 " clip-rule="nonzero"/></clipPath></defs><path fill="#ffffff" d="M 130.941406 353.367188 L 76.617188 323.183594 C 64.410156 316.402344 53.5 335.089844 65.695312 341.863281 L 120.023438 372.050781 C 132.230469 378.832031 143.136719 360.144531 130.941406 353.367188 Z M 130.941406 353.367188 " fill-opacity="1" fill-rule="nonzero"/><path fill="#ffffff" d="M 278.519531 211.003906 L 248.941406 158.625 C 242.082031 146.480469 223.390625 157.378906 230.261719 169.542969 L 259.835938 221.925781 C 266.695312 234.070312 285.386719 223.171875 278.519531 211.003906 Z M 278.519531 211.003906 " fill-opacity="1" fill-rule="nonzero"/><path fill="#ffffff" d="M 480.40625 163.476562 L 480.40625 102.546875 C 480.40625 88.59375 458.773438 88.59375 458.773438 102.546875 L 458.773438 163.476562 C 458.773438 177.429688 480.40625 177.429688 480.40625 163.476562 Z M 480.40625 163.476562 " fill-opacity="1" fill-rule="nonzero"/><path fill="#ffffff" d="M 679.710938 223.648438 L 708.902344 169.542969 C 715.527344 157.269531 696.847656 146.34375 690.222656 158.625 L 661.027344 212.730469 C 654.402344 225.003906 673.082031 235.929688 679.710938 223.648438 Z M 679.710938 223.648438 " fill-opacity="1" fill-rule="nonzero"/><path fill="#ffffff" d="M 819.90625 373.769531 L 873.453125 341.859375 C 885.421875 334.726562 874.550781 316.019531 862.53125 323.179688 L 808.984375 355.089844 C 797.015625 362.222656 807.890625 380.929688 819.90625 373.769531 Z M 819.90625 373.769531 " fill-opacity="1" fill-rule="nonzero"/><g clip-path="url(#b024f3e95a)"><path fill="#ffffff" d="M 475.777344 563.554688 L 475.777344 320.546875 C 475.777344 313.574219 464.960938 313.574219 464.960938 320.546875 L 464.960938 563.554688 C 464.960938 570.527344 475.777344 570.527344 475.777344 563.554688 Z M 475.777344 563.554688 " fill-opacity="1" fill-rule="nonzero"/></g><g clip-path="url(#db5d2188bb)"><path fill="#ffffff" d="M 473.308594 559.21875 L 313.078125 281.964844 L 300.257812 259.785156 C 296.769531 253.746094 287.417969 259.191406 290.917969 265.242188 L 451.148438 542.496094 L 463.96875 564.675781 C 467.457031 570.710938 476.804688 565.265625 473.308594 559.21875 Z M 473.308594 559.21875 " fill-opacity="1" fill-rule="nonzero"/></g><g fill="#d20a0f" fill-opacity="1"><g transform="translate(178.926322, 822.434057)"><g><path d="M 200.484375 -47.015625 C 200.484375 -46.847656 199.101562 -45.054688 196.34375 -41.640625 C 193.582031 -38.234375 189.640625 -34.015625 184.515625 -28.984375 C 179.398438 -23.953125 173.1875 -18.957031 165.875 -14 C 158.570312 -9.050781 150.25 -4.910156 140.90625 -1.578125 C 131.570312 1.742188 121.46875 3.40625 110.59375 3.40625 C 98.570312 3.40625 87.039062 1.296875 76 -2.921875 C 48.226562 -13.148438 28.695312 -28.898438 17.40625 -50.171875 C 6.125 -71.453125 3.8125 -96.789062 10.46875 -126.1875 C 13.5625 -139.5 18.3125 -152.9375 24.71875 -166.5 C 31.132812 -180.0625 38.765625 -193.09375 47.609375 -205.59375 C 56.460938 -218.09375 66.003906 -229.660156 76.234375 -240.296875 C 86.472656 -250.941406 96.953125 -260.160156 107.671875 -267.953125 C 118.390625 -275.742188 128.941406 -281.628906 139.328125 -285.609375 C 149.722656 -289.585938 159.390625 -291.171875 168.328125 -290.359375 C 183.429688 -290.035156 195.9375 -284.109375 205.84375 -272.578125 C 207.789062 -269.984375 210.347656 -268.117188 213.515625 -266.984375 C 216.679688 -265.847656 219.882812 -265.601562 223.125 -266.25 C 232.875 -268.6875 242.78125 -269.984375 252.84375 -270.140625 C 254.632812 -270.140625 256.175781 -269.53125 257.46875 -268.3125 C 258.769531 -267.09375 259.421875 -265.59375 259.421875 -263.8125 C 259.421875 -262.019531 258.769531 -260.515625 257.46875 -259.296875 C 256.175781 -258.085938 254.71875 -257.484375 253.09375 -257.484375 C 241.238281 -257.316406 229.707031 -255.445312 218.5 -251.875 C 215.25 -250.738281 213.707031 -248.46875 213.875 -245.0625 C 213.382812 -236.9375 211.429688 -228.53125 208.015625 -219.84375 C 204.609375 -211.15625 200.265625 -202.75 194.984375 -194.625 C 189.710938 -186.507812 183.828125 -179.203125 177.328125 -172.703125 C 170.835938 -166.210938 164.140625 -160.976562 157.234375 -157 C 150.335938 -153.019531 143.640625 -150.945312 137.140625 -150.78125 C 129.671875 -149.96875 123.828125 -152.726562 119.609375 -159.0625 C 114.734375 -167.019531 116.4375 -178.390625 124.71875 -193.171875 C 140.46875 -218.992188 161.742188 -238.882812 188.546875 -252.84375 C 191.785156 -254.632812 193.648438 -257.394531 194.140625 -261.125 C 194.460938 -265.03125 193.164062 -268.117188 190.25 -270.390625 C 183.101562 -274.929688 175.390625 -277.367188 167.109375 -277.703125 C 159.796875 -278.347656 151.59375 -276.882812 142.5 -273.3125 C 133.40625 -269.738281 123.984375 -264.378906 114.234375 -257.234375 C 104.492188 -250.085938 94.875 -241.601562 85.375 -231.78125 C 75.875 -221.957031 66.941406 -211.195312 58.578125 -199.5 C 50.222656 -187.8125 42.957031 -175.507812 36.78125 -162.59375 C 30.613281 -149.6875 25.984375 -136.578125 22.890625 -123.265625 C 20.941406 -114.160156 19.925781 -104.492188 19.84375 -94.265625 C 19.769531 -84.035156 21.519531 -73.96875 25.09375 -64.0625 C 28.664062 -54.15625 34.875 -44.9375 43.71875 -36.40625 C 52.570312 -27.882812 64.796875 -20.785156 80.390625 -15.109375 C 91.265625 -11.046875 101.492188 -9.09375 111.078125 -9.25 C 120.660156 -9.414062 129.46875 -10.921875 137.5 -13.765625 C 145.539062 -16.609375 152.726562 -20.179688 159.0625 -24.484375 C 165.394531 -28.785156 170.796875 -33.128906 175.265625 -37.515625 C 179.734375 -41.898438 183.222656 -45.632812 185.734375 -48.71875 C 188.253906 -51.800781 189.675781 -53.585938 190 -54.078125 C 190.976562 -55.535156 192.316406 -56.425781 194.015625 -56.75 C 195.722656 -57.082031 197.304688 -56.757812 198.765625 -55.78125 C 200.234375 -54.8125 201.128906 -53.472656 201.453125 -51.765625 C 201.773438 -50.054688 201.453125 -48.472656 200.484375 -47.015625 Z M 136.90625 -163.6875 C 141.9375 -163.851562 147.492188 -165.882812 153.578125 -169.78125 C 159.671875 -173.675781 165.722656 -178.832031 171.734375 -185.25 C 177.742188 -191.664062 183.144531 -198.8125 187.9375 -206.6875 C 192.726562 -214.5625 196.257812 -222.476562 198.53125 -230.4375 C 199.34375 -233.519531 198.53125 -235.957031 196.09375 -237.75 C 193.65625 -239.695312 191.054688 -239.859375 188.296875 -238.234375 C 166.535156 -225.566406 149.078125 -208.515625 135.921875 -187.078125 C 132.835938 -181.554688 130.96875 -176.96875 130.3125 -173.3125 C 129.664062 -169.664062 129.75 -167.109375 130.5625 -165.640625 C 131.050781 -164.828125 131.941406 -164.296875 133.234375 -164.046875 C 134.535156 -163.804688 135.757812 -163.6875 136.90625 -163.6875 Z M 136.90625 -163.6875 "/></g></g></g><g fill="#d20a0f" fill-opacity="1"><g transform="translate(394.712676, 822.434057)"><g><path d="M 214.125 -91.828125 C 208.4375 -80.140625 201.816406 -68.53125 194.265625 -57 C 186.710938 -45.46875 178.347656 -34.546875 169.171875 -24.234375 C 159.992188 -13.921875 150.128906 -4.828125 139.578125 3.046875 C 129.023438 10.921875 117.941406 17.128906 106.328125 21.671875 C 94.710938 26.222656 82.65625 28.5 70.15625 28.5 C 62.363281 28.5 54.648438 27.523438 47.015625 25.578125 C 39.378906 23.953125 32.757812 20.617188 27.15625 15.578125 C 21.550781 10.546875 17.453125 4.5 14.859375 -2.5625 C 12.265625 -9.625 11.535156 -16.972656 12.671875 -24.609375 C 13.640625 -33.859375 16.84375 -43.757812 22.28125 -54.3125 C 27.726562 -64.875 35.644531 -75.472656 46.03125 -86.109375 C 56.425781 -96.742188 69.582031 -106.851562 85.5 -116.4375 C 101.414062 -126.019531 120.296875 -134.585938 142.140625 -142.140625 C 163.984375 -149.691406 188.953125 -155.492188 217.046875 -159.546875 C 219.640625 -159.878906 221.867188 -160.894531 223.734375 -162.59375 C 225.609375 -164.300781 226.785156 -166.453125 227.265625 -169.046875 C 231.328125 -189.347656 232.097656 -207.414062 229.578125 -223.25 C 227.066406 -239.082031 221.179688 -250.570312 211.921875 -257.71875 C 209.484375 -259.664062 206.359375 -260.191406 202.546875 -259.296875 C 198.734375 -258.410156 194.59375 -256.707031 190.125 -254.1875 C 185.65625 -251.675781 181.226562 -248.957031 176.84375 -246.03125 C 169.695312 -241.476562 162.753906 -237.535156 156.015625 -234.203125 C 149.273438 -230.878906 142.90625 -230.191406 136.90625 -232.140625 C 129.914062 -234.742188 125.285156 -239.617188 123.015625 -246.765625 C 122.367188 -248.390625 122.410156 -250.007812 123.140625 -251.625 C 123.867188 -253.25 125.046875 -254.390625 126.671875 -255.046875 C 128.296875 -255.691406 129.914062 -255.648438 131.53125 -254.921875 C 133.15625 -254.191406 134.296875 -253.015625 134.953125 -251.390625 C 136.085938 -248.460938 137.222656 -246.59375 138.359375 -245.78125 C 139.492188 -244.96875 140.304688 -244.484375 140.796875 -244.328125 C 143.878906 -243.347656 148.140625 -244.316406 153.578125 -247.234375 C 159.023438 -250.160156 164.425781 -253.332031 169.78125 -256.75 C 175.300781 -260.320312 180.984375 -263.648438 186.828125 -266.734375 C 192.679688 -269.816406 198.40625 -271.722656 204 -272.453125 C 209.601562 -273.191406 214.84375 -271.609375 219.71875 -267.703125 C 227.507812 -261.859375 233.3125 -254.0625 237.125 -244.3125 C 240.945312 -234.570312 243.101562 -223.613281 243.59375 -211.4375 C 244.082031 -199.257812 243.191406 -186.429688 240.921875 -172.953125 C 240.429688 -170.191406 241.160156 -167.835938 243.109375 -165.890625 C 244.890625 -163.941406 247.160156 -163.046875 249.921875 -163.203125 C 256.253906 -163.691406 262.671875 -164.097656 269.171875 -164.421875 C 270.953125 -164.585938 272.492188 -164.0625 273.796875 -162.84375 C 275.097656 -161.625 275.828125 -160.203125 275.984375 -158.578125 C 275.984375 -156.796875 275.414062 -155.253906 274.28125 -153.953125 C 273.144531 -152.648438 271.6875 -151.921875 269.90625 -151.765625 C 260.96875 -151.273438 252.195312 -150.625 243.59375 -149.8125 C 238.238281 -149.320312 234.828125 -146.476562 233.359375 -141.28125 C 228.328125 -124.226562 221.914062 -107.742188 214.125 -91.828125 Z M 202.671875 -97.4375 C 208.679688 -109.457031 213.878906 -121.878906 218.265625 -134.703125 C 219.234375 -137.628906 218.664062 -140.226562 216.5625 -142.5 C 214.601562 -144.9375 212.082031 -145.832031 209 -145.1875 C 183.832031 -140.957031 161.460938 -135.3125 141.890625 -128.25 C 122.328125 -121.1875 105.398438 -113.269531 91.109375 -104.5 C 76.816406 -95.726562 64.957031 -86.59375 55.53125 -77.09375 C 46.113281 -67.59375 38.925781 -58.210938 33.96875 -48.953125 C 29.019531 -39.703125 26.222656 -31.179688 25.578125 -23.390625 C 24.441406 -17.703125 24.804688 -12.300781 26.671875 -7.1875 C 28.535156 -2.070312 31.5 2.3125 35.5625 5.96875 C 39.625 9.625 44.5 12.019531 50.1875 13.15625 C 63.007812 16.5625 75.550781 16.882812 87.8125 14.125 C 100.070312 11.363281 111.804688 6.332031 123.015625 -0.96875 C 134.222656 -8.28125 144.738281 -17.09375 154.5625 -27.40625 C 164.382812 -37.71875 173.351562 -48.878906 181.46875 -60.890625 C 189.59375 -72.910156 196.660156 -85.09375 202.671875 -97.4375 Z M 202.671875 -97.4375 "/></g></g></g><g fill="#ffffff" fill-opacity="1"><g transform="translate(940.032747, 540.873621)"><g><path d="M 7.21875 -80.15625 L 18.640625 -80.15625 C 18.441406 -77.351562 18.273438 -74.929688 18.140625 -72.890625 C 18.003906 -70.859375 17.921875 -68.890625 17.890625 -66.984375 C 17.859375 -65.078125 17.84375 -62.890625 17.84375 -60.421875 L 17.84375 -1.609375 L 26.25 -1.609375 C 29.59375 -1.609375 32.664062 -1.691406 35.46875 -1.859375 C 38.28125 -2.023438 41.171875 -2.390625 44.140625 -2.953125 C 47.109375 -3.523438 50.460938 -4.34375 54.203125 -5.40625 L 51.296875 0 L 7.015625 0 C 7.285156 -2.800781 7.484375 -5.222656 7.609375 -7.265625 C 7.742188 -9.304688 7.84375 -11.289062 7.90625 -13.21875 C 7.976562 -15.15625 8.015625 -17.328125 8.015625 -19.734375 L 8.015625 -60.421875 C 8.015625 -62.890625 8 -65.078125 7.96875 -66.984375 C 7.9375 -68.890625 7.851562 -70.859375 7.71875 -72.890625 C 7.582031 -74.929688 7.414062 -77.351562 7.21875 -80.15625 Z M 7.21875 -80.15625 "/></g></g></g><g fill="#ffffff" fill-opacity="1"><g transform="translate(1024.304085, 540.873621)"><g><path d="M 6.015625 -80.15625 L 17.4375 -80.15625 C 17.238281 -77.351562 17.070312 -74.929688 16.9375 -72.890625 C 16.800781 -70.859375 16.71875 -68.890625 16.6875 -66.984375 C 16.65625 -65.078125 16.640625 -62.890625 16.640625 -60.421875 L 16.640625 -34.0625 C 16.640625 -22.175781 18.390625 -13.609375 21.890625 -8.359375 C 25.398438 -3.117188 31.097656 -0.5 38.984375 -0.5 C 44.117188 -0.5 48.40625 -1.566406 51.84375 -3.703125 C 55.289062 -5.835938 57.898438 -9.359375 59.671875 -14.265625 C 61.441406 -19.179688 62.328125 -25.78125 62.328125 -34.0625 L 62.328125 -60.421875 C 62.328125 -62.890625 62.304688 -65.078125 62.265625 -66.984375 C 62.234375 -68.890625 62.164062 -70.859375 62.0625 -72.890625 C 61.96875 -74.929688 61.789062 -77.351562 61.53125 -80.15625 L 64.734375 -80.15625 C 64.535156 -77.351562 64.367188 -74.929688 64.234375 -72.890625 C 64.097656 -70.859375 64.007812 -68.890625 63.96875 -66.984375 C 63.9375 -65.078125 63.921875 -62.890625 63.921875 -60.421875 L 63.921875 -34.0625 C 63.921875 -25.3125 62.9375 -18.296875 60.96875 -13.015625 C 59 -7.742188 56.039062 -3.921875 52.09375 -1.546875 C 48.15625 0.816406 43.21875 2 37.28125 2 C 32.601562 2 28.390625 1.445312 24.640625 0.34375 C 20.898438 -0.75 17.691406 -2.628906 15.015625 -5.296875 C 12.347656 -7.972656 10.3125 -11.648438 8.90625 -16.328125 C 7.507812 -21.003906 6.8125 -26.914062 6.8125 -34.0625 L 6.8125 -60.421875 C 6.8125 -62.890625 6.796875 -65.078125 6.765625 -66.984375 C 6.734375 -68.890625 6.648438 -70.859375 6.515625 -72.890625 C 6.378906 -74.929688 6.210938 -77.351562 6.015625 -80.15625 Z M 6.015625 -80.15625 "/></g></g></g><g fill="#ffffff" fill-opacity="1"><g transform="translate(1121.100483, 540.873621)"><g><path d="M 52.609375 -9.125 C 53.546875 -7.3125 54.347656 -5.820312 55.015625 -4.65625 C 55.679688 -3.488281 56.75 -1.9375 58.21875 0 L 45.296875 0 C 44.628906 -1.9375 44.0625 -3.488281 43.59375 -4.65625 C 43.125 -5.820312 42.421875 -7.3125 41.484375 -9.125 L 27.453125 -36.46875 L 12.625 -9.125 C 11.625 -7.25 10.835938 -5.742188 10.265625 -4.609375 C 9.703125 -3.472656 8.984375 -1.9375 8.109375 0 L 5.109375 0 C 6.109375 -1.332031 6.890625 -2.445312 7.453125 -3.34375 C 8.023438 -4.25 8.546875 -5.132812 9.015625 -6 C 9.484375 -6.875 10.050781 -7.914062 10.71875 -9.125 L 26.546875 -38.171875 L 9.71875 -71.046875 C 9.113281 -72.242188 8.5625 -73.273438 8.0625 -74.140625 C 7.5625 -75.015625 7.007812 -75.921875 6.40625 -76.859375 C 5.8125 -77.796875 5.015625 -78.894531 4.015625 -80.15625 L 16.9375 -80.15625 C 17.539062 -78.21875 18.109375 -76.664062 18.640625 -75.5 C 19.171875 -74.332031 19.867188 -72.847656 20.734375 -71.046875 L 34.765625 -43.6875 L 49.5 -70.640625 C 50.570312 -72.648438 51.40625 -74.253906 52 -75.453125 C 52.601562 -76.648438 53.304688 -78.21875 54.109375 -80.15625 L 57.109375 -80.15625 C 56.179688 -78.894531 55.414062 -77.796875 54.8125 -76.859375 C 54.207031 -75.921875 53.65625 -74.984375 53.15625 -74.046875 C 52.65625 -73.109375 52.035156 -71.972656 51.296875 -70.640625 L 35.671875 -41.984375 Z M 52.609375 -9.125 "/></g></g></g><g fill="#ffffff" fill-opacity="1"><g transform="translate(1209.37984, 540.873621)"><g><path d="M 6.015625 -80.15625 L 17.4375 -80.15625 C 17.238281 -77.351562 17.070312 -74.929688 16.9375 -72.890625 C 16.800781 -70.859375 16.71875 -68.890625 16.6875 -66.984375 C 16.65625 -65.078125 16.640625 -62.890625 16.640625 -60.421875 L 16.640625 -34.0625 C 16.640625 -22.175781 18.390625 -13.609375 21.890625 -8.359375 C 25.398438 -3.117188 31.097656 -0.5 38.984375 -0.5 C 44.117188 -0.5 48.40625 -1.566406 51.84375 -3.703125 C 55.289062 -5.835938 57.898438 -9.359375 59.671875 -14.265625 C 61.441406 -19.179688 62.328125 -25.78125 62.328125 -34.0625 L 62.328125 -60.421875 C 62.328125 -62.890625 62.304688 -65.078125 62.265625 -66.984375 C 62.234375 -68.890625 62.164062 -70.859375 62.0625 -72.890625 C 61.96875 -74.929688 61.789062 -77.351562 61.53125 -80.15625 L 64.734375 -80.15625 C 64.535156 -77.351562 64.367188 -74.929688 64.234375 -72.890625 C 64.097656 -70.859375 64.007812 -68.890625 63.96875 -66.984375 C 63.9375 -65.078125 63.921875 -62.890625 63.921875 -60.421875 L 63.921875 -34.0625 C 63.921875 -25.3125 62.9375 -18.296875 60.96875 -13.015625 C 59 -7.742188 56.039062 -3.921875 52.09375 -1.546875 C 48.15625 0.816406 43.21875 2 37.28125 2 C 32.601562 2 28.390625 1.445312 24.640625 0.34375 C 20.898438 -0.75 17.691406 -2.628906 15.015625 -5.296875 C 12.347656 -7.972656 10.3125 -11.648438 8.90625 -16.328125 C 7.507812 -21.003906 6.8125 -26.914062 6.8125 -34.0625 L 6.8125 -60.421875 C 6.8125 -62.890625 6.796875 -65.078125 6.765625 -66.984375 C 6.734375 -68.890625 6.648438 -70.859375 6.515625 -72.890625 C 6.378906 -74.929688 6.210938 -77.351562 6.015625 -80.15625 Z M 6.015625 -80.15625 "/></g></g></g><g fill="#ffffff" fill-opacity="1"><g transform="translate(1306.176237, 540.873621)"><g><path d="M 53.40625 -19.03125 C 55.144531 -14.5625 56.863281 -11.054688 58.5625 -8.515625 C 60.269531 -5.972656 62.222656 -4.164062 64.421875 -3.09375 C 66.628906 -2.03125 69.269531 -1.5 72.34375 -1.5 L 72.34375 0 C 66.863281 0 62.269531 -0.550781 58.5625 -1.65625 C 54.851562 -2.757812 51.8125 -4.644531 49.4375 -7.3125 C 47.070312 -9.988281 45.054688 -13.664062 43.390625 -18.34375 C 41.515625 -23.613281 39.523438 -27.582031 37.421875 -30.25 C 35.316406 -32.925781 32.960938 -34.734375 30.359375 -35.671875 C 27.753906 -36.609375 24.71875 -37.078125 21.25 -37.078125 L 17.640625 -37.078125 L 17.640625 -19.734375 C 17.640625 -17.328125 17.65625 -15.15625 17.6875 -13.21875 C 17.71875 -11.289062 17.800781 -9.304688 17.9375 -7.265625 C 18.070312 -5.222656 18.238281 -2.800781 18.4375 0 L 7.015625 0 C 7.210938 -2.800781 7.378906 -5.222656 7.515625 -7.265625 C 7.648438 -9.304688 7.734375 -11.289062 7.765625 -13.21875 C 7.796875 -15.15625 7.8125 -17.328125 7.8125 -19.734375 L 7.8125 -60.421875 C 7.8125 -62.890625 7.796875 -65.078125 7.765625 -66.984375 C 7.734375 -68.890625 7.648438 -70.859375 7.515625 -72.890625 C 7.378906 -74.929688 7.210938 -77.351562 7.015625 -80.15625 L 25.546875 -80.15625 C 30.023438 -80.15625 34.269531 -79.835938 38.28125 -79.203125 C 42.289062 -78.578125 45.847656 -77.476562 48.953125 -75.90625 C 52.054688 -74.332031 54.492188 -72.140625 56.265625 -69.328125 C 58.035156 -66.523438 58.921875 -62.957031 58.921875 -58.625 C 58.921875 -53.539062 57.75 -49.507812 55.40625 -46.53125 C 53.070312 -43.5625 49.914062 -41.375 45.9375 -39.96875 C 41.96875 -38.570312 37.507812 -37.675781 32.5625 -37.28125 C 36.90625 -36.476562 40.863281 -34.738281 44.4375 -32.0625 C 48.007812 -29.394531 51 -25.050781 53.40625 -19.03125 Z M 17.640625 -38.671875 L 25.453125 -38.671875 C 28.390625 -38.671875 31.242188 -38.972656 34.015625 -39.578125 C 36.785156 -40.179688 39.273438 -41.21875 41.484375 -42.6875 C 43.691406 -44.15625 45.445312 -46.175781 46.75 -48.75 C 48.050781 -51.320312 48.703125 -54.613281 48.703125 -58.625 C 48.703125 -62.625 48.050781 -65.910156 46.75 -68.484375 C 45.445312 -71.054688 43.691406 -73.078125 41.484375 -74.546875 C 39.273438 -76.015625 36.785156 -77.050781 34.015625 -77.65625 C 31.242188 -78.257812 28.390625 -78.5625 25.453125 -78.5625 L 17.640625 -78.5625 Z M 17.640625 -38.671875 "/></g></g></g><g fill="#ffffff" fill-opacity="1"><g transform="translate(1408.283268, 540.873621)"><g><path d="M 58.8125 -70.84375 L 40.28125 -34.5625 L 40.28125 -19.734375 C 40.28125 -17.328125 40.296875 -15.15625 40.328125 -13.21875 C 40.359375 -11.289062 40.425781 -9.304688 40.53125 -7.265625 C 40.632812 -5.222656 40.785156 -2.800781 40.984375 0 L 29.5625 0 C 29.820312 -2.800781 30.003906 -5.222656 30.109375 -7.265625 C 30.210938 -9.304688 30.28125 -11.289062 30.3125 -13.21875 C 30.34375 -15.15625 30.359375 -17.328125 30.359375 -19.734375 L 30.359375 -34.5625 L 11.21875 -70.75 C 10.21875 -72.6875 9.300781 -74.285156 8.46875 -75.546875 C 7.632812 -76.816406 6.484375 -78.351562 5.015625 -80.15625 L 18.140625 -80.15625 C 18.804688 -78.21875 19.4375 -76.628906 20.03125 -75.390625 C 20.632812 -74.160156 21.441406 -72.613281 22.453125 -70.75 L 39.984375 -37.671875 L 57.109375 -70.75 C 58.117188 -72.6875 58.90625 -74.253906 59.46875 -75.453125 C 60.039062 -76.648438 60.726562 -78.21875 61.53125 -80.15625 L 64.234375 -80.15625 C 62.960938 -78.21875 61.972656 -76.628906 61.265625 -75.390625 C 60.566406 -74.160156 59.75 -72.644531 58.8125 -70.84375 Z M 58.8125 -70.84375 "/></g></g></g><g fill="#ffffff" fill-opacity="1"><g transform="translate(1503.586494, 540.873621)"><g/></g></g><g fill="#ffffff" fill-opacity="1"><g transform="translate(685.224844, 740.360844)"><g><path d="M 80.859375 -33.375 L 82.265625 -33.375 C 80.734375 -26.289062 78.410156 -20.09375 75.296875 -14.78125 C 72.191406 -9.46875 68.179688 -5.34375 63.265625 -2.40625 C 58.359375 0.53125 52.46875 2 45.59375 2 C 39.382812 2 33.820312 0.914062 28.90625 -1.25 C 24 -3.425781 19.84375 -6.46875 16.4375 -10.375 C 13.03125 -14.28125 10.441406 -18.851562 8.671875 -24.09375 C 6.898438 -29.34375 6.015625 -35.003906 6.015625 -41.078125 C 6.015625 -47.160156 7.03125 -52.722656 9.0625 -57.765625 C 11.101562 -62.804688 13.910156 -67.144531 17.484375 -70.78125 C 21.054688 -74.425781 25.25 -77.234375 30.0625 -79.203125 C 34.875 -81.179688 40.015625 -82.171875 45.484375 -82.171875 C 53.234375 -82.171875 59.78125 -80.25 65.125 -76.40625 C 70.46875 -72.5625 74.847656 -67.203125 78.265625 -60.328125 L 68.234375 -57.609375 C 67.234375 -61.890625 65.765625 -65.75 63.828125 -69.1875 C 61.890625 -72.625 59.414062 -75.378906 56.40625 -77.453125 C 53.40625 -79.523438 49.765625 -80.5625 45.484375 -80.5625 C 41.078125 -80.5625 37.117188 -79.554688 33.609375 -77.546875 C 30.109375 -75.546875 27.101562 -72.757812 24.59375 -69.1875 C 22.09375 -65.613281 20.171875 -61.472656 18.828125 -56.765625 C 17.492188 -52.054688 16.828125 -47.03125 16.828125 -41.6875 C 16.828125 -36.207031 17.445312 -31.03125 18.6875 -26.15625 C 19.925781 -21.28125 21.828125 -16.953125 24.390625 -13.171875 C 26.960938 -9.398438 30.21875 -6.425781 34.15625 -4.25 C 38.101562 -2.082031 42.75 -1 48.09375 -1 C 53.976562 -1 59.085938 -2.332031 63.421875 -5 C 67.765625 -7.675781 71.390625 -11.4375 74.296875 -16.28125 C 77.203125 -21.125 79.390625 -26.820312 80.859375 -33.375 Z M 80.859375 -33.375 "/></g></g></g><g fill="#ffffff" fill-opacity="1"><g transform="translate(797.552329, 740.360844)"><g><path d="M 50.796875 2 C 44.390625 2 38.460938 0.96875 33.015625 -1.09375 C 27.566406 -3.164062 22.820312 -6.070312 18.78125 -9.8125 C 14.738281 -13.5625 11.597656 -18.003906 9.359375 -23.140625 C 7.128906 -28.285156 6.015625 -33.929688 6.015625 -40.078125 C 6.015625 -46.222656 7.128906 -51.867188 9.359375 -57.015625 C 11.597656 -62.160156 14.738281 -66.601562 18.78125 -70.34375 C 22.820312 -74.082031 27.566406 -76.988281 33.015625 -79.0625 C 38.460938 -81.132812 44.390625 -82.171875 50.796875 -82.171875 C 57.210938 -82.171875 63.140625 -81.132812 68.578125 -79.0625 C 74.023438 -76.988281 78.785156 -74.082031 82.859375 -70.34375 C 86.941406 -66.601562 90.097656 -62.160156 92.328125 -57.015625 C 94.566406 -51.867188 95.6875 -46.222656 95.6875 -40.078125 C 95.6875 -33.929688 94.566406 -28.285156 92.328125 -23.140625 C 90.097656 -18.003906 86.941406 -13.5625 82.859375 -9.8125 C 78.785156 -6.070312 74.023438 -3.164062 68.578125 -1.09375 C 63.140625 0.96875 57.210938 2 50.796875 2 Z M 50.796875 0.40625 C 56.140625 0.40625 60.898438 -0.695312 65.078125 -2.90625 C 69.253906 -5.113281 72.828125 -8.117188 75.796875 -11.921875 C 78.773438 -15.734375 81.03125 -20.0625 82.5625 -24.90625 C 84.101562 -29.75 84.875 -34.804688 84.875 -40.078125 C 84.875 -45.359375 84.101562 -50.421875 82.5625 -55.265625 C 81.03125 -60.109375 78.773438 -64.429688 75.796875 -68.234375 C 72.828125 -72.046875 69.253906 -75.050781 65.078125 -77.25 C 60.898438 -79.457031 56.140625 -80.5625 50.796875 -80.5625 C 45.523438 -80.5625 40.785156 -79.457031 36.578125 -77.25 C 32.367188 -75.050781 28.789062 -72.046875 25.84375 -68.234375 C 22.90625 -64.429688 20.664062 -60.109375 19.125 -55.265625 C 17.59375 -50.421875 16.828125 -45.359375 16.828125 -40.078125 C 16.828125 -34.804688 17.59375 -29.75 19.125 -24.90625 C 20.664062 -20.0625 22.90625 -15.734375 25.84375 -11.921875 C 28.789062 -8.117188 32.367188 -5.113281 36.578125 -2.90625 C 40.785156 -0.695312 45.523438 0.40625 50.796875 0.40625 Z M 50.796875 0.40625 "/></g></g></g><g fill="#ffffff" fill-opacity="1"><g transform="translate(925.310704, 740.360844)"><g><path d="M 53.40625 -19.03125 C 55.144531 -14.5625 56.863281 -11.054688 58.5625 -8.515625 C 60.269531 -5.972656 62.222656 -4.164062 64.421875 -3.09375 C 66.628906 -2.03125 69.269531 -1.5 72.34375 -1.5 L 72.34375 0 C 66.863281 0 62.269531 -0.550781 58.5625 -1.65625 C 54.851562 -2.757812 51.8125 -4.644531 49.4375 -7.3125 C 47.070312 -9.988281 45.054688 -13.664062 43.390625 -18.34375 C 41.515625 -23.613281 39.523438 -27.582031 37.421875 -30.25 C 35.316406 -32.925781 32.960938 -34.734375 30.359375 -35.671875 C 27.753906 -36.609375 24.71875 -37.078125 21.25 -37.078125 L 17.640625 -37.078125 L 17.640625 -19.734375 C 17.640625 -17.328125 17.65625 -15.15625 17.6875 -13.21875 C 17.71875 -11.289062 17.800781 -9.304688 17.9375 -7.265625 C 18.070312 -5.222656 18.238281 -2.800781 18.4375 0 L 7.015625 0 C 7.210938 -2.800781 7.378906 -5.222656 7.515625 -7.265625 C 7.648438 -9.304688 7.734375 -11.289062 7.765625 -13.21875 C 7.796875 -15.15625 7.8125 -17.328125 7.8125 -19.734375 L 7.8125 -60.421875 C 7.8125 -62.890625 7.796875 -65.078125 7.765625 -66.984375 C 7.734375 -68.890625 7.648438 -70.859375 7.515625 -72.890625 C 7.378906 -74.929688 7.210938 -77.351562 7.015625 -80.15625 L 25.546875 -80.15625 C 30.023438 -80.15625 34.269531 -79.835938 38.28125 -79.203125 C 42.289062 -78.578125 45.847656 -77.476562 48.953125 -75.90625 C 52.054688 -74.332031 54.492188 -72.140625 56.265625 -69.328125 C 58.035156 -66.523438 58.921875 -62.957031 58.921875 -58.625 C 58.921875 -53.539062 57.75 -49.507812 55.40625 -46.53125 C 53.070312 -43.5625 49.914062 -41.375 45.9375 -39.96875 C 41.96875 -38.570312 37.507812 -37.675781 32.5625 -37.28125 C 36.90625 -36.476562 40.863281 -34.738281 44.4375 -32.0625 C 48.007812 -29.394531 51 -25.050781 53.40625 -19.03125 Z M 17.640625 -38.671875 L 25.453125 -38.671875 C 28.390625 -38.671875 31.242188 -38.972656 34.015625 -39.578125 C 36.785156 -40.179688 39.273438 -41.21875 41.484375 -42.6875 C 43.691406 -44.15625 45.445312 -46.175781 46.75 -48.75 C 48.050781 -51.320312 48.703125 -54.613281 48.703125 -58.625 C 48.703125 -62.625 48.050781 -65.910156 46.75 -68.484375 C 45.445312 -71.054688 43.691406 -73.078125 41.484375 -74.546875 C 39.273438 -76.015625 36.785156 -77.050781 34.015625 -77.65625 C 31.242188 -78.257812 28.390625 -78.5625 25.453125 -78.5625 L 17.640625 -78.5625 Z M 17.640625 -38.671875 "/></g></g></g><g fill="#ffffff" fill-opacity="1"><g transform="translate(1027.417736, 740.360844)"><g><path d="M 7.015625 0 C 7.210938 -2.800781 7.378906 -5.222656 7.515625 -7.265625 C 7.648438 -9.304688 7.734375 -11.289062 7.765625 -13.21875 C 7.796875 -15.15625 7.8125 -17.328125 7.8125 -19.734375 L 7.8125 -60.421875 C 7.8125 -62.890625 7.796875 -65.078125 7.765625 -66.984375 C 7.734375 -68.890625 7.648438 -70.859375 7.515625 -72.890625 C 7.378906 -74.929688 7.210938 -77.351562 7.015625 -80.15625 L 25.546875 -80.15625 C 30.023438 -80.15625 34.269531 -79.835938 38.28125 -79.203125 C 42.289062 -78.578125 45.847656 -77.476562 48.953125 -75.90625 C 52.054688 -74.332031 54.492188 -72.140625 56.265625 -69.328125 C 58.035156 -66.523438 58.921875 -62.957031 58.921875 -58.625 C 58.921875 -54.28125 58.035156 -50.703125 56.265625 -47.890625 C 54.492188 -45.085938 52.054688 -42.898438 48.953125 -41.328125 C 45.847656 -39.765625 42.289062 -38.664062 38.28125 -38.03125 C 34.269531 -37.394531 30.023438 -37.078125 25.546875 -37.078125 L 17.640625 -37.078125 L 17.640625 -19.734375 C 17.640625 -17.328125 17.65625 -15.15625 17.6875 -13.21875 C 17.71875 -11.289062 17.800781 -9.304688 17.9375 -7.265625 C 18.070312 -5.222656 18.238281 -2.800781 18.4375 0 Z M 17.640625 -38.671875 L 25.453125 -38.671875 C 28.390625 -38.671875 31.242188 -38.972656 34.015625 -39.578125 C 36.785156 -40.179688 39.273438 -41.21875 41.484375 -42.6875 C 43.691406 -44.15625 45.445312 -46.175781 46.75 -48.75 C 48.050781 -51.320312 48.703125 -54.613281 48.703125 -58.625 C 48.703125 -62.625 48.050781 -65.910156 46.75 -68.484375 C 45.445312 -71.054688 43.691406 -73.078125 41.484375 -74.546875 C 39.273438 -76.015625 36.785156 -77.050781 34.015625 -77.65625 C 31.242188 -78.257812 28.390625 -78.5625 25.453125 -78.5625 L 17.640625 -78.5625 Z M 17.640625 -38.671875 "/></g></g></g><g fill="#ffffff" fill-opacity="1"><g transform="translate(1117.400506, 740.360844)"><g><path d="M 50.796875 2 C 44.390625 2 38.460938 0.96875 33.015625 -1.09375 C 27.566406 -3.164062 22.820312 -6.070312 18.78125 -9.8125 C 14.738281 -13.5625 11.597656 -18.003906 9.359375 -23.140625 C 7.128906 -28.285156 6.015625 -33.929688 6.015625 -40.078125 C 6.015625 -46.222656 7.128906 -51.867188 9.359375 -57.015625 C 11.597656 -62.160156 14.738281 -66.601562 18.78125 -70.34375 C 22.820312 -74.082031 27.566406 -76.988281 33.015625 -79.0625 C 38.460938 -81.132812 44.390625 -82.171875 50.796875 -82.171875 C 57.210938 -82.171875 63.140625 -81.132812 68.578125 -79.0625 C 74.023438 -76.988281 78.785156 -74.082031 82.859375 -70.34375 C 86.941406 -66.601562 90.097656 -62.160156 92.328125 -57.015625 C 94.566406 -51.867188 95.6875 -46.222656 95.6875 -40.078125 C 95.6875 -33.929688 94.566406 -28.285156 92.328125 -23.140625 C 90.097656 -18.003906 86.941406 -13.5625 82.859375 -9.8125 C 78.785156 -6.070312 74.023438 -3.164062 68.578125 -1.09375 C 63.140625 0.96875 57.210938 2 50.796875 2 Z M 50.796875 0.40625 C 56.140625 0.40625 60.898438 -0.695312 65.078125 -2.90625 C 69.253906 -5.113281 72.828125 -8.117188 75.796875 -11.921875 C 78.773438 -15.734375 81.03125 -20.0625 82.5625 -24.90625 C 84.101562 -29.75 84.875 -34.804688 84.875 -40.078125 C 84.875 -45.359375 84.101562 -50.421875 82.5625 -55.265625 C 81.03125 -60.109375 78.773438 -64.429688 75.796875 -68.234375 C 72.828125 -72.046875 69.253906 -75.050781 65.078125 -77.25 C 60.898438 -79.457031 56.140625 -80.5625 50.796875 -80.5625 C 45.523438 -80.5625 40.785156 -79.457031 36.578125 -77.25 C 32.367188 -75.050781 28.789062 -72.046875 25.84375 -68.234375 C 22.90625 -64.429688 20.664062 -60.109375 19.125 -55.265625 C 17.59375 -50.421875 16.828125 -45.359375 16.828125 -40.078125 C 16.828125 -34.804688 17.59375 -29.75 19.125 -24.90625 C 20.664062 -20.0625 22.90625 -15.734375 25.84375 -11.921875 C 28.789062 -8.117188 32.367188 -5.113281 36.578125 -2.90625 C 40.785156 -0.695312 45.523438 0.40625 50.796875 0.40625 Z M 50.796875 0.40625 "/></g></g></g><g fill="#ffffff" fill-opacity="1"><g transform="translate(1245.158881, 740.360844)"><g><path d="M 53.40625 -19.03125 C 55.144531 -14.5625 56.863281 -11.054688 58.5625 -8.515625 C 60.269531 -5.972656 62.222656 -4.164062 64.421875 -3.09375 C 66.628906 -2.03125 69.269531 -1.5 72.34375 -1.5 L 72.34375 0 C 66.863281 0 62.269531 -0.550781 58.5625 -1.65625 C 54.851562 -2.757812 51.8125 -4.644531 49.4375 -7.3125 C 47.070312 -9.988281 45.054688 -13.664062 43.390625 -18.34375 C 41.515625 -23.613281 39.523438 -27.582031 37.421875 -30.25 C 35.316406 -32.925781 32.960938 -34.734375 30.359375 -35.671875 C 27.753906 -36.609375 24.71875 -37.078125 21.25 -37.078125 L 17.640625 -37.078125 L 17.640625 -19.734375 C 17.640625 -17.328125 17.65625 -15.15625 17.6875 -13.21875 C 17.71875 -11.289062 17.800781 -9.304688 17.9375 -7.265625 C 18.070312 -5.222656 18.238281 -2.800781 18.4375 0 L 7.015625 0 C 7.210938 -2.800781 7.378906 -5.222656 7.515625 -7.265625 C 7.648438 -9.304688 7.734375 -11.289062 7.765625 -13.21875 C 7.796875 -15.15625 7.8125 -17.328125 7.8125 -19.734375 L 7.8125 -60.421875 C 7.8125 -62.890625 7.796875 -65.078125 7.765625 -66.984375 C 7.734375 -68.890625 7.648438 -70.859375 7.515625 -72.890625 C 7.378906 -74.929688 7.210938 -77.351562 7.015625 -80.15625 L 25.546875 -80.15625 C 30.023438 -80.15625 34.269531 -79.835938 38.28125 -79.203125 C 42.289062 -78.578125 45.847656 -77.476562 48.953125 -75.90625 C 52.054688 -74.332031 54.492188 -72.140625 56.265625 -69.328125 C 58.035156 -66.523438 58.921875 -62.957031 58.921875 -58.625 C 58.921875 -53.539062 57.75 -49.507812 55.40625 -46.53125 C 53.070312 -43.5625 49.914062 -41.375 45.9375 -39.96875 C 41.96875 -38.570312 37.507812 -37.675781 32.5625 -37.28125 C 36.90625 -36.476562 40.863281 -34.738281 44.4375 -32.0625 C 48.007812 -29.394531 51 -25.050781 53.40625 -19.03125 Z M 17.640625 -38.671875 L 25.453125 -38.671875 C 28.390625 -38.671875 31.242188 -38.972656 34.015625 -39.578125 C 36.785156 -40.179688 39.273438 -41.21875 41.484375 -42.6875 C 43.691406 -44.15625 45.445312 -46.175781 46.75 -48.75 C 48.050781 -51.320312 48.703125 -54.613281 48.703125 -58.625 C 48.703125 -62.625 48.050781 -65.910156 46.75 -68.484375 C 45.445312 -71.054688 43.691406 -73.078125 41.484375 -74.546875 C 39.273438 -76.015625 36.785156 -77.050781 34.015625 -77.65625 C 31.242188 -78.257812 28.390625 -78.5625 25.453125 -78.5625 L 17.640625 -78.5625 Z M 17.640625 -38.671875 "/></g></g></g><g fill="#ffffff" fill-opacity="1"><g transform="translate(1347.265913, 740.360844)"><g><path d="M 58.125 -10.71875 C 58.789062 -8.445312 59.40625 -6.578125 59.96875 -5.109375 C 60.539062 -3.640625 61.328125 -1.9375 62.328125 0 L 49.796875 0 C 49.734375 -2.269531 49.515625 -4.085938 49.140625 -5.453125 C 48.773438 -6.828125 48.296875 -8.582031 47.703125 -10.71875 L 42.484375 -29.15625 L 15.625 -29.15625 L 10.21875 -10.21875 C 9.6875 -8.351562 9.21875 -6.71875 8.8125 -5.3125 C 8.414062 -3.90625 8.117188 -2.132812 7.921875 0 L 5.015625 0 C 6.148438 -2.207031 6.898438 -3.976562 7.265625 -5.3125 C 7.628906 -6.644531 8.082031 -8.25 8.625 -10.125 L 26.953125 -74.75 C 27.222656 -75.820312 27.335938 -76.722656 27.296875 -77.453125 C 27.265625 -78.191406 27.082031 -79.09375 26.75 -80.15625 L 38.578125 -80.15625 Z M 16.03125 -30.765625 L 42.078125 -30.765625 L 29.0625 -76.75 Z M 16.03125 -30.765625 "/></g></g></g><g fill="#ffffff" fill-opacity="1"><g transform="translate(1440.655485, 740.360844)"><g><path d="M 64.53125 -80.15625 L 60.125 -74.546875 C 55.84375 -76.285156 51.863281 -77.390625 48.1875 -77.859375 C 44.519531 -78.328125 41.582031 -78.5625 39.375 -78.5625 L 38.171875 -78.5625 L 38.171875 -19.734375 C 38.171875 -17.328125 38.203125 -15.15625 38.265625 -13.21875 C 38.335938 -11.289062 38.421875 -9.304688 38.515625 -7.265625 C 38.617188 -5.222656 38.773438 -2.800781 38.984375 0 L 27.5625 0 C 27.757812 -2.800781 27.90625 -5.222656 28 -7.265625 C 28.101562 -9.304688 28.1875 -11.289062 28.25 -13.21875 C 28.320312 -15.15625 28.359375 -17.328125 28.359375 -19.734375 L 28.359375 -78.5625 L 27.15625 -78.5625 C 24.945312 -78.5625 22.019531 -78.328125 18.375 -77.859375 C 14.738281 -77.390625 10.75 -76.285156 6.40625 -74.546875 L 2 -80.15625 Z M 64.53125 -80.15625 "/></g></g></g><g fill="#ffffff" fill-opacity="1"><g transform="translate(1533.243473, 740.360844)"><g><path d="M 7.015625 -80.15625 L 18.4375 -80.15625 C 18.238281 -77.351562 18.070312 -74.929688 17.9375 -72.890625 C 17.800781 -70.859375 17.71875 -68.890625 17.6875 -66.984375 C 17.65625 -65.078125 17.640625 -62.890625 17.640625 -60.421875 L 17.640625 -19.734375 C 17.640625 -17.328125 17.65625 -15.15625 17.6875 -13.21875 C 17.71875 -11.289062 17.800781 -9.304688 17.9375 -7.265625 C 18.070312 -5.222656 18.238281 -2.800781 18.4375 0 L 7.015625 0 C 7.210938 -2.800781 7.378906 -5.222656 7.515625 -7.265625 C 7.648438 -9.304688 7.734375 -11.289062 7.765625 -13.21875 C 7.796875 -15.15625 7.8125 -17.328125 7.8125 -19.734375 L 7.8125 -60.421875 C 7.8125 -62.890625 7.796875 -65.078125 7.765625 -66.984375 C 7.734375 -68.890625 7.648438 -70.859375 7.515625 -72.890625 C 7.378906 -74.929688 7.210938 -77.351562 7.015625 -80.15625 Z M 7.015625 -80.15625 "/></g></g></g><g fill="#ffffff" fill-opacity="1"><g transform="translate(1584.749208, 740.360844)"><g><path d="M 50.796875 2 C 44.390625 2 38.460938 0.96875 33.015625 -1.09375 C 27.566406 -3.164062 22.820312 -6.070312 18.78125 -9.8125 C 14.738281 -13.5625 11.597656 -18.003906 9.359375 -23.140625 C 7.128906 -28.285156 6.015625 -33.929688 6.015625 -40.078125 C 6.015625 -46.222656 7.128906 -51.867188 9.359375 -57.015625 C 11.597656 -62.160156 14.738281 -66.601562 18.78125 -70.34375 C 22.820312 -74.082031 27.566406 -76.988281 33.015625 -79.0625 C 38.460938 -81.132812 44.390625 -82.171875 50.796875 -82.171875 C 57.210938 -82.171875 63.140625 -81.132812 68.578125 -79.0625 C 74.023438 -76.988281 78.785156 -74.082031 82.859375 -70.34375 C 86.941406 -66.601562 90.097656 -62.160156 92.328125 -57.015625 C 94.566406 -51.867188 95.6875 -46.222656 95.6875 -40.078125 C 95.6875 -33.929688 94.566406 -28.285156 92.328125 -23.140625 C 90.097656 -18.003906 86.941406 -13.5625 82.859375 -9.8125 C 78.785156 -6.070312 74.023438 -3.164062 68.578125 -1.09375 C 63.140625 0.96875 57.210938 2 50.796875 2 Z M 50.796875 0.40625 C 56.140625 0.40625 60.898438 -0.695312 65.078125 -2.90625 C 69.253906 -5.113281 72.828125 -8.117188 75.796875 -11.921875 C 78.773438 -15.734375 81.03125 -20.0625 82.5625 -24.90625 C 84.101562 -29.75 84.875 -34.804688 84.875 -40.078125 C 84.875 -45.359375 84.101562 -50.421875 82.5625 -55.265625 C 81.03125 -60.109375 78.773438 -64.429688 75.796875 -68.234375 C 72.828125 -72.046875 69.253906 -75.050781 65.078125 -77.25 C 60.898438 -79.457031 56.140625 -80.5625 50.796875 -80.5625 C 45.523438 -80.5625 40.785156 -79.457031 36.578125 -77.25 C 32.367188 -75.050781 28.789062 -72.046875 25.84375 -68.234375 C 22.90625 -64.429688 20.664062 -60.109375 19.125 -55.265625 C 17.59375 -50.421875 16.828125 -45.359375 16.828125 -40.078125 C 16.828125 -34.804688 17.59375 -29.75 19.125 -24.90625 C 20.664062 -20.0625 22.90625 -15.734375 25.84375 -11.921875 C 28.789062 -8.117188 32.367188 -5.113281 36.578125 -2.90625 C 40.785156 -0.695312 45.523438 0.40625 50.796875 0.40625 Z M 50.796875 0.40625 "/></g></g></g><g fill="#ffffff" fill-opacity="1"><g transform="translate(1712.507628, 740.360844)"><g><path d="M 66.734375 -60.421875 L 66.734375 -19.734375 C 66.734375 -17.328125 66.75 -15.15625 66.78125 -13.21875 C 66.8125 -11.289062 66.894531 -9.304688 67.03125 -7.265625 C 67.164062 -5.222656 67.332031 -2.800781 67.53125 0 L 56.21875 0 L 9.21875 -76.25 L 9.21875 -19.734375 C 9.21875 -17.328125 9.234375 -15.15625 9.265625 -13.21875 C 9.296875 -11.289062 9.378906 -9.304688 9.515625 -7.265625 C 9.648438 -5.222656 9.816406 -2.800781 10.015625 0 L 7.015625 0 C 7.210938 -2.800781 7.378906 -5.222656 7.515625 -7.265625 C 7.648438 -9.304688 7.734375 -11.289062 7.765625 -13.21875 C 7.796875 -15.15625 7.8125 -17.328125 7.8125 -19.734375 L 7.8125 -60.421875 C 7.8125 -62.890625 7.796875 -65.078125 7.765625 -66.984375 C 7.734375 -68.890625 7.648438 -70.859375 7.515625 -72.890625 C 7.378906 -74.929688 7.210938 -77.351562 7.015625 -80.15625 L 18.34375 -80.15625 L 65.328125 -3.90625 L 65.328125 -60.421875 C 65.328125 -62.890625 65.3125 -65.078125 65.28125 -66.984375 C 65.25 -68.890625 65.179688 -70.859375 65.078125 -72.890625 C 64.984375 -74.929688 64.800781 -77.351562 64.53125 -80.15625 L 67.53125 -80.15625 C 67.332031 -77.351562 67.164062 -74.929688 67.03125 -72.890625 C 66.894531 -70.859375 66.8125 -68.890625 66.78125 -66.984375 C 66.75 -65.078125 66.734375 -62.890625 66.734375 -60.421875 Z M 66.734375 -60.421875 "/></g></g></g></svg>