<svg xmlns="http://www.w3.org/2000/svg" xmlns:xlink="http://www.w3.org/1999/xlink" width="6000" zoomAndPan="magnify" viewBox="0 0 4500 2250.000011" height="3000" preserveAspectRatio="xMidYMid meet" version="1.0"><defs><g/><clipPath id="8fe3267ef3"><path d="M 1141 613 L 1164 613 L 1164 1047.972656 L 1141 1047.972656 Z M 1141 613 " clip-rule="nonzero"/></clipPath><clipPath id="9085f738e0"><path d="M 791 497 L 1160 497 L 1160 1047.972656 L 791 1047.972656 Z M 791 497 " clip-rule="nonzero"/></clipPath></defs><path fill="#ffffff" d="M 473.628906 689.667969 L 365.019531 629.316406 C 340.613281 615.757812 318.804688 653.121094 343.1875 666.667969 L 451.796875 727.015625 C 476.203125 740.578125 498.011719 703.214844 473.628906 689.667969 Z M 473.628906 689.667969 " fill-opacity="1" fill-rule="nonzero"/><path fill="#ffffff" d="M 768.671875 405.046875 L 709.539062 300.324219 C 695.828125 276.042969 658.457031 297.832031 672.191406 322.152344 L 731.324219 426.875 C 745.035156 451.160156 782.402344 429.367188 768.671875 405.046875 Z M 768.671875 405.046875 " fill-opacity="1" fill-rule="nonzero"/><path fill="#ffffff" d="M 1172.296875 310.027344 L 1172.296875 188.210938 C 1172.296875 160.316406 1129.042969 160.316406 1129.042969 188.210938 L 1129.042969 310.027344 C 1129.042969 337.921875 1172.296875 337.921875 1172.296875 310.027344 Z M 1172.296875 310.027344 " fill-opacity="1" fill-rule="nonzero"/><path fill="#ffffff" d="M 1570.753906 430.324219 L 1629.121094 322.152344 C 1642.367188 297.613281 1605.019531 275.773438 1591.769531 300.324219 L 1533.402344 408.492188 C 1520.160156 433.035156 1557.503906 454.875 1570.753906 430.324219 Z M 1570.753906 430.324219 " fill-opacity="1" fill-rule="nonzero"/><path fill="#ffffff" d="M 1851.039062 730.453125 L 1958.09375 666.660156 C 1982.023438 652.398438 1960.285156 614.996094 1936.261719 629.308594 L 1829.210938 693.105469 C 1805.28125 707.367188 1827.019531 744.769531 1851.039062 730.453125 Z M 1851.039062 730.453125 " fill-opacity="1" fill-rule="nonzero"/><g clip-path="url(#8fe3267ef3)"><path fill="#ffffff" d="M 1163.042969 1109.878906 L 1163.042969 624.050781 C 1163.042969 610.105469 1141.414062 610.105469 1141.414062 624.050781 L 1141.414062 1109.878906 C 1141.414062 1123.824219 1163.042969 1123.824219 1163.042969 1109.878906 Z M 1163.042969 1109.878906 " fill-opacity="1" fill-rule="nonzero"/></g><g clip-path="url(#9085f738e0)"><path fill="#ffffff" d="M 1158.105469 1101.210938 L 837.761719 546.910156 L 812.136719 502.566406 C 805.164062 490.5 786.46875 501.386719 793.460938 513.480469 L 1113.804688 1067.78125 L 1139.433594 1112.125 C 1146.40625 1124.191406 1165.097656 1113.304688 1158.105469 1101.210938 Z M 1158.105469 1101.210938 " fill-opacity="1" fill-rule="nonzero"/></g><g fill="#d20a0f" fill-opacity="1"><g transform="translate(569.559928, 1627.437368)"><g><path d="M 400.796875 -93.984375 C 400.796875 -93.660156 398.035156 -90.085938 392.515625 -83.265625 C 387.003906 -76.453125 379.132812 -68.015625 368.90625 -57.953125 C 358.675781 -47.890625 346.253906 -37.90625 331.640625 -28 C 317.035156 -18.101562 300.398438 -9.828125 281.734375 -3.171875 C 263.066406 3.484375 242.851562 6.8125 221.09375 6.8125 C 197.070312 6.8125 174.019531 2.59375 151.9375 -5.84375 C 96.425781 -26.300781 57.382812 -57.796875 34.8125 -100.328125 C 12.25 -142.859375 7.625 -193.503906 20.9375 -252.265625 C 27.101562 -278.890625 36.597656 -305.753906 49.421875 -332.859375 C 62.253906 -359.972656 77.515625 -386.03125 95.203125 -411.03125 C 112.898438 -436.03125 131.972656 -459.160156 152.421875 -480.421875 C 172.878906 -501.691406 193.820312 -520.117188 215.25 -535.703125 C 236.675781 -551.285156 257.78125 -563.050781 278.5625 -571 C 299.34375 -578.957031 318.660156 -582.125 336.515625 -580.5 C 366.710938 -579.851562 391.710938 -568.003906 411.515625 -544.953125 C 415.410156 -539.753906 420.523438 -536.019531 426.859375 -533.75 C 433.191406 -531.476562 439.601562 -530.992188 446.09375 -532.296875 C 465.570312 -537.160156 485.375 -539.753906 505.5 -540.078125 C 509.070312 -540.078125 512.15625 -538.859375 514.75 -536.421875 C 517.351562 -533.992188 518.65625 -530.992188 518.65625 -527.421875 C 518.65625 -523.847656 517.351562 -520.84375 514.75 -518.40625 C 512.15625 -515.976562 509.238281 -514.765625 506 -514.765625 C 482.289062 -514.429688 459.238281 -510.695312 436.84375 -503.5625 C 430.34375 -501.289062 427.257812 -496.742188 427.59375 -489.921875 C 426.613281 -473.691406 422.710938 -456.890625 415.890625 -439.515625 C 409.078125 -422.148438 400.394531 -405.347656 389.84375 -389.109375 C 379.289062 -372.878906 367.519531 -358.269531 354.53125 -345.28125 C 341.550781 -332.289062 328.160156 -321.816406 314.359375 -313.859375 C 300.554688 -305.910156 287.164062 -301.773438 274.1875 -301.453125 C 259.25 -299.828125 247.554688 -305.347656 239.109375 -318.015625 C 229.367188 -333.921875 232.78125 -356.644531 249.34375 -386.1875 C 280.832031 -437.8125 323.363281 -477.582031 376.9375 -505.5 C 383.425781 -509.070312 387.160156 -514.59375 388.140625 -522.0625 C 388.785156 -529.851562 386.1875 -536.019531 380.34375 -540.5625 C 366.0625 -549.65625 350.640625 -554.53125 334.078125 -555.1875 C 319.472656 -556.476562 303.078125 -553.550781 284.890625 -546.40625 C 266.710938 -539.269531 247.882812 -528.554688 228.40625 -514.265625 C 208.925781 -499.984375 189.6875 -483.019531 170.6875 -463.375 C 151.695312 -443.738281 133.84375 -422.226562 117.125 -398.84375 C 100.40625 -375.46875 85.875 -350.875 73.53125 -325.0625 C 61.195312 -299.257812 51.945312 -273.046875 45.78125 -246.421875 C 41.882812 -228.242188 39.851562 -208.925781 39.6875 -188.46875 C 39.53125 -168.007812 43.019531 -147.878906 50.15625 -128.078125 C 57.300781 -108.273438 69.71875 -89.847656 87.40625 -72.796875 C 105.101562 -55.753906 129.535156 -41.550781 160.703125 -30.1875 C 182.460938 -22.070312 202.921875 -18.175781 222.078125 -18.5 C 241.234375 -18.832031 258.84375 -21.835938 274.90625 -27.515625 C 290.976562 -33.191406 305.34375 -40.332031 318 -48.9375 C 330.664062 -57.539062 341.460938 -66.222656 350.390625 -74.984375 C 359.316406 -83.753906 366.296875 -91.222656 371.328125 -97.390625 C 376.367188 -103.566406 379.210938 -107.140625 379.859375 -108.109375 C 381.804688 -111.035156 384.484375 -112.820312 387.890625 -113.46875 C 391.304688 -114.113281 394.472656 -113.460938 397.390625 -111.515625 C 400.316406 -109.566406 402.101562 -106.890625 402.75 -103.484375 C 403.394531 -100.078125 402.742188 -96.910156 400.796875 -93.984375 Z M 273.6875 -327.265625 C 283.757812 -327.585938 294.878906 -331.644531 307.046875 -339.4375 C 319.222656 -347.226562 331.316406 -357.535156 343.328125 -370.359375 C 355.347656 -383.179688 366.144531 -397.46875 375.71875 -413.21875 C 385.300781 -428.96875 392.363281 -444.796875 396.90625 -460.703125 C 398.53125 -466.867188 396.90625 -471.738281 392.03125 -475.3125 C 387.164062 -479.207031 381.972656 -479.53125 376.453125 -476.28125 C 332.941406 -450.957031 298.039062 -416.867188 271.75 -374.015625 C 265.582031 -362.972656 261.847656 -353.800781 260.546875 -346.5 C 259.242188 -339.195312 259.40625 -334.082031 261.03125 -331.15625 C 262.007812 -329.53125 263.796875 -328.472656 266.390625 -327.984375 C 268.984375 -327.503906 271.414062 -327.265625 273.6875 -327.265625 Z M 273.6875 -327.265625 "/></g></g></g><g fill="#d20a0f" fill-opacity="1"><g transform="translate(1000.968525, 1627.437368)"><g><path d="M 428.078125 -183.59375 C 416.710938 -160.21875 403.476562 -137.003906 388.375 -113.953125 C 373.28125 -90.898438 356.5625 -69.066406 338.21875 -48.453125 C 319.875 -27.835938 300.148438 -9.660156 279.046875 6.078125 C 257.941406 21.828125 235.78125 34.25 212.5625 43.34375 C 189.351562 52.4375 165.25 56.984375 140.25 56.984375 C 124.664062 56.984375 109.242188 55.035156 93.984375 51.140625 C 78.734375 47.890625 65.503906 41.234375 54.296875 31.171875 C 43.097656 21.109375 34.898438 9.015625 29.703125 -5.109375 C 24.515625 -19.234375 23.054688 -33.925781 25.328125 -49.1875 C 27.273438 -67.695312 33.6875 -87.5 44.5625 -108.59375 C 55.4375 -129.695312 71.265625 -150.878906 92.046875 -172.140625 C 112.828125 -193.410156 139.125 -213.625 170.9375 -232.78125 C 202.75 -251.9375 240.488281 -269.0625 284.15625 -284.15625 C 327.832031 -299.257812 377.753906 -310.867188 433.921875 -318.984375 C 439.109375 -319.628906 443.566406 -321.65625 447.296875 -325.0625 C 451.035156 -328.476562 453.394531 -332.785156 454.375 -337.984375 C 462.488281 -378.566406 464.03125 -414.679688 459 -446.328125 C 453.96875 -477.984375 442.195312 -500.957031 423.6875 -515.25 C 418.820312 -519.144531 412.570312 -520.195312 404.9375 -518.40625 C 397.3125 -516.625 389.035156 -513.21875 380.109375 -508.1875 C 371.179688 -503.15625 362.332031 -497.71875 353.5625 -491.875 C 339.28125 -482.78125 325.398438 -474.90625 311.921875 -468.25 C 298.453125 -461.59375 285.707031 -460.210938 273.6875 -464.109375 C 259.726562 -469.304688 250.476562 -479.046875 245.9375 -493.328125 C 244.632812 -496.578125 244.710938 -499.820312 246.171875 -503.0625 C 247.640625 -506.3125 249.992188 -508.585938 253.234375 -509.890625 C 256.484375 -511.191406 259.726562 -511.109375 262.96875 -509.640625 C 266.21875 -508.179688 268.492188 -505.828125 269.796875 -502.578125 C 272.066406 -496.734375 274.335938 -493 276.609375 -491.375 C 278.890625 -489.757812 280.515625 -488.789062 281.484375 -488.46875 C 287.648438 -486.507812 296.171875 -488.453125 307.046875 -494.296875 C 317.929688 -500.148438 328.726562 -506.484375 339.4375 -513.296875 C 350.476562 -520.441406 361.84375 -527.097656 373.53125 -533.265625 C 385.21875 -539.429688 396.660156 -543.242188 407.859375 -544.703125 C 419.054688 -546.171875 429.53125 -543.007812 439.28125 -535.21875 C 454.863281 -523.53125 466.46875 -507.941406 474.09375 -488.453125 C 481.71875 -468.972656 486.019531 -447.054688 487 -422.703125 C 487.976562 -398.359375 486.191406 -372.710938 481.640625 -345.765625 C 480.671875 -340.242188 482.132812 -335.535156 486.03125 -331.640625 C 489.601562 -327.742188 494.144531 -325.960938 499.65625 -326.296875 C 512.320312 -327.265625 525.148438 -328.070312 538.140625 -328.71875 C 541.703125 -329.050781 544.78125 -328 547.375 -325.5625 C 549.976562 -323.125 551.441406 -320.28125 551.765625 -317.03125 C 551.765625 -313.46875 550.628906 -310.382812 548.359375 -307.78125 C 546.085938 -305.1875 543.164062 -303.726562 539.59375 -303.40625 C 521.738281 -302.425781 504.207031 -301.125 487 -299.5 C 476.28125 -298.53125 469.460938 -292.847656 466.546875 -282.453125 C 456.484375 -248.367188 443.660156 -215.414062 428.078125 -183.59375 Z M 405.1875 -194.796875 C 417.195312 -218.828125 427.585938 -243.664062 436.359375 -269.3125 C 438.304688 -275.15625 437.164062 -280.347656 432.9375 -284.890625 C 429.039062 -289.765625 424.007812 -291.550781 417.84375 -290.25 C 367.519531 -281.8125 322.796875 -270.53125 283.671875 -256.40625 C 244.554688 -242.28125 210.710938 -226.453125 182.140625 -208.921875 C 153.566406 -191.390625 129.863281 -173.125 111.03125 -154.125 C 92.207031 -135.132812 77.84375 -116.382812 67.9375 -97.875 C 58.03125 -79.375 52.429688 -62.332031 51.140625 -46.75 C 48.859375 -35.382812 49.582031 -24.585938 53.3125 -14.359375 C 57.050781 -4.140625 62.976562 4.617188 71.09375 11.921875 C 79.21875 19.234375 88.960938 24.023438 100.328125 26.296875 C 125.972656 33.117188 151.050781 33.769531 175.5625 28.25 C 200.070312 22.726562 223.523438 12.664062 245.921875 -1.9375 C 268.328125 -16.550781 289.351562 -34.164062 309 -54.78125 C 328.644531 -75.40625 346.582031 -97.726562 362.8125 -121.75 C 379.050781 -145.769531 393.175781 -170.117188 405.1875 -194.796875 Z M 405.1875 -194.796875 "/></g></g></g><g fill="#ffffff" fill-opacity="1"><g transform="translate(1919.110804, 1103.656284)"><g><path d="M 16.203125 -180.0625 L 41.859375 -180.0625 C 41.410156 -173.757812 41.035156 -168.316406 40.734375 -163.734375 C 40.429688 -159.160156 40.242188 -154.734375 40.171875 -150.453125 C 40.097656 -146.179688 40.0625 -141.269531 40.0625 -135.71875 L 40.0625 -3.59375 L 58.96875 -3.59375 C 66.46875 -3.59375 73.367188 -3.78125 79.671875 -4.15625 C 85.972656 -4.539062 92.460938 -5.367188 99.140625 -6.640625 C 105.816406 -7.910156 113.359375 -9.75 121.765625 -12.15625 L 115.234375 0 L 15.75 0 C 16.351562 -6.300781 16.804688 -11.738281 17.109375 -16.3125 C 17.410156 -20.894531 17.632812 -25.359375 17.78125 -29.703125 C 17.925781 -34.054688 18 -38.9375 18 -44.34375 L 18 -135.71875 C 18 -141.269531 17.960938 -146.179688 17.890625 -150.453125 C 17.816406 -154.734375 17.628906 -159.160156 17.328125 -163.734375 C 17.023438 -168.316406 16.648438 -173.757812 16.203125 -180.0625 Z M 16.203125 -180.0625 "/></g></g></g><g fill="#ffffff" fill-opacity="1"><g transform="translate(2108.38631, 1103.656284)"><g><path d="M 13.5 -180.0625 L 39.15625 -180.0625 C 38.707031 -173.757812 38.332031 -168.316406 38.03125 -163.734375 C 37.738281 -159.160156 37.550781 -154.734375 37.46875 -150.453125 C 37.394531 -146.179688 37.359375 -141.269531 37.359375 -135.71875 L 37.359375 -76.53125 C 37.359375 -49.820312 41.296875 -30.578125 49.171875 -18.796875 C 57.054688 -7.015625 69.851562 -1.125 87.5625 -1.125 C 99.113281 -1.125 108.75 -3.523438 116.46875 -8.328125 C 124.195312 -13.128906 130.050781 -21.039062 134.03125 -32.0625 C 138.007812 -43.09375 140 -57.914062 140 -76.53125 L 140 -135.71875 C 140 -141.269531 139.960938 -146.179688 139.890625 -150.453125 C 139.816406 -154.734375 139.664062 -159.160156 139.4375 -163.734375 C 139.207031 -168.316406 138.796875 -173.757812 138.203125 -180.0625 L 145.40625 -180.0625 C 144.945312 -173.757812 144.566406 -168.316406 144.265625 -163.734375 C 143.972656 -159.160156 143.785156 -154.734375 143.703125 -150.453125 C 143.628906 -146.179688 143.59375 -141.269531 143.59375 -135.71875 L 143.59375 -76.53125 C 143.59375 -56.875 141.378906 -41.117188 136.953125 -29.265625 C 132.523438 -17.410156 125.882812 -8.816406 117.03125 -3.484375 C 108.1875 1.835938 97.085938 4.5 83.734375 4.5 C 73.222656 4.5 63.765625 3.257812 55.359375 0.78125 C 46.960938 -1.6875 39.765625 -5.921875 33.765625 -11.921875 C 27.765625 -17.929688 23.1875 -26.1875 20.03125 -36.6875 C 16.882812 -47.1875 15.3125 -60.46875 15.3125 -76.53125 L 15.3125 -135.71875 C 15.3125 -141.269531 15.269531 -146.179688 15.1875 -150.453125 C 15.113281 -154.734375 14.925781 -159.160156 14.625 -163.734375 C 14.332031 -168.316406 13.957031 -173.757812 13.5 -180.0625 Z M 13.5 -180.0625 "/></g></g></g><g fill="#ffffff" fill-opacity="1"><g transform="translate(2325.793408, 1103.656284)"><g><path d="M 118.171875 -20.484375 C 120.265625 -16.429688 122.0625 -13.09375 123.5625 -10.46875 C 125.0625 -7.84375 127.460938 -4.351562 130.765625 0 L 101.734375 0 C 100.234375 -4.351562 98.957031 -7.84375 97.90625 -10.46875 C 96.851562 -13.09375 95.28125 -16.429688 93.1875 -20.484375 L 61.671875 -81.921875 L 28.359375 -20.484375 C 26.109375 -16.285156 24.34375 -12.910156 23.0625 -10.359375 C 21.789062 -7.804688 20.179688 -4.351562 18.234375 0 L 11.484375 0 C 13.734375 -3 15.492188 -5.507812 16.765625 -7.53125 C 18.046875 -9.5625 19.207031 -11.550781 20.25 -13.5 C 21.300781 -15.457031 22.578125 -17.785156 24.078125 -20.484375 L 59.640625 -85.75 L 21.828125 -159.578125 C 20.484375 -162.273438 19.25 -164.597656 18.125 -166.546875 C 17 -168.503906 15.757812 -170.53125 14.40625 -172.625 C 13.050781 -174.726562 11.25 -177.207031 9 -180.0625 L 38.03125 -180.0625 C 39.382812 -175.707031 40.660156 -172.21875 41.859375 -169.59375 C 43.066406 -166.96875 44.644531 -163.628906 46.59375 -159.578125 L 78.109375 -98.140625 L 111.1875 -158.6875 C 113.59375 -163.1875 115.46875 -166.785156 116.8125 -169.484375 C 118.164062 -172.179688 119.742188 -175.707031 121.546875 -180.0625 L 128.296875 -180.0625 C 126.191406 -177.207031 124.460938 -174.726562 123.109375 -172.625 C 121.765625 -170.53125 120.53125 -168.429688 119.40625 -166.328125 C 118.28125 -164.234375 116.890625 -161.6875 115.234375 -158.6875 L 80.125 -94.3125 Z M 118.171875 -20.484375 "/></g></g></g><g fill="#ffffff" fill-opacity="1"><g transform="translate(2524.071024, 1103.656284)"><g><path d="M 13.5 -180.0625 L 39.15625 -180.0625 C 38.707031 -173.757812 38.332031 -168.316406 38.03125 -163.734375 C 37.738281 -159.160156 37.550781 -154.734375 37.46875 -150.453125 C 37.394531 -146.179688 37.359375 -141.269531 37.359375 -135.71875 L 37.359375 -76.53125 C 37.359375 -49.820312 41.296875 -30.578125 49.171875 -18.796875 C 57.054688 -7.015625 69.851562 -1.125 87.5625 -1.125 C 99.113281 -1.125 108.75 -3.523438 116.46875 -8.328125 C 124.195312 -13.128906 130.050781 -21.039062 134.03125 -32.0625 C 138.007812 -43.09375 140 -57.914062 140 -76.53125 L 140 -135.71875 C 140 -141.269531 139.960938 -146.179688 139.890625 -150.453125 C 139.816406 -154.734375 139.664062 -159.160156 139.4375 -163.734375 C 139.207031 -168.316406 138.796875 -173.757812 138.203125 -180.0625 L 145.40625 -180.0625 C 144.945312 -173.757812 144.566406 -168.316406 144.265625 -163.734375 C 143.972656 -159.160156 143.785156 -154.734375 143.703125 -150.453125 C 143.628906 -146.179688 143.59375 -141.269531 143.59375 -135.71875 L 143.59375 -76.53125 C 143.59375 -56.875 141.378906 -41.117188 136.953125 -29.265625 C 132.523438 -17.410156 125.882812 -8.816406 117.03125 -3.484375 C 108.1875 1.835938 97.085938 4.5 83.734375 4.5 C 73.222656 4.5 63.765625 3.257812 55.359375 0.78125 C 46.960938 -1.6875 39.765625 -5.921875 33.765625 -11.921875 C 27.765625 -17.929688 23.1875 -26.1875 20.03125 -36.6875 C 16.882812 -47.1875 15.3125 -60.46875 15.3125 -76.53125 L 15.3125 -135.71875 C 15.3125 -141.269531 15.269531 -146.179688 15.1875 -150.453125 C 15.113281 -154.734375 14.925781 -159.160156 14.625 -163.734375 C 14.332031 -168.316406 13.957031 -173.757812 13.5 -180.0625 Z M 13.5 -180.0625 "/></g></g></g><g fill="#ffffff" fill-opacity="1"><g transform="translate(2741.478122, 1103.656284)"><g><path d="M 119.96875 -42.765625 C 123.863281 -32.710938 127.722656 -24.832031 131.546875 -19.125 C 135.378906 -13.425781 139.769531 -9.375 144.71875 -6.96875 C 149.675781 -4.570312 155.601562 -3.375 162.5 -3.375 L 162.5 0 C 150.195312 0 139.878906 -1.234375 131.546875 -3.703125 C 123.222656 -6.179688 116.394531 -10.421875 111.0625 -16.421875 C 105.738281 -22.429688 101.203125 -30.6875 97.453125 -41.1875 C 93.253906 -53.039062 88.789062 -61.96875 84.0625 -67.96875 C 79.34375 -73.976562 74.054688 -78.03125 68.203125 -80.125 C 62.347656 -82.226562 55.519531 -83.28125 47.71875 -83.28125 L 39.609375 -83.28125 L 39.609375 -44.34375 C 39.609375 -38.9375 39.644531 -34.054688 39.71875 -29.703125 C 39.800781 -25.359375 39.988281 -20.894531 40.28125 -16.3125 C 40.582031 -11.738281 40.960938 -6.300781 41.421875 0 L 15.75 0 C 16.207031 -6.300781 16.582031 -11.738281 16.875 -16.3125 C 17.175781 -20.894531 17.363281 -25.359375 17.4375 -29.703125 C 17.519531 -34.054688 17.5625 -38.9375 17.5625 -44.34375 L 17.5625 -135.71875 C 17.5625 -141.269531 17.519531 -146.179688 17.4375 -150.453125 C 17.363281 -154.734375 17.175781 -159.160156 16.875 -163.734375 C 16.582031 -168.316406 16.207031 -173.757812 15.75 -180.0625 L 57.390625 -180.0625 C 67.441406 -180.0625 76.96875 -179.347656 85.96875 -177.921875 C 94.976562 -176.492188 102.972656 -174.015625 109.953125 -170.484375 C 116.929688 -166.960938 122.40625 -162.050781 126.375 -155.75 C 130.351562 -149.445312 132.34375 -141.421875 132.34375 -131.671875 C 132.34375 -120.265625 129.71875 -111.222656 124.46875 -104.546875 C 119.21875 -97.867188 112.128906 -92.953125 103.203125 -89.796875 C 94.273438 -86.648438 84.257812 -84.628906 73.15625 -83.734375 C 82.90625 -81.929688 91.789062 -78.023438 99.8125 -72.015625 C 107.84375 -66.015625 114.5625 -56.265625 119.96875 -42.765625 Z M 39.609375 -86.875 L 57.171875 -86.875 C 63.773438 -86.875 70.1875 -87.550781 76.40625 -88.90625 C 82.632812 -90.257812 88.222656 -92.582031 93.171875 -95.875 C 98.128906 -99.175781 102.070312 -103.71875 105 -109.5 C 107.925781 -115.28125 109.390625 -122.671875 109.390625 -131.671875 C 109.390625 -140.671875 107.925781 -148.054688 105 -153.828125 C 102.070312 -159.609375 98.128906 -164.148438 93.171875 -167.453125 C 88.222656 -170.753906 82.632812 -173.082031 76.40625 -174.4375 C 70.1875 -175.789062 63.773438 -176.46875 57.171875 -176.46875 L 39.609375 -176.46875 Z M 39.609375 -86.875 "/></g></g></g><g fill="#ffffff" fill-opacity="1"><g transform="translate(2970.813036, 1103.656284)"><g><path d="M 132.125 -159.125 L 90.484375 -77.65625 L 90.484375 -44.34375 C 90.484375 -38.9375 90.519531 -34.054688 90.59375 -29.703125 C 90.664062 -25.359375 90.8125 -20.894531 91.03125 -16.3125 C 91.257812 -11.738281 91.601562 -6.300781 92.0625 0 L 66.390625 0 C 66.992188 -6.300781 67.40625 -11.738281 67.625 -16.3125 C 67.851562 -20.894531 68.003906 -25.359375 68.078125 -29.703125 C 68.160156 -34.054688 68.203125 -38.9375 68.203125 -44.34375 L 68.203125 -77.65625 L 25.203125 -158.90625 C 22.953125 -163.257812 20.890625 -166.859375 19.015625 -169.703125 C 17.140625 -172.554688 14.550781 -176.007812 11.25 -180.0625 L 40.734375 -180.0625 C 42.234375 -175.707031 43.660156 -172.140625 45.015625 -169.359375 C 46.367188 -166.585938 48.171875 -163.101562 50.421875 -158.90625 L 89.8125 -84.625 L 128.296875 -158.90625 C 130.546875 -163.257812 132.304688 -166.785156 133.578125 -169.484375 C 134.859375 -172.179688 136.398438 -175.707031 138.203125 -180.0625 L 144.28125 -180.0625 C 141.425781 -175.707031 139.207031 -172.140625 137.625 -169.359375 C 136.050781 -166.585938 134.21875 -163.175781 132.125 -159.125 Z M 132.125 -159.125 "/></g></g></g><g fill="#ffffff" fill-opacity="1"><g transform="translate(3184.866451, 1103.656284)"><g/></g></g><g fill="#ffffff" fill-opacity="1"><g transform="translate(1919.110804, 1551.709514)"><g><path d="M 181.640625 -74.953125 L 184.796875 -74.953125 C 181.335938 -59.046875 176.117188 -45.128906 169.140625 -33.203125 C 162.171875 -21.273438 153.171875 -12.007812 142.140625 -5.40625 C 131.109375 1.195312 117.863281 4.5 102.40625 4.5 C 88.457031 4.5 75.96875 2.0625 64.9375 -2.8125 C 53.90625 -7.6875 44.5625 -14.515625 36.90625 -23.296875 C 29.257812 -32.078125 23.445312 -42.351562 19.46875 -54.125 C 15.488281 -65.90625 13.5 -78.625 13.5 -92.28125 C 13.5 -105.9375 15.785156 -118.425781 20.359375 -129.75 C 24.941406 -141.082031 31.242188 -150.835938 39.265625 -159.015625 C 47.296875 -167.191406 56.710938 -173.492188 67.515625 -177.921875 C 78.328125 -182.347656 89.882812 -184.5625 102.1875 -184.5625 C 119.59375 -184.5625 134.296875 -180.25 146.296875 -171.625 C 158.304688 -163 168.132812 -150.957031 175.78125 -135.5 L 153.28125 -129.421875 C 151.03125 -139.023438 147.726562 -147.691406 143.375 -155.421875 C 139.019531 -163.148438 133.46875 -169.335938 126.71875 -173.984375 C 119.96875 -178.640625 111.789062 -180.96875 102.1875 -180.96875 C 92.28125 -180.96875 83.390625 -178.710938 75.515625 -174.203125 C 67.640625 -169.703125 60.882812 -163.4375 55.25 -155.40625 C 49.625 -147.382812 45.3125 -138.082031 42.3125 -127.5 C 39.3125 -116.925781 37.8125 -105.632812 37.8125 -93.625 C 37.8125 -81.320312 39.195312 -69.691406 41.96875 -58.734375 C 44.75 -47.785156 49.023438 -38.070312 54.796875 -29.59375 C 60.578125 -21.113281 67.894531 -14.4375 76.75 -9.5625 C 85.601562 -4.6875 96.03125 -2.25 108.03125 -2.25 C 121.238281 -2.25 132.71875 -5.25 142.46875 -11.25 C 152.226562 -17.25 160.367188 -25.6875 166.890625 -36.5625 C 173.421875 -47.445312 178.335938 -60.242188 181.640625 -74.953125 Z M 181.640625 -74.953125 "/></g></g></g><g fill="#ffffff" fill-opacity="1"><g transform="translate(2171.401109, 1551.709514)"><g><path d="M 114.109375 4.5 C 99.703125 4.5 86.382812 2.175781 74.15625 -2.46875 C 61.925781 -7.125 51.269531 -13.648438 42.1875 -22.046875 C 33.113281 -30.453125 26.0625 -40.429688 21.03125 -51.984375 C 16.007812 -63.546875 13.5 -76.226562 13.5 -90.03125 C 13.5 -103.832031 16.007812 -116.507812 21.03125 -128.0625 C 26.0625 -139.625 33.113281 -149.601562 42.1875 -158 C 51.269531 -166.40625 61.925781 -172.929688 74.15625 -177.578125 C 86.382812 -182.234375 99.703125 -184.5625 114.109375 -184.5625 C 128.515625 -184.5625 141.832031 -182.234375 154.0625 -177.578125 C 166.289062 -172.929688 176.984375 -166.40625 186.140625 -158 C 195.296875 -149.601562 202.382812 -139.625 207.40625 -128.0625 C 212.4375 -116.507812 214.953125 -103.832031 214.953125 -90.03125 C 214.953125 -76.226562 212.4375 -63.546875 207.40625 -51.984375 C 202.382812 -40.429688 195.296875 -30.453125 186.140625 -22.046875 C 176.984375 -13.648438 166.289062 -7.125 154.0625 -2.46875 C 141.832031 2.175781 128.515625 4.5 114.109375 4.5 Z M 114.109375 0.90625 C 126.117188 0.90625 136.8125 -1.566406 146.1875 -6.515625 C 155.5625 -11.472656 163.585938 -18.226562 170.265625 -26.78125 C 176.941406 -35.332031 182.003906 -45.046875 185.453125 -55.921875 C 188.910156 -66.804688 190.640625 -78.175781 190.640625 -90.03125 C 190.640625 -101.882812 188.910156 -113.25 185.453125 -124.125 C 182.003906 -135.007812 176.941406 -144.726562 170.265625 -153.28125 C 163.585938 -161.832031 155.5625 -168.582031 146.1875 -173.53125 C 136.8125 -178.488281 126.117188 -180.96875 114.109375 -180.96875 C 102.253906 -180.96875 91.597656 -178.488281 82.140625 -173.53125 C 72.691406 -168.582031 64.664062 -161.832031 58.0625 -153.28125 C 51.46875 -144.726562 46.441406 -135.007812 42.984375 -124.125 C 39.535156 -113.25 37.8125 -101.882812 37.8125 -90.03125 C 37.8125 -78.175781 39.535156 -66.804688 42.984375 -55.921875 C 46.441406 -45.046875 51.46875 -35.332031 58.0625 -26.78125 C 64.664062 -18.226562 72.691406 -11.472656 82.140625 -6.515625 C 91.597656 -1.566406 102.253906 0.90625 114.109375 0.90625 Z M 114.109375 0.90625 "/></g></g></g><g fill="#ffffff" fill-opacity="1"><g transform="translate(2458.349574, 1551.709514)"><g><path d="M 119.96875 -42.765625 C 123.863281 -32.710938 127.722656 -24.832031 131.546875 -19.125 C 135.378906 -13.425781 139.769531 -9.375 144.71875 -6.96875 C 149.675781 -4.570312 155.601562 -3.375 162.5 -3.375 L 162.5 0 C 150.195312 0 139.878906 -1.234375 131.546875 -3.703125 C 123.222656 -6.179688 116.394531 -10.421875 111.0625 -16.421875 C 105.738281 -22.429688 101.203125 -30.6875 97.453125 -41.1875 C 93.253906 -53.039062 88.789062 -61.96875 84.0625 -67.96875 C 79.34375 -73.976562 74.054688 -78.03125 68.203125 -80.125 C 62.347656 -82.226562 55.519531 -83.28125 47.71875 -83.28125 L 39.609375 -83.28125 L 39.609375 -44.34375 C 39.609375 -38.9375 39.644531 -34.054688 39.71875 -29.703125 C 39.800781 -25.359375 39.988281 -20.894531 40.28125 -16.3125 C 40.582031 -11.738281 40.960938 -6.300781 41.421875 0 L 15.75 0 C 16.207031 -6.300781 16.582031 -11.738281 16.875 -16.3125 C 17.175781 -20.894531 17.363281 -25.359375 17.4375 -29.703125 C 17.519531 -34.054688 17.5625 -38.9375 17.5625 -44.34375 L 17.5625 -135.71875 C 17.5625 -141.269531 17.519531 -146.179688 17.4375 -150.453125 C 17.363281 -154.734375 17.175781 -159.160156 16.875 -163.734375 C 16.582031 -168.316406 16.207031 -173.757812 15.75 -180.0625 L 57.390625 -180.0625 C 67.441406 -180.0625 76.96875 -179.347656 85.96875 -177.921875 C 94.976562 -176.492188 102.972656 -174.015625 109.953125 -170.484375 C 116.929688 -166.960938 122.40625 -162.050781 126.375 -155.75 C 130.351562 -149.445312 132.34375 -141.421875 132.34375 -131.671875 C 132.34375 -120.265625 129.71875 -111.222656 124.46875 -104.546875 C 119.21875 -97.867188 112.128906 -92.953125 103.203125 -89.796875 C 94.273438 -86.648438 84.257812 -84.628906 73.15625 -83.734375 C 82.90625 -81.929688 91.789062 -78.023438 99.8125 -72.015625 C 107.84375 -66.015625 114.5625 -56.265625 119.96875 -42.765625 Z M 39.609375 -86.875 L 57.171875 -86.875 C 63.773438 -86.875 70.1875 -87.550781 76.40625 -88.90625 C 82.632812 -90.257812 88.222656 -92.582031 93.171875 -95.875 C 98.128906 -99.175781 102.070312 -103.71875 105 -109.5 C 107.925781 -115.28125 109.390625 -122.671875 109.390625 -131.671875 C 109.390625 -140.671875 107.925781 -148.054688 105 -153.828125 C 102.070312 -159.609375 98.128906 -164.148438 93.171875 -167.453125 C 88.222656 -170.753906 82.632812 -173.082031 76.40625 -174.4375 C 70.1875 -175.789062 63.773438 -176.46875 57.171875 -176.46875 L 39.609375 -176.46875 Z M 39.609375 -86.875 "/></g></g></g><g fill="#ffffff" fill-opacity="1"><g transform="translate(2687.684488, 1551.709514)"><g><path d="M 15.75 0 C 16.207031 -6.300781 16.582031 -11.738281 16.875 -16.3125 C 17.175781 -20.894531 17.363281 -25.359375 17.4375 -29.703125 C 17.519531 -34.054688 17.5625 -38.9375 17.5625 -44.34375 L 17.5625 -135.71875 C 17.5625 -141.269531 17.519531 -146.179688 17.4375 -150.453125 C 17.363281 -154.734375 17.175781 -159.160156 16.875 -163.734375 C 16.582031 -168.316406 16.207031 -173.757812 15.75 -180.0625 L 57.390625 -180.0625 C 67.441406 -180.0625 76.96875 -179.347656 85.96875 -177.921875 C 94.976562 -176.492188 102.972656 -174.015625 109.953125 -170.484375 C 116.929688 -166.960938 122.40625 -162.050781 126.375 -155.75 C 130.351562 -149.445312 132.34375 -141.421875 132.34375 -131.671875 C 132.34375 -121.921875 130.351562 -113.894531 126.375 -107.59375 C 122.40625 -101.289062 116.929688 -96.375 109.953125 -92.84375 C 102.972656 -89.320312 94.976562 -86.847656 85.96875 -85.421875 C 76.96875 -83.992188 67.441406 -83.28125 57.390625 -83.28125 L 39.609375 -83.28125 L 39.609375 -44.34375 C 39.609375 -38.9375 39.644531 -34.054688 39.71875 -29.703125 C 39.800781 -25.359375 39.988281 -20.894531 40.28125 -16.3125 C 40.582031 -11.738281 40.960938 -6.300781 41.421875 0 Z M 39.609375 -86.875 L 57.171875 -86.875 C 63.773438 -86.875 70.1875 -87.550781 76.40625 -88.90625 C 82.632812 -90.257812 88.222656 -92.582031 93.171875 -95.875 C 98.128906 -99.175781 102.070312 -103.71875 105 -109.5 C 107.925781 -115.28125 109.390625 -122.671875 109.390625 -131.671875 C 109.390625 -140.671875 107.925781 -148.054688 105 -153.828125 C 102.070312 -159.609375 98.128906 -164.148438 93.171875 -167.453125 C 88.222656 -170.753906 82.632812 -173.082031 76.40625 -174.4375 C 70.1875 -175.789062 63.773438 -176.46875 57.171875 -176.46875 L 39.609375 -176.46875 Z M 39.609375 -86.875 "/></g></g></g><g fill="#ffffff" fill-opacity="1"><g transform="translate(2889.788011, 1551.709514)"><g><path d="M 114.109375 4.5 C 99.703125 4.5 86.382812 2.175781 74.15625 -2.46875 C 61.925781 -7.125 51.269531 -13.648438 42.1875 -22.046875 C 33.113281 -30.453125 26.0625 -40.429688 21.03125 -51.984375 C 16.007812 -63.546875 13.5 -76.226562 13.5 -90.03125 C 13.5 -103.832031 16.007812 -116.507812 21.03125 -128.0625 C 26.0625 -139.625 33.113281 -149.601562 42.1875 -158 C 51.269531 -166.40625 61.925781 -172.929688 74.15625 -177.578125 C 86.382812 -182.234375 99.703125 -184.5625 114.109375 -184.5625 C 128.515625 -184.5625 141.832031 -182.234375 154.0625 -177.578125 C 166.289062 -172.929688 176.984375 -166.40625 186.140625 -158 C 195.296875 -149.601562 202.382812 -139.625 207.40625 -128.0625 C 212.4375 -116.507812 214.953125 -103.832031 214.953125 -90.03125 C 214.953125 -76.226562 212.4375 -63.546875 207.40625 -51.984375 C 202.382812 -40.429688 195.296875 -30.453125 186.140625 -22.046875 C 176.984375 -13.648438 166.289062 -7.125 154.0625 -2.46875 C 141.832031 2.175781 128.515625 4.5 114.109375 4.5 Z M 114.109375 0.90625 C 126.117188 0.90625 136.8125 -1.566406 146.1875 -6.515625 C 155.5625 -11.472656 163.585938 -18.226562 170.265625 -26.78125 C 176.941406 -35.332031 182.003906 -45.046875 185.453125 -55.921875 C 188.910156 -66.804688 190.640625 -78.175781 190.640625 -90.03125 C 190.640625 -101.882812 188.910156 -113.25 185.453125 -124.125 C 182.003906 -135.007812 176.941406 -144.726562 170.265625 -153.28125 C 163.585938 -161.832031 155.5625 -168.582031 146.1875 -173.53125 C 136.8125 -178.488281 126.117188 -180.96875 114.109375 -180.96875 C 102.253906 -180.96875 91.597656 -178.488281 82.140625 -173.53125 C 72.691406 -168.582031 64.664062 -161.832031 58.0625 -153.28125 C 51.46875 -144.726562 46.441406 -135.007812 42.984375 -124.125 C 39.535156 -113.25 37.8125 -101.882812 37.8125 -90.03125 C 37.8125 -78.175781 39.535156 -66.804688 42.984375 -55.921875 C 46.441406 -45.046875 51.46875 -35.332031 58.0625 -26.78125 C 64.664062 -18.226562 72.691406 -11.472656 82.140625 -6.515625 C 91.597656 -1.566406 102.253906 0.90625 114.109375 0.90625 Z M 114.109375 0.90625 "/></g></g></g><g fill="#ffffff" fill-opacity="1"><g transform="translate(3176.736477, 1551.709514)"><g><path d="M 119.96875 -42.765625 C 123.863281 -32.710938 127.722656 -24.832031 131.546875 -19.125 C 135.378906 -13.425781 139.769531 -9.375 144.71875 -6.96875 C 149.675781 -4.570312 155.601562 -3.375 162.5 -3.375 L 162.5 0 C 150.195312 0 139.878906 -1.234375 131.546875 -3.703125 C 123.222656 -6.179688 116.394531 -10.421875 111.0625 -16.421875 C 105.738281 -22.429688 101.203125 -30.6875 97.453125 -41.1875 C 93.253906 -53.039062 88.789062 -61.96875 84.0625 -67.96875 C 79.34375 -73.976562 74.054688 -78.03125 68.203125 -80.125 C 62.347656 -82.226562 55.519531 -83.28125 47.71875 -83.28125 L 39.609375 -83.28125 L 39.609375 -44.34375 C 39.609375 -38.9375 39.644531 -34.054688 39.71875 -29.703125 C 39.800781 -25.359375 39.988281 -20.894531 40.28125 -16.3125 C 40.582031 -11.738281 40.960938 -6.300781 41.421875 0 L 15.75 0 C 16.207031 -6.300781 16.582031 -11.738281 16.875 -16.3125 C 17.175781 -20.894531 17.363281 -25.359375 17.4375 -29.703125 C 17.519531 -34.054688 17.5625 -38.9375 17.5625 -44.34375 L 17.5625 -135.71875 C 17.5625 -141.269531 17.519531 -146.179688 17.4375 -150.453125 C 17.363281 -154.734375 17.175781 -159.160156 16.875 -163.734375 C 16.582031 -168.316406 16.207031 -173.757812 15.75 -180.0625 L 57.390625 -180.0625 C 67.441406 -180.0625 76.96875 -179.347656 85.96875 -177.921875 C 94.976562 -176.492188 102.972656 -174.015625 109.953125 -170.484375 C 116.929688 -166.960938 122.40625 -162.050781 126.375 -155.75 C 130.351562 -149.445312 132.34375 -141.421875 132.34375 -131.671875 C 132.34375 -120.265625 129.71875 -111.222656 124.46875 -104.546875 C 119.21875 -97.867188 112.128906 -92.953125 103.203125 -89.796875 C 94.273438 -86.648438 84.257812 -84.628906 73.15625 -83.734375 C 82.90625 -81.929688 91.789062 -78.023438 99.8125 -72.015625 C 107.84375 -66.015625 114.5625 -56.265625 119.96875 -42.765625 Z M 39.609375 -86.875 L 57.171875 -86.875 C 63.773438 -86.875 70.1875 -87.550781 76.40625 -88.90625 C 82.632812 -90.257812 88.222656 -92.582031 93.171875 -95.875 C 98.128906 -99.175781 102.070312 -103.71875 105 -109.5 C 107.925781 -115.28125 109.390625 -122.671875 109.390625 -131.671875 C 109.390625 -140.671875 107.925781 -148.054688 105 -153.828125 C 102.070312 -159.609375 98.128906 -164.148438 93.171875 -167.453125 C 88.222656 -170.753906 82.632812 -173.082031 76.40625 -174.4375 C 70.1875 -175.789062 63.773438 -176.46875 57.171875 -176.46875 L 39.609375 -176.46875 Z M 39.609375 -86.875 "/></g></g></g><g fill="#ffffff" fill-opacity="1"><g transform="translate(3406.07139, 1551.709514)"><g><path d="M 130.546875 -24.078125 C 132.046875 -18.984375 133.429688 -14.785156 134.703125 -11.484375 C 135.984375 -8.179688 137.75 -4.351562 140 0 L 111.859375 0 C 111.710938 -5.101562 111.222656 -9.191406 110.390625 -12.265625 C 109.566406 -15.335938 108.484375 -19.273438 107.140625 -24.078125 L 95.4375 -65.5 L 35.109375 -65.5 L 22.953125 -22.953125 C 21.753906 -18.753906 20.703125 -15.078125 19.796875 -11.921875 C 18.898438 -8.773438 18.226562 -4.800781 17.78125 0 L 11.25 0 C 13.800781 -4.945312 15.488281 -8.921875 16.3125 -11.921875 C 17.144531 -14.929688 18.160156 -18.535156 19.359375 -22.734375 L 60.546875 -167.90625 C 61.148438 -170.3125 61.410156 -172.335938 61.328125 -173.984375 C 61.253906 -175.640625 60.84375 -177.664062 60.09375 -180.0625 L 86.65625 -180.0625 Z M 36.015625 -69.09375 L 94.53125 -69.09375 L 65.265625 -172.40625 Z M 36.015625 -69.09375 "/></g></g></g><g fill="#ffffff" fill-opacity="1"><g transform="translate(3615.826676, 1551.709514)"><g><path d="M 144.953125 -180.0625 L 135.046875 -167.453125 C 125.441406 -171.359375 116.515625 -173.835938 108.265625 -174.890625 C 100.015625 -175.941406 93.410156 -176.46875 88.453125 -176.46875 L 85.75 -176.46875 L 85.75 -44.34375 C 85.75 -38.9375 85.820312 -34.054688 85.96875 -29.703125 C 86.125 -25.359375 86.3125 -20.894531 86.53125 -16.3125 C 86.757812 -11.738281 87.101562 -6.300781 87.5625 0 L 61.890625 0 C 62.347656 -6.300781 62.6875 -11.738281 62.90625 -16.3125 C 63.132812 -20.894531 63.320312 -25.359375 63.46875 -29.703125 C 63.625 -34.054688 63.703125 -38.9375 63.703125 -44.34375 L 63.703125 -176.46875 L 61 -176.46875 C 56.039062 -176.46875 49.472656 -175.941406 41.296875 -174.890625 C 33.117188 -173.835938 24.15625 -171.359375 14.40625 -167.453125 L 4.5 -180.0625 Z M 144.953125 -180.0625 "/></g></g></g><g fill="#ffffff" fill-opacity="1"><g transform="translate(3823.781583, 1551.709514)"><g><path d="M 15.75 -180.0625 L 41.421875 -180.0625 C 40.960938 -173.757812 40.582031 -168.316406 40.28125 -163.734375 C 39.988281 -159.160156 39.800781 -154.734375 39.71875 -150.453125 C 39.644531 -146.179688 39.609375 -141.269531 39.609375 -135.71875 L 39.609375 -44.34375 C 39.609375 -38.9375 39.644531 -34.054688 39.71875 -29.703125 C 39.800781 -25.359375 39.988281 -20.894531 40.28125 -16.3125 C 40.582031 -11.738281 40.960938 -6.300781 41.421875 0 L 15.75 0 C 16.207031 -6.300781 16.582031 -11.738281 16.875 -16.3125 C 17.175781 -20.894531 17.363281 -25.359375 17.4375 -29.703125 C 17.519531 -34.054688 17.5625 -38.9375 17.5625 -44.34375 L 17.5625 -135.71875 C 17.5625 -141.269531 17.519531 -146.179688 17.4375 -150.453125 C 17.363281 -154.734375 17.175781 -159.160156 16.875 -163.734375 C 16.582031 -168.316406 16.207031 -173.757812 15.75 -180.0625 Z M 15.75 -180.0625 "/></g></g></g><g fill="#ffffff" fill-opacity="1"><g transform="translate(3939.464735, 1551.709514)"><g><path d="M 114.109375 4.5 C 99.703125 4.5 86.382812 2.175781 74.15625 -2.46875 C 61.925781 -7.125 51.269531 -13.648438 42.1875 -22.046875 C 33.113281 -30.453125 26.0625 -40.429688 21.03125 -51.984375 C 16.007812 -63.546875 13.5 -76.226562 13.5 -90.03125 C 13.5 -103.832031 16.007812 -116.507812 21.03125 -128.0625 C 26.0625 -139.625 33.113281 -149.601562 42.1875 -158 C 51.269531 -166.40625 61.925781 -172.929688 74.15625 -177.578125 C 86.382812 -182.234375 99.703125 -184.5625 114.109375 -184.5625 C 128.515625 -184.5625 141.832031 -182.234375 154.0625 -177.578125 C 166.289062 -172.929688 176.984375 -166.40625 186.140625 -158 C 195.296875 -149.601562 202.382812 -139.625 207.40625 -128.0625 C 212.4375 -116.507812 214.953125 -103.832031 214.953125 -90.03125 C 214.953125 -76.226562 212.4375 -63.546875 207.40625 -51.984375 C 202.382812 -40.429688 195.296875 -30.453125 186.140625 -22.046875 C 176.984375 -13.648438 166.289062 -7.125 154.0625 -2.46875 C 141.832031 2.175781 128.515625 4.5 114.109375 4.5 Z M 114.109375 0.90625 C 126.117188 0.90625 136.8125 -1.566406 146.1875 -6.515625 C 155.5625 -11.472656 163.585938 -18.226562 170.265625 -26.78125 C 176.941406 -35.332031 182.003906 -45.046875 185.453125 -55.921875 C 188.910156 -66.804688 190.640625 -78.175781 190.640625 -90.03125 C 190.640625 -101.882812 188.910156 -113.25 185.453125 -124.125 C 182.003906 -135.007812 176.941406 -144.726562 170.265625 -153.28125 C 163.585938 -161.832031 155.5625 -168.582031 146.1875 -173.53125 C 136.8125 -178.488281 126.117188 -180.96875 114.109375 -180.96875 C 102.253906 -180.96875 91.597656 -178.488281 82.140625 -173.53125 C 72.691406 -168.582031 64.664062 -161.832031 58.0625 -153.28125 C 51.46875 -144.726562 46.441406 -135.007812 42.984375 -124.125 C 39.535156 -113.25 37.8125 -101.882812 37.8125 -90.03125 C 37.8125 -78.175781 39.535156 -66.804688 42.984375 -55.921875 C 46.441406 -45.046875 51.46875 -35.332031 58.0625 -26.78125 C 64.664062 -18.226562 72.691406 -11.472656 82.140625 -6.515625 C 91.597656 -1.566406 102.253906 0.90625 114.109375 0.90625 Z M 114.109375 0.90625 "/></g></g></g><g fill="#ffffff" fill-opacity="1"><g transform="translate(4226.413301, 1551.709514)"><g><path d="M 149.90625 -135.71875 L 149.90625 -44.34375 C 149.90625 -38.9375 149.941406 -34.054688 150.015625 -29.703125 C 150.085938 -25.359375 150.273438 -20.894531 150.578125 -16.3125 C 150.878906 -11.738281 151.253906 -6.300781 151.703125 0 L 126.265625 0 L 20.703125 -171.28125 L 20.703125 -44.34375 C 20.703125 -38.9375 20.738281 -34.054688 20.8125 -29.703125 C 20.894531 -25.359375 21.082031 -20.894531 21.375 -16.3125 C 21.675781 -11.738281 22.050781 -6.300781 22.5 0 L 15.75 0 C 16.207031 -6.300781 16.582031 -11.738281 16.875 -16.3125 C 17.175781 -20.894531 17.363281 -25.359375 17.4375 -29.703125 C 17.519531 -34.054688 17.5625 -38.9375 17.5625 -44.34375 L 17.5625 -135.71875 C 17.5625 -141.269531 17.519531 -146.179688 17.4375 -150.453125 C 17.363281 -154.734375 17.175781 -159.160156 16.875 -163.734375 C 16.582031 -168.316406 16.207031 -173.757812 15.75 -180.0625 L 41.1875 -180.0625 L 146.75 -8.78125 L 146.75 -135.71875 C 146.75 -141.269531 146.710938 -146.179688 146.640625 -150.453125 C 146.566406 -154.734375 146.414062 -159.160156 146.1875 -163.734375 C 145.957031 -168.316406 145.546875 -173.757812 144.953125 -180.0625 L 151.703125 -180.0625 C 151.253906 -173.757812 150.878906 -168.316406 150.578125 -163.734375 C 150.273438 -159.160156 150.085938 -154.734375 150.015625 -150.453125 C 149.941406 -146.179688 149.90625 -141.269531 149.90625 -135.71875 Z M 149.90625 -135.71875 "/></g></g></g></svg>